{
.appVersion = "3223";
.formatVersion = 3;
customParameters = (
{
name = fsType;
value = (
);
},
{
name = "Use Typo Metrics";
value = 1;
}
);
date = "2011-10-09 19:49:26 +0000";
familyName = Sancreek;
fontMaster = (
{
customParameters = (
{
name = typoAscender;
value = 2104;
},
{
name = typoDescender;
value = -738;
},
{
name = typoLineGap;
value = 0;
},
{
name = winAscent;
value = 2104;
},
{
name = winDescent;
value = 738;
},
{
name = hheaAscender;
value = 2104;
},
{
name = hheaDescender;
value = -738;
},
{
name = strikeoutPosition;
value = 852;
},
{
name = strikeoutSize;
value = 102;
},
{
name = "prep Table Assembly";
value = "PUSHW[ ]	/* 1 value pushed */\012511\012SCANCTRL[ ]	/* ScanConversionControl */\012PUSHB[ ]	/* 1 value pushed */\0124\012SCANTYPE[ ]	/* ScanType */";
},
{
name = "CVT Table";
value = "(\012    68,\012    1297\012)";
}
);
id = m01;
metricValues = (
{
pos = 2104;
},
{
pos = 281;
},
{
pos = 402;
},
{
},
{
pos = -738;
},
{
}
);
name = Regular;
}
);
glyphs = (
{
glyphname = A;
layers = (
{
layerId = m01;
shapes = (
{
closed = 1;
nodes = (
(1280,-50,o),
(1280,5,qs),
(1280,9,l),
(1186,88,o),
(1047,423,o),
(1047,592,qs),
(1047,682,o),
(1073,712,qs),
(1083,723,o),
(1099,744,o),
(1099,762,o),
(1074,781,o),
(1032,820,o),
(983,888,o),
(928,1035,o),
(892,1203,o),
(892,1418,o),
(921,1502,q),
(913,1532,o),
(877,1562,o),
(809,1562,o),
(774,1550,qs),
(689,1518,o),
(660,1447,q),
(644,1471,o),
(629,1488,qs),
(561,1562,o),
(503,1562,qs),
(390,1562,o),
(390,1506,qs),
(390,1502,l),
(443,1419,o),
(443,1255,o),
(404,1117,qs),
(288,707,l),
(196,720,o),
(134,768,q),
(124,766,o),
(116,756,qs),
(113,751,o),
(107,730,o),
(107,687,o),
(141,654,qs),
(159,635,o),
(177,629,q),
(107,593,o),
(107,546,qs),
(107,525,o),
(124,495,o),
(134,495,q),
(182,532,o),
(243,547,q),
(191,364,ls),
(151,221,o),
(65,74,o),
(-17,9,q),
(-17,2,ls),
(-17,-50,o),
(53,-50,qs),
(96,-50,o),
(214,14,o),
(255,55,q),
(266,19,o),
(296,-13,qs),
(309,-28,o),
(356,-50,o),
(419,-50,o),
(441,-30,qs),
(449,-22,o),
(462,-1,o),
(464,7,o),
(465,9,q),
(392,91,o),
(392,220,qs),
(392,305,o),
(412,393,qs),
(418,423,o),
(448,539,o),
(454,564,q),
(683,565,l),
(690,565,l),
(704,511,o),
(737,397,o),
(764,303,o),
(764,202,qs),
(764,85,o),
(701,9,q),
(710,-12,o),
(742,-36,qs),
(763,-50,o),
(820,-50,qs),
(928,-50,o),
(981,55,q),
(1081,-50,o)
);
},
{
closed = 1;
nodes = (
(537,698,o),
(486,698,q),
(530,884,o),
(572,1054,q),
(577,1026,o),
(658,698,q),
(596,698,ls)
);
}
);
width = 1261;
}
);
note = A;
unicode = 65;
},
{
glyphname = AE;
layers = (
{
layerId = m01;
shapes = (
{
closed = 1;
nodes = (
(509,1309,qs),
(509,1276,o),
(502,1231,qs),
(499,1216,o),
(488,1161,o),
(486,1148,q),
(440,969,o),
(382,886,qs),
(358,850,o),
(310,800,o),
(276,782,o),
(255,763,o),
(255,746,o),
(276,719,o),
(296,655,o),
(296,511,o),
(227,223,o),
(133,58,o),
(47,-14,q),
(47,-19,ls),
(47,-35,o),
(65,-58,qs),
(78,-74,o),
(135,-74,qs),
(211,-74,o),
(296,11,q),
(312,-18,o),
(360,-53,qs),
(389,-74,o),
(452,-74,qs),
(542,-74,o),
(572,-14,q),
(532,74,o),
(532,209,o),
(538,257,qs),
(564,465,o),
(623,602,q),
(667,640,o),
(877,640,o),
(913,601,q),
(924,526,o),
(924,359,o),
(892,103,o),
(808,-14,q),
(811,-34,o),
(832,-53,qs),
(842,-62,o),
(884,-74,o),
(975,-74,o),
(1024,-44,qs),
(1043,-33,o),
(1077,-4,o),
(1087,8,o),
(1090,11,q),
(1147,-74,o),
(1264,-74,qs),
(1327,-74,o),
(1449,-22,o),
(1488,21,q),
(1512,-11,o),
(1552,-40,qs),
(1572,-54,o),
(1629,-74,o),
(1679,-74,o),
(1695,-69,qs),
(1737,-56,o),
(1737,-30,q),
(1646,46,o),
(1646,331,o),
(1727,395,q),
(1721,415,o),
(1686,435,o),
(1657,435,qs),
(1583,435,o),
(1525,377,q),
(1510,392,ls),
(1467,435,o),
(1382,435,qs),
(1333,435,o),
(1323,395,q),
(1394,326,o),
(1394,237,qs),
(1394,186,o),
(1336,117,o),
(1275,117,qs),
(1176,117,o),
(1176,206,q),
(1200,669,l),
(1409,669,o),
(1505,610,q),
(1512,612,ls),
(1532,618,o),
(1532,661,qs),
(1532,712,o),
(1492,752,q),
(1532,798,o),
(1532,855,qs),
(1532,876,o),
(1515,905,o),
(1505,905,q),
(1454,872,o),
(1318,847,o),
(1200,847,q),
(1177,1294,l),
(1177,1372,o),
(1393,1372,o),
(1393,1277,qs),
(1393,1191,o),
(1322,1127,q),
(1328,1108,o),
(1364,1088,o),
(1393,1088,qs),
(1467,1088,o),
(1524,1145,q),
(1539,1130,ls),
(1554,1116,o),
(1620,1088,o),
(1685,1088,o),
(1722,1111,o),
(1726,1127,q),
(1645,1188,o),
(1645,1312,qs),
(1645,1382,o),
(1686,1478,o),
(1736,1516,q),
(1730,1539,o),
(1690,1562,o),
(1657,1562,qs),
(1559,1562,o),
(1487,1466,q),
(1448,1513,o),
(1313,1562,o),
(1250,1562,qs),
(1130,1562,o),
(1039,1448,q),
(1018,1503,o),
(938,1562,o),
(839,1562,o),
(744,1509,o),
(714,1456,q),
(704,1478,o),
(691,1494,qs),
(634,1562,o),
(548,1562,qs),
(458,1562,o),
(428,1503,q),
(509,1419,o)
);
},
{
closed = 1;
nodes = (
(845,1367,o),
(866,1367,qs),
(894,1367,o),
(904,1005,qs),
(908,858,ls),
(908,825,o),
(838,790,o),
(746,790,o),
(689,821,o),
(689,849,qs),
(689,854,o),
(694,867,o),
(730,995,o),
(770,1131,o)
);
}
);
width = 1800;
}
);
note = AE;
unicode = 198;
},
{
glyphname = B;
layers = (
{
layerId = m01;
shapes = (
{
closed = 1;
nodes = (
(974,802,qs),
(1044,870,o),
(1044,1046,o),
(1088,1088,qs),
(1104,1104,o),
(1131,1127,o),
(1131,1138,o),
(1034,1245,o),
(1034,1323,qs),
(1034,1449,o),
(923,1508,qs),
(820,1562,o),
(664,1562,qs),
(432,1562,o),
(350,1459,q),
(329,1484,ls),
(308,1510,o),
(215,1562,o),
(135,1562,o),
(114,1556,qs),
(58,1539,o),
(58,1503,q),
(126,1438,o),
(179,1287,o),
(179,941,o),
(141,860,qs),
(125,826,o),
(92,787,o),
(70,767,o),
(70,748,o),
(92,729,o),
(125,689,o),
(157,621,o),
(179,481,o),
(179,241,o),
(123,57,o),
(59,1,q),
(69,-12,ls),
(98,-50,o),
(177,-50,qs),
(223,-50,o),
(278,-10,qs),
(298,5,o),
(344,54,o),
(350,65,q),
(398,-4,o),
(560,-50,o),
(664,-50,qs),
(887,-50,o),
(990,58,qs),
(1044,114,o),
(1044,292,o),
(1110,374,qs),
(1131,401,o),
(1131,411,o),
(1110,437,qs),
(1044,516,o),
(1044,569,qs),
(1044,642,o),
(974,716,qs),
(936,756,o),
(888,761,q),
(937,766,o)
);
},
{
closed = 1;
nodes = (
(761,1057,qs),
(743,853,o),
(575,853,qs),
(477,853,l),
(478,1220,ls),
(478,1257,o),
(484,1288,qs),
(488,1308,o),
(509,1333,o),
(558,1372,o),
(638,1372,qs),
(765,1372,o),
(765,1196,qs),
(764,1137,ls),
(764,1091,o)
);
},
{
closed = 1;
nodes = (
(638,134,qs),
(554,134,o),
(513,174,qs),
(497,189,o),
(481,244,o),
(478,279,o),
(478,658,o),
(477,682,q),
(516,683,ls),
(643,683,o),
(704,626,qs),
(765,568,o),
(765,400,qs),
(766,337,ls),
(766,134,o)
);
}
);
width = 1149;
}
);
note = B;
unicode = 66;
},
{
glyphname = C;
layers = (
{
layerId = m01;
shapes = (
{
closed = 1;
nodes = (
(792,924,o),
(820,943,o),
(828,951,o),
(843,937,o),
(875,914,o),
(915,891,o),
(975,875,o),
(1029,875,o),
(1062,895,o),
(1065,907,q),
(987,1003,o),
(987,1235,qs),
(987,1400,o),
(895,1485,qs),
(786,1586,o),
(602,1586,qs),
(148,1586,o),
(148,1096,qs),
(148,917,o),
(110,846,qs),
(94,817,o),
(61,783,o),
(39,766,o),
(39,749,o),
(61,729,o),
(78,710,qs),
(148,629,o),
(148,396,qs),
(148,146,o),
(380,-93,o),
(585,-93,qs),
(698,-93,o),
(794,-51,qs),
(851,-26,o),
(935,51,o),
(991,184,o),
(991,390,o),
(1014,542,o),
(1055,597,q),
(1052,604,ls),
(1041,628,o),
(993,628,qs),
(967,628,o),
(882,605,o),
(819,550,q),
(765,608,o),
(702,608,qs),
(671,608,o),
(649,602,qs),
(595,586,o),
(595,545,q),
(699,531,o),
(699,273,qs),
(699,138,o),
(652,110,qs),
(601,79,o),
(521,113,qs),
(504,120,o),
(481,158,qs),
(456,200,o),
(456,334,qs),
(456,395,ls),
(456,583,o),
(494,664,qs),
(510,698,o),
(543,738,o),
(565,757,o),
(565,782,o),
(536,804,qs),
(524,813,o),
(496,865,o),
(471,939,o),
(455,1081,o),
(455,1256,o),
(468,1300,qs),
(476,1331,o),
(505,1368,o),
(559,1392,o),
(629,1392,o),
(650,1380,qs),
(698,1352,o),
(698,1226,qs),
(698,1118,o),
(643,1025,qs),
(623,990,o),
(588,935,o),
(588,931,qs),
(588,891,o),
(681,891,qs),
(715,891,o)
);
}
);
width = 1106;
}
);
note = C;
unicode = 67;
},
{
glyphname = D;
layers = (
{
layerId = m01;
shapes = (
{
closed = 1;
nodes = (
(725,872,qs),
(714,833,o),
(692,790,o),
(676,769,o),
(676,748,o),
(700,711,o),
(714,684,qs),
(752,609,o),
(752,371,qs),
(752,358,ls),
(752,280,o),
(747,236,qs),
(743,205,o),
(727,176,o),
(688,134,o),
(621,134,qs),
(553,134,o),
(520,174,qs),
(490,211,o),
(490,362,qs),
(490,605,o),
(528,682,qs),
(542,711,o),
(566,747,o),
(566,769,o),
(551,791,qs),
(544,801,o),
(528,831,o),
(512,893,o),
(498,980,o),
(490,1127,o),
(490,1270,o),
(500,1301,qs),
(522,1372,o),
(630,1372,qs),
(752,1372,o),
(752,1218,qs),
(752,967,o)
);
},
{
closed = 1;
nodes = (
(67,-20,o),
(119,-50,o),
(195,-50,o),
(225,-38,qs),
(299,-7,o),
(342,65,q),
(440,-50,o),
(686,-50,qs),
(871,-50,o),
(1082,164,o),
(1082,574,o),
(1113,655,qs),
(1126,689,o),
(1151,729,o),
(1169,748,o),
(1169,766,o),
(1160,776,qs),
(1082,858,o),
(1082,1126,qs),
(1082,1361,o),
(961,1474,qs),
(866,1562,o),
(678,1562,qs),
(430,1562,o),
(342,1462,q),
(322,1487,ls),
(302,1512,o),
(213,1562,o),
(136,1562,o),
(114,1556,qs),
(59,1539,o),
(59,1503,q),
(127,1439,o),
(180,1295,o),
(180,948,o),
(142,864,qs),
(126,828,o),
(93,788,o),
(71,767,o),
(71,748,o),
(117,708,o),
(142,655,qs),
(180,574,o),
(180,365,qs),
(180,122,o),
(59,10,q),
(63,-5,ls)
);
}
);
width = 1211;
}
);
note = D;
unicode = 68;
},
{
glyphname = Dcroat;
layers = (
{
layerId = m01;
shapes = (
{
closed = 1;
nodes = (
(566,747,o),
(566,768,o),
(550,789,o),
(528,833,o),
(506,913,o),
(490,1092,o),
(490,1271,o),
(500,1301,qs),
(522,1372,o),
(630,1372,qs),
(752,1372,o),
(752,1062,o),
(728,863,o),
(700,806,o),
(676,769,o),
(676,747,o),
(700,709,o),
(714,680,qs),
(752,601,o),
(752,351,qs),
(752,347,ls),
(752,344,o),
(752,342,qs),
(752,338,ls),
(752,184,o),
(712,143,qs),
(688,117,o),
(621,117,qs),
(555,117,o),
(530,146,qs),
(516,163,o),
(499,195,o),
(492,256,o),
(490,301,o),
(490,473,o),
(514,649,o),
(542,708,o)
);
},
{
closed = 1;
nodes = (
(686,-74,qs),
(865,-74,o),
(1082,118,o),
(1082,283,qs),
(1082,386,ls),
(1082,574,o),
(1113,655,qs),
(1126,689,o),
(1151,729,o),
(1169,748,o),
(1169,766,o),
(1160,776,qs),
(1082,858,o),
(1082,1126,qs),
(1082,1230,ls),
(1082,1420,o),
(960,1506,qs),
(848,1586,o),
(678,1586,qs),
(445,1586,o),
(362,1502,q),
(340,1517,ls),
(318,1532,o),
(219,1562,o),
(136,1562,o),
(114,1556,qs),
(59,1539,o),
(59,1503,q),
(127,1439,o),
(180,1295,o),
(180,948,o),
(142,864,qs),
(126,828,o),
(93,788,o),
(71,767,o),
(71,748,o),
(93,729,o),
(126,689,o),
(158,621,o),
(180,481,o),
(180,240,o),
(125,50,o),
(59,-14,q),
(63,-29,ls),
(67,-44,o),
(119,-74,o),
(164,-74,qs),
(277,-74,o),
(362,11,q),
(453,-74,o)
);
},
{
closed = 1;
nodes = (
(294,1523,l),
(925,1523,l),
(925,1396,l),
(294,1396,l)
);
}
);
width = 1212;
}
);
note = Dcroat;
unicode = 272;
},
{
glyphname = Eth;
layers = (
{
layerId = m01;
shapes = (
{
closed = 1;
nodes = (
(180,240,o),
(125,50,o),
(59,-14,q),
(63,-29,ls),
(67,-44,o),
(119,-74,o),
(195,-74,o),
(225,-62,qs),
(299,-31,o),
(342,41,q),
(440,-74,o),
(686,-74,qs),
(865,-74,o),
(1082,118,o),
(1082,283,qs),
(1082,386,ls),
(1082,574,o),
(1113,655,qs),
(1126,689,o),
(1151,729,o),
(1169,748,o),
(1169,766,o),
(1160,776,qs),
(1082,858,o),
(1082,1126,qs),
(1082,1230,ls),
(1082,1420,o),
(960,1506,qs),
(848,1586,o),
(678,1586,qs),
(430,1586,o),
(342,1462,q),
(322,1487,ls),
(302,1512,o),
(213,1562,o),
(136,1562,o),
(114,1556,qs),
(59,1539,o),
(59,1503,q),
(127,1439,o),
(180,1295,o),
(180,1163,qs),
(180,912,o),
(119,820,q),
(60,823,o),
(26,829,q),
(20,827,ls),
(1,821,o),
(1,783,qs),
(1,709,ls),
(1,674,o),
(19,665,qs),
(23,663,o),
(62,670,o),
(133,673,q),
(180,580,o)
);
},
{
closed = 1;
nodes = (
(490,1220,qs),
(490,1271,o),
(500,1301,qs),
(522,1372,o),
(630,1372,qs),
(752,1372,o),
(752,1062,o),
(728,863,o),
(700,806,o),
(676,769,o),
(676,747,o),
(700,709,o),
(714,680,qs),
(752,601,o),
(752,351,qs),
(752,347,ls),
(752,344,o),
(752,342,qs),
(752,338,ls),
(752,184,o),
(712,143,qs),
(688,117,o),
(621,117,qs),
(555,117,o),
(530,146,qs),
(516,163,o),
(490,212,o),
(490,342,qs),
(490,565,o),
(525,668,q),
(565,666,o),
(586,663,q),
(592,664,ls),
(611,669,o),
(611,709,qs),
(611,783,ls),
(611,818,o),
(593,827,qs),
(589,829,o),
(566,826,o),
(533,824,q),
(490,925,o)
);
}
);
width = 1212;
}
);
note = Eth;
unicode = 208;
},
{
glyphname = E;
layers = (
{
layerId = m01;
shapes = (
{
closed = 1;
nodes = (
(827,905,o),
(817,905,q),
(769,872,o),
(642,847,o),
(532,847,q),
(489,1294,ls),
(489,1299,o),
(489,1303,qs),
(489,1372,o),
(705,1372,o),
(705,1277,qs),
(705,1191,o),
(634,1127,q),
(640,1108,o),
(676,1088,o),
(705,1088,qs),
(779,1088,o),
(836,1145,q),
(851,1130,ls),
(866,1116,o),
(932,1088,o),
(997,1088,o),
(1034,1111,o),
(1038,1127,q),
(957,1188,o),
(957,1312,qs),
(957,1382,o),
(998,1478,o),
(1048,1516,q),
(1042,1539,o),
(1002,1562,o),
(969,1562,qs),
(871,1562,o),
(799,1466,q),
(760,1513,o),
(625,1562,o),
(562,1562,qs),
(444,1562,o),
(350,1447,q),
(329,1476,ls),
(308,1504,o),
(215,1562,o),
(135,1562,o),
(114,1556,qs),
(58,1539,o),
(58,1503,q),
(126,1438,o),
(179,1285,o),
(179,940,o),
(141,859,qs),
(125,825,o),
(92,787,o),
(70,767,o),
(70,749,o),
(81,740,qs),
(179,655,o),
(179,399,qs),
(179,315,ls),
(179,289,o),
(176,206,o),
(170,171,o),
(158,115,o),
(141,88,o),
(107,39,o),
(59,10,q),
(63,-5,ls),
(67,-20,o),
(119,-50,o),
(197,-50,o),
(228,-38,qs),
(311,-5,o),
(352,64,q),
(367,44,o),
(393,20,qs),
(406,8,o),
(442,-17,o),
(483,-37,o),
(536,-50,o),
(627,-50,o),
(761,-2,o),
(800,45,q),
(871,-50,o),
(970,-50,qs),
(991,-50,o),
(1007,-45,qs),
(1049,-32,o),
(1049,-6,q),
(958,70,o),
(958,355,o),
(1039,419,q),
(1033,439,o),
(998,459,o),
(969,459,qs),
(895,459,o),
(837,401,q),
(822,416,ls),
(779,459,o),
(694,459,qs),
(645,459,o),
(635,419,q),
(706,350,o),
(706,261,qs),
(706,207,o),
(653,134,o),
(560,134,o),
(528,147,qs),
(488,164,o),
(488,230,q),
(532,669,l),
(727,669,o),
(817,610,q),
(824,612,ls),
(844,618,o),
(844,667,qs),
(844,694,o),
(811,732,qs),
(793,753,o),
(774,759,q),
(844,801,o),
(844,855,qs),
(844,876,o)
);
}
);
width = 1082;
}
);
note = E;
unicode = 69;
},
{
glyphname = F;
layers = (
{
layerId = m01;
shapes = (
{
closed = 1;
nodes = (
(786,764,o),
(822,816,o),
(822,865,o),
(805,894,o),
(795,894,q),
(706,833,o),
(521,833,q),
(488,1287,ls),
(488,1292,o),
(488,1296,qs),
(488,1371,o),
(575,1371,qs),
(620,1371,o),
(660,1308,o),
(660,1266,qs),
(660,1191,o),
(590,1127,q),
(596,1108,o),
(631,1088,o),
(693,1088,o),
(761,1123,o),
(780,1145,q),
(835,1088,o),
(901,1088,qs),
(930,1088,o),
(968,1111,o),
(972,1127,q),
(890,1189,o),
(890,1312,qs),
(890,1382,o),
(931,1480,o),
(982,1518,q),
(978,1534,o),
(963,1546,qs),
(955,1553,o),
(923,1562,o),
(851,1562,o),
(804,1528,qs),
(787,1516,o),
(749,1475,o),
(744,1466,q),
(709,1513,o),
(594,1562,o),
(539,1562,qs),
(440,1562,o),
(361,1457,q),
(333,1493,o),
(286,1525,qs),
(263,1540,o),
(196,1562,o),
(134,1562,o),
(112,1556,qs),
(57,1539,o),
(57,1503,q),
(125,1438,o),
(178,1285,o),
(178,940,o),
(140,859,qs),
(124,825,o),
(91,787,o),
(69,767,o),
(69,748,o),
(80,738,qs),
(178,654,o),
(178,385,qs),
(178,302,ls),
(178,276,o),
(175,194,o),
(169,159,o),
(157,104,o),
(140,78,o),
(107,31,o),
(58,1,q),
(68,-15,o),
(94,-32,qs),
(105,-39,o),
(141,-50,o),
(192,-50,o),
(222,-38,qs),
(297,-5,o),
(339,64,q),
(358,36,ls),
(378,7,o),
(460,-50,o),
(525,-50,o),
(594,-30,o),
(609,1,q),
(586,15,o),
(544,49,o),
(518,92,qs),
(488,138,o),
(488,302,qs),
(488,385,l),
(521,651,l),
(701,651,o),
(795,588,q),
(802,590,ls),
(822,596,o),
(822,639,qs),
(822,694,o),
(751,741,q),
(768,752,ls)
);
}
);
width = 975;
}
);
note = F;
unicode = 70;
},
{
glyphname = G;
layers = (
{
layerId = m01;
shapes = (
{
closed = 1;
nodes = (
(109,853,qs),
(93,821,o),
(61,785,o),
(39,766,o),
(39,748,o),
(50,738,qs),
(147,655,o),
(147,386,qs),
(147,138,o),
(349,-94,o),
(724,-94,o),
(832,56,q),
(860,6,o),
(948,-50,o),
(1039,-50,o),
(1115,-8,o),
(1115,26,q),
(1043,87,o),
(988,218,o),
(988,438,o),
(1020,532,o),
(1069,573,q),
(1063,595,o),
(1024,617,o),
(946,617,o),
(854,579,o),
(825,553,q),
(808,569,ls),
(790,585,o),
(715,617,o),
(653,617,o),
(637,612,qs),
(595,599,o),
(595,573,q),
(650,528,o),
(686,428,o),
(686,258,o),
(678,211,qs),
(671,175,o),
(649,130,o),
(604,96,o),
(536,96,o),
(518,110,qs),
(507,117,o),
(491,132,o),
(479,162,o),
(460,211,o),
(460,340,qs),
(460,395,ls),
(460,583,o),
(498,664,qs),
(514,698,o),
(547,738,o),
(569,757,o),
(569,774,o),
(545,799,o),
(512,842,o),
(478,914,o),
(454,1057,o),
(454,1260,o),
(477,1319,qs),
(491,1355,o),
(552,1392,o),
(633,1392,o),
(656,1380,qs),
(708,1351,o),
(708,1228,qs),
(708,1151,o),
(627,1008,qs),
(600,961,o),
(600,946,o),
(603,938,qs),
(605,931,o),
(613,920,o),
(630,907,o),
(652,897,o),
(688,891,o),
(744,891,o),
(810,935,o),
(831,961,o),
(837,971,o),
(842,965,o),
(851,954,o),
(865,940,o),
(884,924,o),
(906,908,o),
(933,893,o),
(962,882,o),
(998,875,o),
(1038,875,o),
(1071,895,o),
(1074,907,q),
(996,1003,o),
(996,1235,qs),
(996,1399,o),
(902,1485,qs),
(791,1586,o),
(604,1586,qs),
(147,1586,o),
(147,1126,qs),
(147,929,o)
);
}
);
width = 1119;
}
);
note = G;
unicode = 71;
},
{
glyphname = H;
layers = (
{
layerId = m01;
shapes = (
{
closed = 1;
nodes = (
(757,1556,qs),
(700,1538,o),
(700,1503,q),
(768,1438,o),
(821,1285,o),
(821,1148,qs),
(821,1124,ls),
(821,1034,o),
(817,983,qs),
(814,948,o),
(800,914,o),
(777,875,o),
(741,858,o),
(689,847,o),
(603,847,o),
(577,857,qs),
(562,863,o),
(534,878,o),
(515,911,qs),
(493,948,o),
(493,1117,qs),
(493,1148,ls),
(493,1285,o),
(546,1438,o),
(614,1503,q),
(610,1518,ls),
(606,1532,o),
(554,1562,o),
(509,1562,qs),
(413,1562,o),
(334,1457,q),
(267,1562,o),
(165,1562,qs),
(136,1562,o),
(115,1556,qs),
(59,1538,o),
(59,1503,q),
(127,1438,o),
(180,1285,o),
(180,940,o),
(142,859,qs),
(126,825,o),
(93,787,o),
(71,767,o),
(71,748,o),
(93,726,o),
(126,683,o),
(158,612,o),
(180,470,o),
(180,234,o),
(127,75,o),
(59,10,q),
(64,-5,ls),
(68,-20,o),
(121,-50,o),
(222,-50,o),
(272,-10,qs),
(290,5,o),
(330,55,o),
(334,65,q),
(354,36,ls),
(373,8,o),
(460,-50,o),
(537,-50,o),
(558,-44,qs),
(614,-26,o),
(614,10,q),
(546,75,o),
(493,233,o),
(493,455,o),
(496,508,qs),
(498,544,o),
(507,580,o),
(522,627,o),
(546,649,o),
(579,671,o),
(625,679,o),
(703,679,o),
(742,665,qs),
(758,659,o),
(783,633,o),
(800,610,o),
(811,564,o),
(817,530,o),
(820,464,o),
(821,417,o),
(821,234,o),
(768,75,o),
(700,10,q),
(704,-5,ls),
(709,-20,o),
(762,-50,o),
(837,-50,o),
(866,-38,qs),
(938,-7,o),
(981,65,q),
(1000,36,ls),
(1018,8,o),
(1103,-50,o),
(1180,-50,o),
(1202,-44,qs),
(1257,-27,o),
(1257,10,q),
(1189,75,o),
(1136,234,o),
(1136,563,o),
(1174,648,qs),
(1190,683,o),
(1223,726,o),
(1245,748,o),
(1245,767,o),
(1223,787,o),
(1190,825,o),
(1158,893,o),
(1136,1042,o),
(1136,1285,o),
(1189,1438,o),
(1257,1503,q),
(1253,1518,ls),
(1249,1532,o),
(1197,1562,o),
(1095,1562,o),
(1044,1526,qs),
(1026,1512,o),
(986,1467,o),
(981,1457,q),
(909,1562,o),
(806,1562,qs),
(778,1562,o)
);
}
);
width = 1322;
}
);
note = H;
unicode = 72;
},
{
glyphname = I;
layers = (
{
layerId = m01;
shapes = (
{
closed = 1;
nodes = (
(114,1556,qs),
(59,1539,o),
(59,1503,q),
(128,1436,o),
(180,1288,o),
(180,940,o),
(142,859,qs),
(126,825,o),
(93,787,o),
(71,767,o),
(71,749,o),
(93,729,o),
(126,689,o),
(158,622,o),
(180,484,o),
(180,241,o),
(128,80,o),
(59,10,q),
(62,-9,o),
(84,-29,qs),
(94,-38,o),
(136,-50,o),
(219,-50,o),
(267,-10,qs),
(285,5,o),
(325,55,o),
(329,65,q),
(348,36,ls),
(366,8,o),
(448,-50,o),
(523,-50,o),
(544,-44,qs),
(600,-26,o),
(600,10,q),
(531,80,o),
(479,241,o),
(479,577,o),
(518,656,qs),
(534,689,o),
(566,729,o),
(588,749,o),
(588,771,o),
(560,794,qs),
(548,803,o),
(519,852,o),
(495,924,o),
(479,1059,o),
(479,1288,o),
(531,1436,o),
(600,1503,q),
(596,1518,ls),
(592,1532,o),
(539,1562,o),
(439,1562,o),
(392,1526,qs),
(374,1512,o),
(341,1475,o),
(332,1461,o),
(329,1457,q),
(262,1562,o),
(164,1562,qs),
(136,1562,o)
);
}
);
width = 665;
}
);
note = I;
unicode = 73;
},
{
glyphname = IJ;
layers = (
{
layerId = m01;
shapes = (
{
closed = 1;
nodes = (
(114,1556,qs),
(59,1539,o),
(59,1503,q),
(128,1436,o),
(180,1288,o),
(180,940,o),
(142,859,qs),
(126,825,o),
(93,787,o),
(71,767,o),
(71,748,o),
(93,728,o),
(126,687,o),
(158,617,o),
(180,473,o),
(180,223,o),
(128,58,o),
(59,-14,q),
(62,-35,o),
(84,-53,qs),
(94,-62,o),
(136,-74,o),
(219,-74,o),
(267,-34,qs),
(285,-19,o),
(325,31,o),
(329,41,q),
(348,12,ls),
(366,-16,o),
(448,-74,o),
(523,-74,o),
(544,-68,qs),
(600,-50,o),
(600,-14,q),
(531,58,o),
(479,223,o),
(479,570,o),
(518,652,qs),
(534,687,o),
(566,728,o),
(588,748,o),
(588,771,o),
(560,794,qs),
(548,803,o),
(519,852,o),
(495,924,o),
(479,1059,o),
(479,1288,o),
(531,1436,o),
(600,1503,q),
(596,1518,ls),
(592,1532,o),
(539,1562,o),
(439,1562,o),
(392,1526,qs),
(374,1512,o),
(341,1475,o),
(332,1461,o),
(329,1457,q),
(262,1562,o),
(164,1562,qs),
(136,1562,o)
);
},
{
closed = 1;
nodes = (
(968,1556,qs),
(912,1538,o),
(912,1503,q),
(979,1442,o),
(1033,1280,o),
(1033,939,o),
(995,860,qs),
(979,826,o),
(947,789,o),
(925,770,o),
(925,752,o),
(936,742,qs),
(1033,659,o),
(1033,387,qs),
(1033,333,ls),
(1033,314,o),
(1031,256,o),
(1028,225,o),
(1023,181,o),
(1015,158,o),
(1003,128,o),
(963,93,o),
(922,93,qs),
(823,93,o),
(767,162,q),
(752,158,o),
(741,145,qs),
(735,138,o),
(727,109,o),
(727,58,o),
(762,-9,o),
(784,-27,q),
(727,-78,o),
(727,-197,o),
(767,-207,q),
(865,-147,o),
(953,-147,qs),
(1155,-147,o),
(1332,102,o),
(1332,386,qs),
(1332,574,o),
(1370,655,qs),
(1386,689,o),
(1417,729,o),
(1439,748,o),
(1439,767,o),
(1417,787,o),
(1386,825,o),
(1354,893,o),
(1332,1042,o),
(1332,1281,o),
(1385,1443,o),
(1453,1503,q),
(1450,1521,o),
(1428,1541,qs),
(1418,1550,o),
(1375,1562,o),
(1291,1562,o),
(1242,1526,qs),
(1224,1512,o),
(1185,1467,o),
(1180,1457,q),
(1113,1562,o),
(1017,1562,qs),
(989,1562,o)
);
}
);
width = 1500;
}
);
note = IJ;
unicode = 306;
},
{
glyphname = J;
layers = (
{
layerId = m01;
shapes = (
{
closed = 1;
nodes = (
(262,1556,qs),
(206,1538,o),
(206,1503,q),
(273,1442,o),
(327,1280,o),
(327,939,o),
(289,860,qs),
(273,826,o),
(241,789,o),
(219,770,o),
(219,752,o),
(230,742,qs),
(327,659,o),
(327,387,qs),
(327,333,ls),
(327,314,o),
(325,256,o),
(322,225,o),
(317,181,o),
(309,158,o),
(297,128,o),
(257,93,o),
(216,93,qs),
(117,93,o),
(61,162,q),
(46,158,o),
(35,145,qs),
(29,138,o),
(21,109,o),
(21,58,o),
(56,-9,o),
(78,-27,q),
(21,-76,o),
(21,-197,o),
(61,-207,q),
(159,-147,o),
(247,-147,qs),
(449,-147,o),
(626,102,o),
(626,386,qs),
(626,574,o),
(664,655,qs),
(680,689,o),
(711,729,o),
(733,748,o),
(733,767,o),
(711,787,o),
(680,825,o),
(648,893,o),
(626,1042,o),
(626,1281,o),
(679,1443,o),
(747,1503,q),
(744,1521,o),
(722,1541,qs),
(712,1550,o),
(669,1562,o),
(585,1562,o),
(536,1526,qs),
(518,1512,o),
(479,1467,o),
(474,1457,q),
(407,1562,o),
(311,1562,qs),
(283,1562,o)
);
}
);
width = 794;
}
);
note = J;
unicode = 74;
},
{
glyphname = K;
layers = (
{
layerId = m01;
shapes = (
{
closed = 1;
nodes = (
(1043,1509,o),
(997,1562,o),
(953,1562,o),
(938,1554,qs),
(903,1536,o),
(888,1491,q),
(815,1353,o),
(790,1178,qs),
(780,1113,o),
(754,907,o),
(746,856,q),
(720,853,ls),
(635,843,o),
(575,843,qs),
(539,843,o),
(513,849,q),
(504,962,o),
(504,1263,o),
(569,1427,o),
(654,1500,q),
(650,1517,o),
(632,1536,qs),
(620,1547,o),
(570,1561,o),
(506,1561,o),
(476,1548,qs),
(398,1514,o),
(355,1442,q),
(274,1561,o),
(174,1561,qs),
(147,1561,o),
(125,1554,qs),
(68,1538,o),
(55,1499,q),
(134,1424,o),
(194,1258,o),
(194,964,o),
(162,902,qs),
(148,874,o),
(116,833,o),
(88,816,o),
(70,798,o),
(70,781,o),
(96,759,o),
(132,715,o),
(168,643,o),
(194,501,o),
(194,237,o),
(133,51,o),
(56,-33,q),
(61,-49,o),
(80,-67,qs),
(91,-78,o),
(141,-92,o),
(232,-92,o),
(299,-30,qs),
(334,2,o),
(355,45,q),
(438,-92,o),
(624,-92,o),
(654,-33,q),
(569,51,o),
(504,236,o),
(504,406,q),
(515,665,l),
(541,661,o),
(577,661,qs),
(645,661,l),
(687,662,ls),
(732,662,o),
(747,649,q),
(747,635,ls),
(747,523,o),
(805,188,o),
(913,-92,o),
(969,-92,qs),
(988,-92,o),
(1006,-78,qs),
(1055,-36,o),
(1071,43,q),
(1096,10,ls),
(1121,-24,o),
(1209,-92,o),
(1246,-92,qs),
(1371,-92,o),
(1378,-35,q),
(1257,27,o),
(1130,239,o),
(1130,364,qs),
(1130,546,o),
(1072,625,qs),
(1047,659,o),
(988,705,o),
(938,720,o),
(905,737,o),
(905,757,o),
(930,769,o),
(970,784,o),
(1018,806,o),
(1065,858,o),
(1105,932,o),
(1130,1062,o),
(1130,1262,o),
(1257,1450,o),
(1378,1505,q),
(1378,1521,o),
(1348,1546,qs),
(1329,1562,o),
(1246,1562,qs),
(1167,1562,o),
(1061,1456,q),
(1052,1482,ls)
);
}
);
width = 1359;
}
);
note = K;
unicode = 75;
},
{
glyphname = L;
layers = (
{
layerId = m01;
shapes = (
{
closed = 1;
nodes = (
(818,21,qs),
(818,72,o),
(761,120,q),
(783,132,o),
(804,168,qs),
(818,192,o),
(818,236,o),
(814,250,qs),
(802,288,o),
(778,288,q),
(739,249,o),
(675,219,o),
(610,219,q),
(510,213,ls),
(489,213,o),
(477,239,o),
(477,283,qs),
(478,395,ls),
(478,579,o),
(516,657,qs),
(532,690,o),
(565,729,o),
(587,749,o),
(587,767,o),
(565,787,o),
(532,825,o),
(500,893,o),
(478,1042,o),
(478,1285,o),
(531,1438,o),
(599,1503,q),
(596,1521,o),
(574,1541,qs),
(564,1550,o),
(521,1562,o),
(440,1562,o),
(391,1526,qs),
(373,1512,o),
(334,1467,o),
(329,1457,q),
(311,1494,o),
(273,1525,qs),
(255,1540,o),
(196,1562,o),
(135,1562,o),
(114,1556,qs),
(58,1539,o),
(58,1503,q),
(126,1438,o),
(179,1285,o),
(179,940,o),
(141,859,qs),
(125,825,o),
(92,787,o),
(70,767,o),
(70,749,o),
(92,729,o),
(108,710,qs),
(179,626,o),
(179,395,qs),
(179,320,ls),
(179,297,o),
(177,221,o),
(172,188,o),
(165,134,o),
(152,109,o),
(144,90,qs),
(127,54,o),
(59,10,q),
(63,-5,ls),
(67,-20,o),
(119,-50,o),
(216,-50,o),
(275,3,qs),
(306,30,o),
(320,64,q),
(398,-50,o),
(463,-50,qs),
(490,-50,o),
(584,10,o),
(684,10,o),
(778,-50,q),
(818,-40,o)
);
}
);
width = 873;
}
);
note = L;
unicode = 76;
},
{
glyphname = Lslash;
layers = (
{
layerId = m01;
shapes = (
{
closed = 1;
nodes = (
(711,728,o),
(733,748,o),
(733,767,o),
(711,787,o),
(678,825,o),
(646,893,o),
(624,1042,o),
(624,1285,o),
(677,1438,o),
(745,1503,q),
(742,1521,o),
(720,1541,qs),
(710,1550,o),
(667,1562,o),
(586,1562,o),
(537,1526,qs),
(519,1512,o),
(480,1467,o),
(475,1457,q),
(457,1494,o),
(419,1525,qs),
(401,1540,o),
(342,1562,o),
(281,1562,o),
(260,1556,qs),
(204,1539,o),
(204,1503,q),
(272,1438,o),
(325,1285,o),
(325,972,o),
(297,888,qs),
(285,852,o),
(256,803,o),
(232,784,o),
(216,766,o),
(216,748,o),
(260,708,o),
(286,652,qs),
(325,570,o),
(325,375,qs),
(325,291,ls),
(325,265,o),
(322,182,o),
(316,147,o),
(304,91,o),
(287,64,o),
(253,15,o),
(205,-14,q),
(209,-29,ls),
(213,-44,o),
(265,-74,o),
(362,-74,o),
(421,-21,qs),
(452,6,o),
(466,40,q),
(544,-73,o),
(609,-73,qs),
(636,-73,o),
(750,-14,o),
(785,-14,qs),
(870,-14,o),
(964,-74,q),
(1004,-64,o),
(1004,-3,qs),
(1004,48,o),
(947,96,q),
(969,108,o),
(990,144,qs),
(1004,168,o),
(1004,212,o),
(1000,226,qs),
(988,264,o),
(964,264,q),
(927,227,o),
(843,195,o),
(636,195,o),
(636,200,q),
(624,232,o),
(624,473,o),
(646,617,o),
(678,687,o)
);
},
{
closed = 1;
nodes = (
(46,828,l),
(46,659,l),
(1082,659,l),
(1082,828,l)
);
}
);
width = 1135;
}
);
note = Lslash;
unicode = 321;
},
{
glyphname = M;
layers = (
{
layerId = m01;
shapes = (
{
closed = 1;
nodes = (
(705,351,o),
(746,421,q),
(768,377,o),
(809,358,qs),
(825,351,o),
(852,351,o),
(867,354,o),
(878,359,o),
(885,364,o),
(887,367,qs),
(891,373,o),
(892,378,q),
(874,405,o),
(874,451,qs),
(874,529,o),
(969,701,qs),
(1030,811,l),
(1033,661,o),
(1033,232,o),
(980,77,o),
(912,10,q),
(912,-26,o),
(969,-44,qs),
(990,-50,o),
(1064,-50,o),
(1146,8,o),
(1164,36,qs),
(1183,65,l),
(1198,28,o),
(1228,2,qs),
(1286,-50,o),
(1382,-50,o),
(1434,-20,o),
(1438,-5,qs),
(1442,10,l),
(1373,77,o),
(1321,232,o),
(1321,473,o),
(1343,617,o),
(1376,687,o),
(1408,728,o),
(1430,748,o),
(1430,766,o),
(1414,784,o),
(1390,803,o),
(1361,852,o),
(1349,888,qs),
(1321,972,o),
(1321,1288,o),
(1373,1436,o),
(1442,1503,q),
(1442,1539,o),
(1386,1556,qs),
(1365,1562,o),
(1337,1562,qs),
(1245,1562,o),
(1183,1457,q),
(1180,1461,o),
(1171,1475,o),
(1138,1512,o),
(1120,1526,qs),
(1073,1562,o),
(990,1562,o),
(947,1550,o),
(937,1541,qs),
(915,1521,o),
(912,1503,q),
(1003,1406,o),
(1022,1288,q),
(751,748,l),
(473,1310,l),
(496,1417,o),
(579,1503,q),
(579,1539,o),
(524,1556,qs),
(502,1562,o),
(474,1562,qs),
(376,1562,o),
(309,1457,q),
(278,1520,o),
(208,1550,qs),
(182,1562,o),
(110,1562,o),
(57,1532,o),
(53,1518,qs),
(49,1503,l),
(118,1436,o),
(170,1288,o),
(170,1042,o),
(148,893,o),
(116,825,o),
(83,787,o),
(61,767,o),
(61,748,o),
(83,728,o),
(116,687,o),
(132,652,qs),
(170,569,o),
(170,232,o),
(117,77,o),
(49,10,q),
(49,-26,o),
(105,-44,qs),
(126,-50,o),
(182,-50,o),
(233,-26,o),
(250,-10,qs),
(288,25,o),
(309,65,q),
(313,55,o),
(353,5,o),
(371,-10,qs),
(419,-50,o),
(519,-50,o),
(571,-20,o),
(575,-5,qs),
(579,10,l),
(511,77,o),
(458,232,o),
(458,375,qs),
(458,701,o),
(462,840,q),
(543,701,ls),
(619,570,o),
(619,466,qs),
(619,411,o),
(597,378,q),
(600,351,o)
);
}
);
width = 1497;
}
);
note = M;
unicode = 77;
},
{
glyphname = N;
layers = (
{
layerId = m01;
shapes = (
{
closed = 1;
nodes = (
(495,-50,qs),
(523,-50,o),
(544,-44,qs),
(600,-27,o),
(600,10,q),
(531,77,o),
(479,232,o),
(479,658,o),
(485,781,q),
(835,284,l),
(828,185,o),
(775,63,o),
(716,10,q),
(720,-11,o),
(740,-29,qs),
(751,-38,o),
(793,-50,o),
(876,-50,o),
(924,-10,qs),
(942,5,o),
(982,55,o),
(986,65,q),
(1004,36,ls),
(1023,8,o),
(1105,-50,o),
(1180,-50,o),
(1201,-44,qs),
(1257,-26,o),
(1257,10,q),
(1188,77,o),
(1136,231,o),
(1136,569,o),
(1174,652,qs),
(1190,687,o),
(1223,728,o),
(1245,748,o),
(1245,767,o),
(1223,787,o),
(1190,825,o),
(1158,893,o),
(1136,1042,o),
(1136,1288,o),
(1188,1436,o),
(1257,1503,q),
(1253,1518,ls),
(1249,1532,o),
(1196,1562,o),
(1096,1562,o),
(1048,1526,qs),
(1031,1512,o),
(998,1475,o),
(989,1461,o),
(986,1457,q),
(919,1562,o),
(821,1562,qs),
(793,1562,o),
(772,1556,qs),
(716,1539,o),
(716,1503,q),
(785,1436,o),
(837,1288,o),
(837,1148,qs),
(837,838,o),
(805,741,q),
(480,1251,l),
(486,1343,o),
(539,1454,o),
(600,1503,q),
(596,1518,ls),
(592,1532,o),
(540,1562,o),
(441,1562,o),
(392,1526,qs),
(374,1512,o),
(335,1467,o),
(330,1457,q),
(263,1562,o),
(165,1562,qs),
(136,1562,o),
(115,1556,qs),
(59,1538,o),
(59,1503,q),
(128,1436,o),
(180,1288,o),
(180,940,o),
(142,859,qs),
(126,825,o),
(93,787,o),
(71,767,o),
(71,748,o),
(93,728,o),
(126,687,o),
(158,617,o),
(180,473,o),
(180,232,o),
(128,77,o),
(59,10,q),
(63,-5,ls),
(67,-20,o),
(120,-50,o),
(165,-50,qs),
(261,-50,o),
(330,65,q),
(397,-50,o)
);
}
);
width = 1322;
}
);
note = N;
unicode = 78;
},
{
glyphname = O;
layers = (
{
layerId = m01;
shapes = (
{
closed = 1;
nodes = (
(526,650,qs),
(538,682,o),
(563,724,o),
(580,744,o),
(580,755,o),
(563,772,o),
(538,808,o),
(513,870,o),
(496,1000,o),
(496,1210,o),
(501,1262,qs),
(505,1304,o),
(521,1341,o),
(550,1379,o),
(595,1392,o),
(680,1392,o),
(702,1374,qs),
(716,1364,o),
(735,1344,o),
(748,1298,o),
(755,1262,o),
(758,1190,o),
(759,1138,o),
(759,980,o),
(732,834,o),
(701,785,o),
(674,755,o),
(674,745,o),
(692,728,o),
(704,708,qs),
(759,619,o),
(759,432,qs),
(759,376,ls),
(759,356,o),
(755,232,o),
(730,179,qs),
(712,140,o),
(663,131,qs),
(599,119,o),
(564,140,qs),
(551,148,o),
(532,161,o),
(518,191,o),
(497,235,o),
(497,365,qs),
(497,440,o),
(497,440,q),
(497,573,o)
);
},
{
closed = 1;
nodes = (
(1175,725,o),
(1202,746,o),
(1202,753,o),
(1190,762,qs),
(1092,844,o),
(1092,1077,qs),
(1092,1290,o),
(1037,1400,qs),
(1009,1455,o),
(935,1529,o),
(825,1570,o),
(707,1586,o),
(549,1586,o),
(430,1570,o),
(320,1529,o),
(245,1455,o),
(189,1344,o),
(162,1183,o),
(162,915,o),
(118,839,qs),
(100,808,o),
(64,771,o),
(38,754,o),
(38,746,o),
(51,737,qs),
(162,660,o),
(162,421,qs),
(162,138,o),
(283,20,qs),
(344,-40,o),
(512,-93,o),
(742,-93,o),
(910,-40,o),
(1032,79,o),
(1092,279,o),
(1092,504,o),
(1112,627,o),
(1150,696,o)
);
}
);
width = 1241;
}
);
note = O;
unicode = 79;
},
{
glyphname = Oslash;
layers = (
{
layerId = m01;
shapes = (
{
closed = 1;
nodes = (
(1067,1710,l),
(983,1750,l),
(165,-229,l),
(249,-269,l)
);
},
{
closed = 1;
nodes = (
(497,1205,qs),
(498,1236,o),
(503,1268,o),
(511,1310,o),
(525,1331,o),
(544,1355,o),
(571,1365,o),
(604,1372,o),
(648,1372,o),
(682,1365,o),
(715,1352,o),
(734,1320,qs),
(758,1283,o),
(758,1088,qs),
(758,432,ls),
(758,356,o),
(756,290,qs),
(754,251,o),
(747,212,o),
(735,159,o),
(716,134,o),
(677,98,o),
(626,98,qs),
(559,98,o),
(534,136,qs),
(520,158,o),
(496,216,o),
(496,421,qs),
(495,1088,ls),
(495,1143,o)
);
},
{
closed = 1;
nodes = (
(1130,662,qs),
(1149,696,o),
(1174,725,o),
(1201,746,o),
(1201,753,o),
(1190,762,qs),
(1091,844,o),
(1091,1077,qs),
(1091,1290,o),
(1036,1400,qs),
(1008,1455,o),
(934,1529,o),
(824,1570,o),
(706,1586,o),
(548,1586,o),
(429,1570,o),
(319,1529,o),
(244,1455,o),
(188,1344,o),
(161,1183,o),
(161,915,o),
(117,839,qs),
(99,808,o),
(63,771,o),
(37,754,o),
(37,746,o),
(50,737,qs),
(161,660,o),
(161,421,qs),
(161,143,o),
(392,-92,o),
(860,-92,o),
(1091,143,o),
(1091,421,qs),
(1091,591,o)
);
}
);
width = 1240;
}
);
note = Oslash;
unicode = 216;
},
{
glyphname = OE;
layers = (
{
layerId = m01;
shapes = (
{
closed = 1;
nodes = (
(1425,855,qs),
(1425,876,o),
(1408,905,o),
(1398,905,q),
(1350,872,o),
(1223,847,o),
(1113,847,q),
(1070,1294,l),
(1070,1372,o),
(1286,1372,o),
(1286,1277,qs),
(1286,1191,o),
(1215,1127,q),
(1221,1108,o),
(1257,1088,o),
(1286,1088,qs),
(1360,1088,o),
(1417,1145,q),
(1432,1130,ls),
(1447,1116,o),
(1513,1088,o),
(1578,1088,o),
(1615,1111,o),
(1619,1127,q),
(1538,1188,o),
(1538,1312,qs),
(1538,1382,o),
(1579,1478,o),
(1629,1516,q),
(1623,1539,o),
(1583,1562,o),
(1550,1562,qs),
(1452,1562,o),
(1380,1466,q),
(1341,1513,o),
(1206,1562,o),
(1143,1562,qs),
(1016,1562,o),
(911,1447,q),
(828,1586,o),
(628,1586,qs),
(473,1586,o),
(375,1550,qs),
(320,1529,o),
(245,1455,o),
(189,1344,o),
(162,1183,o),
(162,915,o),
(118,839,qs),
(100,808,o),
(64,771,o),
(38,754,o),
(38,746,o),
(51,737,qs),
(162,660,o),
(162,421,qs),
(162,143,o),
(393,-92,o),
(627,-92,qs),
(692,-92,o),
(791,-26,qs),
(828,-1,o),
(899,40,o),
(913,40,o),
(920,32,o),
(932,19,o),
(950,2,o),
(974,-17,o),
(1002,-36,o),
(1037,-53,o),
(1075,-66,o),
(1121,-74,o),
(1208,-74,o),
(1342,-26,o),
(1381,21,q),
(1405,-11,o),
(1446,-40,qs),
(1465,-54,o),
(1522,-74,o),
(1572,-74,o),
(1588,-69,qs),
(1630,-56,o),
(1630,-30,q),
(1539,46,o),
(1539,331,o),
(1620,395,q),
(1614,415,o),
(1579,435,o),
(1550,435,qs),
(1476,435,o),
(1418,377,q),
(1403,392,ls),
(1358,435,o),
(1274,435,qs),
(1226,435,o),
(1216,395,q),
(1287,326,o),
(1287,237,qs),
(1287,186,o),
(1229,117,o),
(1168,117,qs),
(1069,117,o),
(1069,206,q),
(1113,669,l),
(1308,669,o),
(1398,610,q),
(1404,611,o),
(1425,627,o),
(1425,661,qs),
(1425,712,o),
(1385,752,q),
(1425,798,o)
);
},
{
closed = 1;
nodes = (
(563,724,o),
(580,744,o),
(580,755,o),
(563,772,o),
(538,808,o),
(513,870,o),
(496,1000,o),
(496,1143,o),
(498,1205,qs),
(499,1236,o),
(504,1268,o),
(512,1310,o),
(526,1331,o),
(545,1355,o),
(572,1365,o),
(605,1372,o),
(649,1372,o),
(683,1365,o),
(716,1352,o),
(736,1320,qs),
(759,1283,o),
(759,1088,qs),
(759,1086,ls),
(753,916,o),
(716,846,qs),
(700,818,o),
(671,785,o),
(651,766,o),
(651,748,o),
(671,730,o),
(701,694,o),
(731,635,o),
(756,514,o),
(759,356,o),
(756,290,qs),
(755,251,o),
(748,212,o),
(736,159,o),
(717,134,o),
(678,98,o),
(627,98,qs),
(560,98,o),
(536,136,qs),
(521,158,o),
(505,197,o),
(498,290,o),
(497,352,o),
(497,498,o),
(514,618,o),
(538,682,o)
);
}
);
width = 1693;
}
);
note = OE;
unicode = 338;
},
{
glyphname = P;
layers = (
{
layerId = m01;
shapes = (
{
closed = 1;
nodes = (
(554,-44,qs),
(611,-26,o),
(611,10,q),
(543,80,o),
(490,245,o),
(490,396,qs),
(490,586,l),
(630,586,o),
(747,628,qs),
(814,652,o),
(920,726,o),
(1002,849,o),
(1033,1025,o),
(1058,1074,qs),
(1067,1093,o),
(1083,1116,o),
(1092,1127,o),
(1092,1136,o),
(1077,1152,o),
(1066,1164,qs),
(1038,1197,o),
(1016,1299,qs),
(988,1426,o),
(882,1495,qs),
(832,1528,o),
(711,1562,o),
(578,1562,o),
(523,1552,qs),
(388,1526,o),
(354,1466,q),
(329,1497,o),
(282,1528,qs),
(260,1542,o),
(197,1562,o),
(136,1562,o),
(114,1556,qs),
(59,1539,o),
(59,1503,q),
(127,1436,o),
(180,1278,o),
(180,934,o),
(142,856,qs),
(126,823,o),
(93,786,o),
(71,766,o),
(71,749,o),
(93,729,o),
(126,691,o),
(158,625,o),
(180,489,o),
(180,247,o),
(127,78,o),
(59,10,q),
(62,-9,o),
(84,-29,qs),
(94,-38,o),
(136,-50,o),
(219,-50,o),
(267,-10,qs),
(285,5,o),
(325,55,o),
(329,65,q),
(401,-50,o),
(505,-50,qs),
(533,-50,o)
);
},
{
closed = 1;
nodes = (
(706,871,ls),
(706,821,o),
(589,755,o),
(490,748,q),
(490,1322,ls),
(490,1340,o),
(565,1372,o),
(647,1372,o),
(706,1328,o),
(706,1302,qs)
);
}
);
width = 1062;
}
);
note = P;
unicode = 80;
},
{
glyphname = Thorn;
layers = (
{
layerId = m01;
shapes = (
{
closed = 1;
nodes = (
(546,-68,qs),
(602,-50,o),
(602,-14,q),
(534,59,o),
(481,230,o),
(481,386,qs),
(481,476,l),
(619,476,o),
(738,518,qs),
(805,542,o),
(910,616,o),
(992,739,o),
(1025,921,o),
(1048,964,qs),
(1057,983,o),
(1074,1006,o),
(1083,1017,o),
(1083,1026,o),
(1067,1042,o),
(1056,1054,qs),
(1027,1084,o),
(1007,1189,q),
(976,1306,o),
(771,1436,o),
(635,1436,qs),
(549,1436,o),
(480,1379,q),
(502,1542,o),
(603,1652,q),
(600,1671,o),
(578,1691,qs),
(568,1700,o),
(525,1712,o),
(466,1712,o),
(436,1700,qs),
(364,1669,o),
(321,1597,q),
(299,1635,o),
(260,1671,qs),
(241,1688,o),
(185,1712,o),
(128,1712,o),
(107,1706,qs),
(51,1688,o),
(51,1652,q),
(116,1583,o),
(171,1419,o),
(171,1282,qs),
(171,1097,ls),
(171,917,o),
(133,846,qs),
(117,817,o),
(84,783,o),
(62,766,o),
(62,748,o),
(84,729,o),
(117,689,o),
(149,621,o),
(171,481,o),
(171,232,o),
(118,57,o),
(50,-14,q),
(54,-35,o),
(74,-53,qs),
(85,-62,o),
(127,-74,o),
(210,-74,o),
(258,-34,qs),
(276,-19,o),
(316,31,o),
(320,41,q),
(392,-74,o),
(496,-74,qs),
(524,-74,o)
);
},
{
closed = 1;
nodes = (
(697,821,ls),
(697,735,o),
(593,669,o),
(481,658,q),
(481,1172,ls),
(481,1190,o),
(556,1222,o),
(638,1222,o),
(697,1177,o),
(697,1152,qs)
);
}
);
width = 1118;
}
);
note = Thorn;
unicode = 222;
},
{
glyphname = Q;
layers = (
{
layerId = m01;
shapes = (
{
closed = 1;
nodes = (
(526,650,qs),
(538,682,o),
(562,724,o),
(579,744,o),
(579,755,o),
(562,772,o),
(537,808,o),
(512,870,o),
(495,1000,o),
(495,1210,o),
(500,1262,qs),
(504,1304,o),
(520,1341,o),
(549,1379,o),
(594,1392,o),
(679,1392,o),
(702,1374,qs),
(715,1364,o),
(734,1344,o),
(747,1298,o),
(754,1262,o),
(757,1190,o),
(758,1138,o),
(758,980,o),
(731,834,o),
(700,785,o),
(673,755,o),
(673,745,o),
(682,736,qs),
(758,665,o),
(758,432,qs),
(758,376,ls),
(758,356,o),
(754,232,o),
(729,179,qs),
(711,140,o),
(662,131,qs),
(598,119,o),
(562,140,qs),
(550,148,o),
(531,161,o),
(517,191,o),
(496,235,o),
(496,365,qs),
(496,440,o),
(496,440,q),
(496,574,o)
);
},
{
closed = 1;
nodes = (
(775,-216,o),
(776,-216,qs),
(794,-214,o),
(839,-214,o),
(878,-246,o),
(878,-293,o),
(837,-329,o),
(747,-329,o),
(660,-233,o),
(660,-142,qs),
(660,-117,o),
(664,-91,q),
(817,-85,o),
(912,-26,qs),
(1091,86,o),
(1091,421,qs),
(1091,591,o),
(1130,662,qs),
(1149,696,o),
(1174,725,o),
(1201,746,o),
(1201,753,o),
(1190,762,qs),
(1091,844,o),
(1091,1077,qs),
(1091,1290,o),
(1036,1400,qs),
(1008,1455,o),
(934,1529,o),
(824,1570,o),
(706,1586,o),
(548,1586,o),
(429,1570,o),
(319,1529,o),
(244,1455,o),
(188,1344,o),
(161,1183,o),
(161,915,o),
(117,839,qs),
(99,808,o),
(63,771,o),
(37,754,o),
(37,746,o),
(63,728,o),
(99,689,o),
(135,625,o),
(161,501,o),
(161,291,o),
(186,197,qs),
(256,-64,o),
(551,-89,q),
(550,-104,o),
(550,-115,qs),
(550,-287,o),
(640,-378,qs),
(725,-462,o),
(837,-462,qs),
(959,-462,o),
(1138,-315,o),
(1138,-189,q),
(1122,-65,l),
(1122,-22,o),
(1146,12,q),
(1132,19,o),
(1114,19,qs),
(1037,19,o),
(995,-69,qs),
(973,-114,o),
(973,-154,q),
(907,-125,o),
(828,-125,o),
(786,-163,o),
(775,-197,o)
);
}
);
width = 1241;
}
);
note = Q;
unicode = 81;
},
{
glyphname = R;
layers = (
{
layerId = m01;
shapes = (
{
closed = 1;
nodes = (
(392,-13,qs),
(411,-28,o),
(467,-50,o),
(524,-50,o),
(546,-44,qs),
(601,-27,o),
(601,10,q),
(538,79,o),
(490,238,o),
(490,385,qs),
(490,695,l),
(624,695,ls),
(704,695,o),
(726,544,qs),
(735,477,o),
(746,315,o),
(771,154,o),
(818,20,o),
(922,-64,o),
(999,-64,qs),
(1138,-64,o),
(1224,23,q),
(1127,85,o),
(1100,226,qs),
(1088,289,o),
(1062,549,o),
(1042,622,qs),
(1005,750,o),
(887,789,q),
(952,795,o),
(1038,897,o),
(1053,1053,o),
(1086,1100,qs),
(1099,1118,o),
(1119,1142,o),
(1119,1153,o),
(1086,1189,qs),
(1074,1203,o),
(1048,1266,o),
(1033,1394,o),
(988,1450,qs),
(967,1476,o),
(907,1516,o),
(839,1541,o),
(755,1556,o),
(670,1562,o),
(500,1562,o),
(432,1527,qs),
(407,1514,o),
(367,1476,o),
(362,1462,q),
(334,1496,o),
(288,1526,qs),
(265,1541,o),
(199,1562,o),
(136,1562,o),
(114,1556,qs),
(59,1539,o),
(59,1503,q),
(127,1439,o),
(180,1295,o),
(180,948,o),
(142,864,qs),
(126,828,o),
(93,788,o),
(71,767,o),
(71,748,o),
(93,729,o),
(126,689,o),
(158,621,o),
(180,481,o),
(180,248,o),
(125,70,o),
(59,10,q),
(63,-5,ls),
(67,-20,o),
(119,-50,o),
(218,-50,o),
(267,-14,qs),
(285,0,o),
(324,45,o),
(329,55,q),
(352,18,o)
);
},
{
closed = 1;
nodes = (
(720,963,ls),
(720,904,o),
(608,851,o),
(490,851,q),
(490,1322,ls),
(490,1340,o),
(577,1372,o),
(662,1372,o),
(720,1328,o),
(720,1302,qs)
);
}
);
width = 1211;
}
);
note = R;
unicode = 82;
},
{
glyphname = S;
layers = (
{
layerId = m01;
shapes = (
{
closed = 1;
nodes = (
(558,116,o),
(433,116,o),
(351,178,o),
(351,306,o),
(438,389,o),
(496,396,q),
(496,404,ls),
(496,424,o),
(479,448,qs),
(469,463,o),
(421,482,o),
(323,482,o),
(257,447,q),
(256,511,o),
(161,634,o),
(99,634,qs),
(76,634,o),
(62,624,q),
(96,578,o),
(96,495,o),
(43,344,o),
(43,206,o),
(120,53,o),
(184,5,qs),
(316,-93,o),
(501,-93,qs),
(701,-93,o),
(853,20,qs),
(927,75,o),
(1017,253,o),
(1017,509,o),
(889,735,o),
(780,807,qs),
(734,838,o),
(703,927,qs),
(694,953,o),
(679,953,o),
(583,926,o),
(495,926,o),
(453,967,qs),
(372,1045,o),
(372,1204,qs),
(372,1392,o),
(529,1392,qs),
(577,1392,o),
(654,1320,o),
(654,1191,o),
(561,1133,o),
(499,1130,q),
(499,1117,o),
(506,1100,qs),
(511,1085,o),
(532,1066,o),
(578,1049,o),
(639,1049,o),
(727,1072,o),
(734,1083,q),
(750,1023,o),
(783,976,qs),
(800,951,o),
(859,917,o),
(925,917,o),
(943,911,q),
(893,966,o),
(893,1026,qs),
(893,1042,o),
(941,1196,o),
(941,1242,qs),
(941,1381,o),
(844,1468,qs),
(801,1506,o),
(642,1586,o),
(537,1586,qs),
(297,1586,o),
(26,1362,o),
(26,1155,qs),
(26,898,o),
(218,743,qs),
(277,696,o),
(300,618,qs),
(308,594,o),
(318,589,q),
(326,587,l),
(331,587,o),
(403,605,o),
(432,605,qs),
(540,605,o),
(670,436,o),
(670,305,qs),
(670,215,o)
);
}
);
width = 1043;
}
);
note = S;
unicode = 83;
},
{
glyphname = T;
layers = (
{
layerId = m01;
shapes = (
{
closed = 1;
nodes = (
(140,1294,o),
(316,1294,o),
(316,1290,q),
(328,1262,o),
(328,941,o),
(290,860,qs),
(274,825,o),
(241,785,o),
(219,765,o),
(219,747,o),
(241,727,o),
(274,690,o),
(306,624,o),
(328,477,o),
(328,234,o),
(275,75,o),
(207,10,q),
(210,-9,o),
(232,-29,qs),
(242,-38,o),
(285,-50,o),
(346,-50,o),
(376,-38,qs),
(450,-7,o),
(479,65,q),
(496,36,ls),
(514,8,o),
(594,-50,o),
(669,-50,o),
(690,-44,qs),
(746,-26,o),
(746,10,q),
(678,75,o),
(625,233,o),
(625,546,o),
(653,628,qs),
(665,663,o),
(694,712,o),
(718,730,o),
(734,748,o),
(734,765,o),
(712,785,o),
(680,825,o),
(647,894,o),
(625,1038,o),
(625,1278,o),
(637,1290,q),
(740,1294,ls),
(847,1294,o),
(908,1224,q),
(923,1228,o),
(934,1241,qs),
(939,1248,o),
(947,1277,o),
(947,1321,o),
(913,1379,o),
(890,1393,q),
(908,1400,o),
(932,1440,qs),
(947,1465,o),
(947,1510,o),
(943,1524,qs),
(933,1562,o),
(908,1562,q),
(827,1514,o),
(751,1514,qs),
(720,1514,o),
(615,1562,o),
(589,1562,qs),
(526,1562,o),
(479,1480,q),
(431,1562,o),
(367,1562,qs),
(341,1562,o),
(236,1514,o),
(205,1514,qs),
(126,1514,o),
(48,1562,q),
(28,1556,o),
(8,1521,o),
(8,1465,o),
(40,1410,o),
(64,1393,q),
(8,1346,o),
(8,1234,o),
(48,1224,q),
(76,1261,o)
);
}
);
width = 948;
}
);
note = T;
unicode = 84;
},
{
glyphname = U;
layers = (
{
layerId = m01;
shapes = (
{
closed = 1;
nodes = (
(812,1562,qs),
(783,1562,o),
(762,1556,qs),
(706,1538,o),
(706,1503,q),
(767,1439,o),
(813,1286,o),
(813,1019,o),
(789,854,o),
(761,807,o),
(737,777,o),
(737,759,o),
(761,730,o),
(775,708,qs),
(813,646,o),
(813,451,qs),
(813,421,ls),
(813,353,o),
(811,309,qs),
(810,279,o),
(804,244,o),
(794,200,o),
(779,176,o),
(757,149,o),
(727,136,o),
(689,127,o),
(619,127,o),
(593,140,qs),
(579,147,o),
(553,166,o),
(535,204,qs),
(515,248,o),
(515,423,qs),
(515,460,ls),
(515,649,o),
(553,709,qs),
(567,731,o),
(591,759,o),
(591,777,o),
(567,807,o),
(539,854,o),
(515,1019,o),
(515,1285,o),
(568,1438,o),
(636,1503,q),
(632,1518,ls),
(628,1532,o),
(575,1562,o),
(530,1562,qs),
(422,1562,o),
(343,1457,q),
(313,1494,o),
(265,1525,qs),
(242,1540,o),
(174,1562,o),
(112,1562,o),
(90,1556,qs),
(35,1539,o),
(35,1503,q),
(103,1438,o),
(156,1285,o),
(156,940,o),
(125,859,qs),
(112,825,o),
(87,787,o),
(69,767,o),
(69,749,o),
(87,730,o),
(112,692,o),
(138,629,o),
(156,497,o),
(156,269,o),
(189,172,qs),
(279,-93,o),
(652,-93,qs),
(887,-93,o),
(1008,17,qs),
(1072,75,o),
(1136,269,o),
(1136,585,o),
(1167,660,qs),
(1180,692,o),
(1205,730,o),
(1223,749,o),
(1223,767,o),
(1205,787,o),
(1180,825,o),
(1154,893,o),
(1136,1042,o),
(1136,1285,o),
(1189,1438,o),
(1257,1503,q),
(1253,1518,ls),
(1249,1532,o),
(1196,1562,o),
(1151,1562,qs),
(1056,1562,o),
(977,1457,q),
(910,1562,o)
);
}
);
width = 1286;
}
);
note = U;
unicode = 85;
},
{
glyphname = V;
layers = (
{
layerId = m01;
shapes = (
{
closed = 1;
nodes = (
(1059,1498,o),
(1018,1457,q),
(1005,1492,o),
(972,1525,qs),
(956,1540,o),
(901,1562,o),
(834,1562,o),
(812,1542,qs),
(804,1534,o),
(791,1513,o),
(789,1505,o),
(788,1503,q),
(851,1421,o),
(851,1209,o),
(836,1122,qs),
(797,905,o),
(706,753,q),
(706,748,o),
(720,723,o),
(733,659,o),
(733,534,o),
(681,368,q),
(676,402,o),
(509,1221,o),
(509,1427,o),
(572,1503,q),
(564,1522,o),
(531,1547,qs),
(511,1562,o),
(453,1562,qs),
(344,1562,o),
(292,1457,q),
(192,1562,o),
(-7,1562,o),
(-7,1507,qs),
(-7,1503,l),
(92,1423,o),
(226,1099,o),
(226,920,qs),
(226,830,o),
(200,800,qs),
(190,789,o),
(174,768,o),
(174,750,o),
(199,731,o),
(244,691,o),
(296,624,o),
(358,477,o),
(412,259,o),
(412,199,qs),
(412,94,o),
(352,10,q),
(362,-20,o),
(406,-50,o),
(480,-50,o),
(514,-38,qs),
(600,-6,o),
(629,65,q),
(656,24,o),
(709,-22,qs),
(742,-50,o),
(790,-50,qs),
(903,-50,o),
(903,6,qs),
(903,10,l),
(850,93,o),
(850,254,o),
(873,340,qs),
(930,552,o),
(1065,762,q),
(1065,763,o),
(1045,838,o),
(1045,910,qs),
(1045,1086,o),
(1190,1423,o),
(1290,1503,q),
(1290,1510,ls),
(1290,1562,o),
(1220,1562,qs),
(1177,1562,o)
);
}
);
width = 1271;
}
);
note = V;
unicode = 86;
},
{
glyphname = W;
layers = (
{
layerId = m01;
shapes = (
{
closed = 1;
nodes = (
(1685,1500,o),
(1649,1457,q),
(1636,1492,o),
(1602,1525,qs),
(1587,1540,o),
(1532,1562,o),
(1465,1562,o),
(1443,1542,qs),
(1435,1534,o),
(1422,1513,o),
(1420,1505,o),
(1419,1503,q),
(1472,1432,o),
(1472,1198,o),
(1450,1082,qs),
(1440,1032,o),
(1414,927,o),
(1392,854,o),
(1368,782,o),
(1359,759,o),
(1357,748,o),
(1370,723,o),
(1384,659,o),
(1384,535,o),
(1352,368,q),
(1344,418,o),
(1180,1195,o),
(1180,1310,qs),
(1180,1427,o),
(1243,1503,q),
(1235,1522,o),
(1210,1541,qs),
(1198,1550,o),
(1153,1562,o),
(1095,1562,o),
(1045,1539,o),
(1015,1512,o),
(991,1475,o),
(985,1461,o),
(983,1457,q),
(964,1494,o),
(930,1525,qs),
(914,1540,o),
(864,1562,o),
(785,1562,o),
(746,1537,qs),
(724,1522,o),
(724,1504,qs),
(724,1503,l),
(750,1467,o),
(778,1423,o),
(812,1327,o),
(812,1277,qs),
(812,930,o),
(659,753,qs),
(655,749,o),
(655,741,o),
(670,713,o),
(686,650,o),
(686,534,o),
(634,368,q),
(629,410,o),
(523,1110,o),
(495,1256,o),
(495,1313,qs),
(495,1423,o),
(555,1503,q),
(547,1522,o),
(514,1547,qs),
(494,1562,o),
(436,1562,qs),
(328,1562,o),
(275,1457,q),
(189,1562,o),
(6,1562,o),
(6,1507,qs),
(6,1503,l),
(92,1422,o),
(199,1102,o),
(199,920,qs),
(199,830,o),
(173,800,qs),
(163,789,o),
(147,768,o),
(147,750,o),
(170,731,o),
(210,691,o),
(256,624,o),
(313,476,o),
(365,249,o),
(365,195,qs),
(365,92,o),
(305,10,q),
(315,-20,o),
(359,-50,o),
(433,-50,o),
(468,-38,qs),
(553,-6,o),
(582,65,q),
(609,24,o),
(662,-22,qs),
(695,-50,o),
(743,-50,qs),
(856,-50,o),
(856,6,qs),
(856,10,l),
(803,92,o),
(803,255,o),
(899,630,o),
(957,805,q),
(972,746,ls),
(1015,580,o),
(1046,415,qs),
(1057,357,o),
(1083,231,o),
(1083,195,qs),
(1083,92,o),
(1023,10,q),
(1033,-20,o),
(1077,-50,o),
(1151,-50,o),
(1186,-38,qs),
(1271,-6,o),
(1300,65,q),
(1327,24,o),
(1380,-22,qs),
(1413,-50,o),
(1461,-50,qs),
(1574,-50,o),
(1574,6,qs),
(1574,10,l),
(1521,92,o),
(1521,247,o),
(1542,332,qs),
(1597,553,o),
(1716,762,q),
(1716,763,o),
(1696,838,o),
(1696,910,qs),
(1696,1099,o),
(1795,1420,o),
(1881,1503,q),
(1881,1510,ls),
(1881,1562,o),
(1811,1562,qs),
(1777,1562,o)
);
}
);
width = 1888;
}
);
note = W;
unicode = 87;
},
{
glyphname = X;
layers = (
{
layerId = m01;
shapes = (
{
closed = 1;
nodes = (
(732,1327,o),
(681,1212,q),
(593,991,l),
(516,1212,ls),
(465,1358,o),
(465,1447,o),
(475,1503,q),
(459,1532,o),
(412,1562,o),
(355,1562,o),
(336,1550,qs),
(285,1521,o),
(285,1457,q),
(185,1562,o),
(8,1562,o),
(8,1520,qs),
(8,1510,o),
(13,1503,q),
(86,1437,o),
(181,1290,o),
(242,1148,qs),
(360,868,l),
(342,837,o),
(300,790,o),
(282,768,o),
(282,748,o),
(324,695,qs),
(344,669,o),
(360,641,q),
(248,375,ls),
(187,230,o),
(88,76,o),
(14,10,q),
(9,-9,l),
(9,-50,o),
(108,-50,qs),
(149,-50,o),
(202,-14,qs),
(221,0,o),
(260,37,o),
(273,51,o),
(277,55,q),
(280,28,ls),
(283,2,o),
(325,-50,o),
(398,-50,o),
(463,-14,o),
(477,10,q),
(469,53,o),
(469,176,o),
(523,311,q),
(593,519,l),
(673,311,ls),
(729,165,o),
(729,60,o),
(719,10,q),
(731,-11,o),
(754,-29,qs),
(766,-38,o),
(804,-50,o),
(850,-50,o),
(869,-38,qs),
(919,-8,o),
(919,55,q),
(944,28,ls),
(969,2,o),
(1054,-50,o),
(1089,-50,qs),
(1188,-50,o),
(1188,-9,qs),
(1188,2,o),
(1182,10,q),
(1163,26,o),
(1130,63,o),
(1104,91,o),
(1072,141,o),
(1054,168,o),
(1017,236,o),
(1002,265,o),
(956,356,o),
(946,375,qs),
(814,648,l),
(830,674,o),
(870,723,o),
(890,748,o),
(890,768,o),
(872,789,o),
(832,833,o),
(814,862,q),
(953,1148,ls),
(1028,1303,o),
(1114,1442,o),
(1183,1503,q),
(1188,1520,l),
(1188,1562,o),
(1090,1562,qs),
(1053,1562,o),
(949,1499,o),
(911,1457,q),
(908,1492,o),
(888,1525,qs),
(866,1562,o),
(816,1562,qs),
(750,1562,o),
(721,1503,q),
(732,1448,o)
);
}
);
width = 1181;
}
);
note = X;
unicode = 88;
},
{
glyphname = Y;
layers = (
{
layerId = m01;
shapes = (
{
closed = 1;
nodes = (
(1135,1561,qs),
(1114,1561,o),
(1088,1548,qs),
(1019,1513,o),
(956,1434,q),
(949,1477,o),
(924,1516,qs),
(912,1535,o),
(865,1561,o),
(799,1561,o),
(727,1523,o),
(705,1497,q),
(733,1441,o),
(733,1292,o),
(638,832,o),
(618,832,qs),
(603,832,o),
(508,1292,o),
(508,1437,o),
(538,1497,q),
(520,1528,o),
(476,1548,qs),
(446,1561,o),
(355,1561,o),
(318,1503,qs),
(298,1472,o),
(298,1434,q),
(171,1561,o),
(96,1561,qs),
(-17,1561,o),
(-17,1519,qs),
(-17,1515,o),
(-14,1506,q),
(93,1420,o),
(192,1272,qs),
(243,1195,o),
(308,1003,o),
(308,835,o),
(278,795,qs),
(266,780,o),
(247,756,o),
(247,748,o),
(248,746,q),
(246,744,l),
(259,731,o),
(319,685,o),
(364,644,o),
(413,580,o),
(440,489,o),
(440,268,o),
(387,95,o),
(317,10,q),
(321,-8,o),
(340,-25,qs),
(351,-36,o),
(401,-50,o),
(464,-50,o),
(494,-37,qs),
(572,-3,o),
(615,68,q),
(699,-50,o),
(884,-50,o),
(914,10,q),
(843,95,o),
(790,268,o),
(790,493,o),
(808,545,qs),
(842,647,o),
(962,723,qs),
(985,739,l),
(983,743,o),
(983,752,q),
(980,752,o),
(953,783,o),
(922,861,o),
(922,1000,o),
(988,1193,o),
(1040,1270,qs),
(1141,1423,o),
(1245,1504,q),
(1246,1519,ls),
(1246,1561,o)
);
}
);
width = 1235;
}
);
note = Y;
unicode = 89;
},
{
glyphname = Z;
layers = (
{
layerId = m01;
shapes = (
{
closed = 1;
nodes = (
(713,326,qs),
(780,326,o),
(852,230,o),
(852,110,o),
(778,31,o),
(639,31,o),
(529,123,o),
(529,208,qs),
(529,345,o),
(598,456,qs),
(628,503,o),
(697,586,o),
(796,670,o),
(796,675,q),
(773,721,o),
(773,756,qs),
(773,852,o),
(853,1086,o),
(910,1183,qs),
(1036,1395,o),
(1125,1462,q),
(1130,1474,o),
(1130,1521,o),
(1086,1562,o),
(1028,1562,o),
(986,1541,qs),
(878,1488,o),
(775,1370,q),
(740,1465,o),
(554,1562,o),
(334,1562,o),
(149,1492,o),
(25,1353,o),
(25,1169,o),
(82,1086,qs),
(106,1052,o),
(154,987,o),
(188,907,o),
(188,843,o),
(182,819,q),
(240,819,o),
(305,922,o),
(305,1029,o),
(292,1059,q),
(317,1058,ls),
(396,1058,o),
(480,1116,o),
(480,1163,o),
(472,1179,q),
(450,1172,o),
(368,1172,o),
(306,1251,o),
(306,1361,o),
(373,1443,o),
(501,1443,o),
(607,1345,o),
(607,1182,o),
(552,1042,o),
(474,948,o),
(397,876,o),
(342,835,o),
(342,828,o),
(367,782,o),
(367,749,qs),
(367,651,o),
(286,406,o),
(228,304,qs),
(101,80,o),
(11,7,q),
(6,-5,o),
(6,-52,o),
(50,-93,o),
(108,-93,o),
(150,-70,qs),
(261,-10,o),
(361,118,q),
(406,14,o),
(590,-93,o),
(702,-93,qs),
(867,-93,o),
(995,4,qs),
(1056,51,o),
(1131,196,o),
(1131,370,o),
(1074,448,qs),
(1050,480,o),
(1002,540,o),
(968,614,o),
(968,675,o),
(974,699,q),
(916,699,o),
(851,596,o),
(851,489,o),
(864,459,q),
(839,460,ls),
(751,460,o),
(656,390,o),
(656,335,o),
(664,319,q),
(692,326,o)
);
}
);
width = 1132;
}
);
note = Z;
unicode = 90;
},
{
glyphname = a;
layers = (
{
layerId = m01;
shapes = (
{
closed = 1;
nodes = (
(866,-33,qs),
(900,-50,o),
(967,-50,o),
(1018,-39,o),
(1032,-32,qs),
(1061,-16,o),
(1070,1,q),
(1020,54,o),
(968,203,o),
(968,401,o),
(991,503,o),
(1025,557,o),
(1059,592,o),
(1082,608,o),
(1082,612,q),
(1017,650,o),
(998,688,qs),
(958,771,o),
(958,876,qs),
(958,1312,o),
(559,1312,qs),
(464,1312,o),
(318,1242,o),
(277,1208,qs),
(184,1133,o),
(184,1011,qs),
(184,984,o),
(212,873,o),
(212,856,qs),
(212,810,o),
(160,758,q),
(172,743,o),
(228,743,o),
(282,771,o),
(316,811,o),
(328,831,qs),
(355,875,o),
(350,880,q),
(403,839,o),
(528,839,o),
(555,903,q),
(502,916,o),
(441,1041,o),
(441,1129,o),
(491,1187,o),
(559,1187,o),
(597,1172,o),
(621,1134,o),
(636,1094,o),
(639,1056,qs),
(644,994,o),
(644,849,o),
(596,774,o),
(516,735,o),
(419,707,o),
(315,673,o),
(270,648,qs),
(167,593,o),
(138,458,qs),
(129,416,o),
(58,335,o),
(58,325,o),
(76,304,qs),
(132,236,o),
(154,117,o),
(208,24,o),
(273,-28,o),
(315,-44,qs),
(383,-70,o),
(507,-70,o),
(585,-53,o),
(623,-34,qs),
(704,6,o),
(732,107,q),
(781,9,o)
);
},
{
closed = 1;
nodes = (
(425,467,o),
(471,526,qs),
(505,570,o),
(619,656,o),
(645,683,q),
(644,683,o),
(644,530,qs),
(644,357,o),
(644,357,q),
(644,214,o),
(623,162,o),
(610,128,o),
(592,112,o),
(580,104,qs),
(560,89,o),
(520,89,qs),
(425,89,o),
(425,314,qs),
(425,336,ls)
);
}
);
width = 1133;
}
);
note = a;
unicode = 97;
},
{
glyphname = ae;
layers = (
{
layerId = m01;
shapes = (
{
closed = 1;
nodes = (
(483,895,o),
(489,907,q),
(431,939,o),
(385,1016,o),
(385,1132,o),
(394,1164,qs),
(402,1189,o),
(427,1222,o),
(478,1246,o),
(573,1246,o),
(596,1212,qs),
(610,1192,o),
(625,1151,o),
(632,1074,o),
(634,1011,o),
(634,859,o),
(562,757,o),
(478,757,qs),
(318,757,o),
(132,624,o),
(108,478,qs),
(102,435,o),
(54,374,qs),
(38,355,o),
(38,345,o),
(102,259,o),
(112,199,qs),
(137,60,o),
(216,-8,qs),
(251,-37,o),
(344,-73,o),
(425,-84,o),
(575,-84,o),
(724,-28,o),
(793,48,q),
(880,-84,o),
(1062,-84,qs),
(1143,-84,o),
(1210,-67,qs),
(1250,-57,o),
(1314,-24,o),
(1375,32,o),
(1416,108,o),
(1441,218,o),
(1441,352,o),
(1477,420,o),
(1533,451,q),
(1523,485,o),
(1456,485,qs),
(1433,485,o),
(1410,476,qs),
(1346,452,o),
(1313,402,q),
(1245,485,o),
(1169,485,qs),
(1145,485,o),
(1098,463,o),
(1092,451,q),
(1196,394,o),
(1196,296,qs),
(1196,251,o),
(1195,235,qs),
(1190,154,o),
(1077,96,o),
(1009,129,qs),
(995,136,o),
(972,173,qs),
(950,211,o),
(950,346,qs),
(950,464,ls),
(950,562,o),
(955,649,q),
(1028,656,o),
(1113,656,qs),
(1489,656,l),
(1441,719,o),
(1441,936,qs),
(1441,1227,o),
(1315,1357,qs),
(1232,1442,o),
(1062,1442,qs),
(894,1442,o),
(795,1325,q),
(700,1442,o),
(539,1442,qs),
(413,1442,o),
(323,1405,qs),
(267,1382,o),
(191,1305,o),
(140,1166,o),
(140,1006,o),
(104,938,o),
(48,907,q),
(58,873,o),
(125,873,qs),
(148,873,o),
(172,882,qs),
(235,906,o),
(268,956,q),
(336,873,o),
(412,873,qs),
(436,873,o)
);
},
{
closed = 1;
nodes = (
(395,487,o),
(453,619,o),
(521,619,qs),
(551,619,o),
(588,587,qs),
(634,546,o),
(634,417,qs),
(634,357,ls),
(634,336,o),
(632,271,o),
(629,237,o),
(623,187,o),
(613,162,o),
(600,128,o),
(582,112,o),
(550,89,o),
(510,89,qs),
(395,89,o),
(395,318,qs),
(395,336,ls)
);
},
{
closed = 1;
nodes = (
(1186,831,q),
(1148,813,o),
(990,813,o),
(944,823,q),
(950,872,o),
(950,1060,o),
(955,1121,qs),
(959,1170,o),
(988,1211,qs),
(1013,1246,o),
(1078,1246,qs),
(1196,1246,o),
(1196,962,qs),
(1196,936,ls),
(1196,861,o)
);
}
);
width = 1568;
}
);
note = ae;
unicode = 230;
},
{
glyphname = b;
layers = (
{
layerId = m01;
shapes = (
{
closed = 1;
nodes = (
(112,1672,qs),
(56,1655,o),
(56,1619,q),
(124,1532,o),
(177,1329,o),
(177,1143,qs),
(177,889,ls),
(177,749,o),
(138,687,qs),
(121,661,o),
(88,630,o),
(65,616,o),
(65,608,o),
(76,601,qs),
(171,540,o),
(177,360,q),
(176,224,o),
(123,73,o),
(56,8,q),
(59,-12,o),
(88,-36,qs),
(105,-51,o),
(161,-51,qs),
(276,-51,o),
(373,69,q),
(474,-70,o),
(803,-70,o),
(920,38,qs),
(975,90,o),
(1043,249,o),
(1043,445,o),
(1064,505,qs),
(1072,530,o),
(1098,572,o),
(1116,589,o),
(1141,609,o),
(1143,611,q),
(1143,615,o),
(1132,623,qs),
(1043,691,o),
(1043,889,qs),
(1043,1090,o),
(872,1311,o),
(615,1311,o),
(485,1205,q),
(505,1443,o),
(597,1619,q),
(593,1634,ls),
(589,1648,o),
(536,1678,o),
(436,1678,o),
(388,1642,qs),
(371,1628,o),
(338,1591,o),
(329,1577,o),
(326,1573,q),
(259,1678,o),
(161,1678,qs),
(133,1678,o)
);
},
{
closed = 1;
nodes = (
(512,530,qs),
(525,557,o),
(549,591,o),
(567,608,o),
(567,617,o),
(540,642,o),
(508,682,o),
(481,801,o),
(481,889,qs),
(481,1129,o),
(740,1129,o),
(740,889,qs),
(740,747,o),
(709,686,qs),
(696,661,o),
(671,631,o),
(653,616,o),
(654,609,o),
(681,586,o),
(701,556,o),
(726,503,o),
(740,412,o),
(740,292,o),
(738,240,qs),
(736,209,o),
(729,178,o),
(717,137,o),
(698,117,o),
(671,96,o),
(593,81,o),
(541,101,qs),
(527,107,o),
(504,139,qs),
(482,169,o),
(482,290,qs),
(482,356,ls),
(482,466,o)
);
}
);
width = 1182;
}
);
note = b;
unicode = 98;
},
{
glyphname = c;
layers = (
{
layerId = m01;
shapes = (
{
closed = 1;
nodes = (
(918,818,o),
(946,956,o),
(946,1074,o),
(867,1201,o),
(806,1237,qs),
(682,1311,o),
(562,1311,qs),
(372,1311,o),
(144,1081,o),
(139,875,qs),
(139,744,o),
(104,686,qs),
(90,661,o),
(60,632,o),
(40,618,o),
(40,613,qs),
(40,611,ls),
(40,606,o),
(56,592,o),
(80,563,o),
(127,482,o),
(143,351,qs),
(197,-70,o),
(595,-70,qs),
(751,-70,o),
(848,33,qs),
(961,153,o),
(961,396,qs),
(961,415,o),
(910,437,o),
(845,437,o),
(802,417,o),
(802,399,qs),
(802,254,o),
(760,182,qs),
(719,112,o),
(624,112,qs),
(537,112,o),
(442,239,o),
(442,491,o),
(477,545,qs),
(492,568,o),
(521,594,o),
(541,607,o),
(541,617,o),
(521,631,o),
(492,659,o),
(462,707,o),
(442,808,o),
(442,968,o),
(446,1014,qs),
(450,1049,o),
(465,1082,o),
(502,1131,o),
(564,1131,qs),
(680,1131,o),
(680,1012,qs),
(680,953,o),
(593,826,o),
(540,826,q),
(539,821,l),
(539,810,o),
(550,796,qs),
(557,786,o),
(579,770,o),
(621,759,o),
(703,759,o),
(742,784,q),
(762,758,ls),
(782,732,o),
(862,679,o),
(940,679,o),
(949,703,q),
(918,751,o)
);
}
);
width = 1008;
}
);
note = c;
unicode = 99;
},
{
glyphname = d;
layers = (
{
layerId = m01;
shapes = (
{
closed = 1;
nodes = (
(696,203,qs),
(694,190,o),
(688,147,o),
(678,128,o),
(664,99,o),
(646,87,o),
(621,74,o),
(590,69,o),
(524,69,o),
(489,92,qs),
(475,102,o),
(456,146,o),
(447,181,o),
(442,254,o),
(441,304,o),
(441,473,o),
(468,530,qs),
(480,556,o),
(500,586,o),
(527,609,o),
(528,616,o),
(519,624,qs),
(441,688,o),
(441,889,qs),
(441,1149,o),
(700,1149,o),
(700,889,qs),
(700,801,o),
(673,682,o),
(641,642,o),
(614,617,o),
(614,608,o),
(632,591,o),
(656,557,o),
(699,466,o),
(699,356,qs),
(699,291,ls),
(699,233,o)
);
},
{
closed = 1;
nodes = (
(1020,-51,qs),
(1048,-51,o),
(1069,-44,qs),
(1125,-27,o),
(1125,9,q),
(1058,73,o),
(1005,225,o),
(1004,360,qs),
(1008,481,o),
(1046,540,qs),
(1062,564,o),
(1094,594,o),
(1116,608,o),
(1116,616,o),
(1104,623,qs),
(1004,684,o),
(1004,889,qs),
(1004,1143,ls),
(1004,1329,o),
(1057,1532,o),
(1125,1619,q),
(1121,1634,ls),
(1117,1648,o),
(1065,1678,o),
(966,1678,o),
(917,1642,qs),
(899,1628,o),
(860,1583,o),
(855,1573,q),
(788,1678,o),
(690,1678,qs),
(661,1678,o),
(640,1672,qs),
(584,1654,o),
(584,1619,q),
(676,1443,o),
(696,1205,q),
(617,1311,o),
(325,1311,o),
(138,1090,o),
(138,889,qs),
(138,753,o),
(102,689,qs),
(88,663,o),
(59,631,o),
(38,615,o),
(38,611,q),
(40,609,o),
(65,589,o),
(83,572,o),
(109,530,o),
(126,480,o),
(138,395,o),
(138,249,o),
(206,90,o),
(262,38,qs),
(378,-70,o),
(528,-70,qs),
(707,-70,o),
(808,69,q),
(905,-51,o)
);
}
);
width = 1188;
}
);
note = d;
unicode = 100;
},
{
glyphname = dcroat;
layers = (
{
layerId = m01;
shapes = (
{
closed = 1;
nodes = (
(506,679,o),
(506,699,o),
(484,735,o),
(459,791,o),
(437,978,o),
(437,1171,o),
(447,1198,qs),
(471,1262,o),
(584,1262,qs),
(675,1262,o),
(675,1122,qs),
(675,838,o),
(640,762,qs),
(628,735,o),
(606,699,o),
(606,679,o),
(628,645,o),
(653,591,o),
(675,434,o),
(675,243,o),
(671,204,qs),
(668,174,o),
(655,146,o),
(625,106,o),
(573,106,qs),
(501,106,o),
(466,142,qs),
(453,156,o),
(439,220,o),
(437,264,o),
(437,430,o),
(459,590,o),
(484,644,o)
);
},
{
closed = 1;
nodes = (
(615,-67,qs),
(778,-67,o),
(975,107,o),
(975,257,qs),
(975,351,ls),
(975,457,o),
(1000,601,o),
(1029,649,o),
(1054,680,o),
(1054,697,o),
(1029,726,o),
(1000,769,o),
(975,913,o),
(975,1024,qs),
(975,1118,ls),
(975,1290,o),
(864,1369,qs),
(761,1442,o),
(608,1442,qs),
(396,1442,o),
(321,1365,q),
(302,1378,ls),
(283,1392,o),
(198,1420,o),
(125,1420,o),
(106,1414,qs),
(55,1400,o),
(55,1367,q),
(117,1309,o),
(165,1177,o),
(165,861,o),
(130,785,qs),
(116,753,o),
(86,716,o),
(66,697,o),
(66,680,o),
(86,662,o),
(116,626,o),
(145,565,o),
(165,438,o),
(165,218,o),
(115,45,o),
(55,-13,q),
(58,-32,o),
(84,-54,qs),
(100,-67,o),
(151,-67,qs),
(244,-67,o),
(321,10,q),
(403,-67,o)
);
},
{
closed = 1;
nodes = (
(70,733,o),
(10,746,q),
(-15,741,o),
(-15,700,qs),
(-15,664,ls),
(-15,621,o),
(10,618,q),
(65,631,o),
(418,631,o),
(520,618,q),
(525,619,o),
(545,633,o),
(545,664,qs),
(545,700,ls),
(545,743,o),
(520,746,q),
(423,733,o)
);
}
);
width = 1095;
}
);
note = dcroat;
unicode = 273;
},
{
glyphname = eth;
layers = (
{
layerId = m01;
shapes = (
{
closed = 1;
nodes = (
(690,413,o),
(715,375,o),
(733,295,o),
(733,169,o),
(718,132,qs),
(709,107,o),
(674,80,o),
(613,62,o),
(485,62,o),
(455,82,qs),
(437,94,o),
(407,129,o),
(407,240,qs),
(407,349,o),
(438,394,qs),
(451,413,o),
(477,435,o),
(495,445,o),
(495,453,o),
(475,464,o),
(446,487,o),
(417,526,o),
(397,604,o),
(397,689,o),
(398,704,qs),
(400,767,o),
(429,799,qs),
(458,830,o),
(568,830,qs),
(672,830,o),
(700,782,qs),
(714,756,o),
(723,702,o),
(723,553,o),
(696,506,qs),
(684,487,o),
(662,464,o),
(646,453,o),
(646,445,o),
(664,435,o)
);
},
{
closed = 1;
nodes = (
(229,1562,q),
(198,1537,o),
(198,1488,qs),
(198,1461,o),
(244,1393,o),
(270,1377,q),
(252,1364,ls),
(198,1325,o),
(198,1250,qs),
(198,1204,o),
(228,1195,q),
(305,1274,o),
(439,1274,qs),
(533,1274,o),
(591,1257,qs),
(683,1230,o),
(708,1150,qs),
(722,1103,o),
(722,974,q),
(617,1010,o),
(555,1010,qs),
(375,1010,o),
(252,938,qs),
(188,901,o),
(116,769,o),
(116,539,o),
(78,492,qs),
(63,475,o),
(39,453,o),
(39,445,o),
(48,439,qs),
(126,387,o),
(126,225,qs),
(126,73,o),
(215,-14,qs),
(256,-55,o),
(370,-109,o),
(495,-132,o),
(635,-132,o),
(764,-109,o),
(884,-54,o),
(972,26,o),
(1024,149,o),
(1024,340,o),
(1055,388,qs),
(1068,409,o),
(1093,433,o),
(1111,445,o),
(1111,453,o),
(1100,462,qs),
(1002,542,o),
(1002,748,qs),
(1002,1140,ls),
(1002,1224,o),
(935,1356,o),
(836,1431,o),
(666,1497,o),
(560,1497,qs),
(429,1493,ls),
(332,1493,o)
);
}
);
width = 1146;
}
);
note = eth;
unicode = 240;
},
{
glyphname = e;
layers = (
{
layerId = m01;
shapes = (
{
closed = 1;
nodes = (
(753,111,o),
(561,111,o),
(460,264,o),
(460,542,o),
(501,595,q),
(552,614,o),
(822,614,o),
(902,572,q),
(916,566,o),
(932,566,qs),
(978,566,o),
(1017,611,q),
(1013,619,o),
(984,667,o),
(967,735,o),
(967,865,qs),
(967,1074,o),
(879,1184,qs),
(777,1312,o),
(579,1312,qs),
(162,1312,o),
(162,836,qs),
(162,731,o),
(118,677,qs),
(100,655,o),
(64,628,o),
(38,615,o),
(38,612,q),
(40,610,o),
(58,599,qs),
(150,541,o),
(162,395,qs),
(183,161,o),
(411,-70,o),
(599,-70,qs),
(629,-70,o),
(734,-62,o),
(796,-28,qs),
(985,75,o),
(985,398,qs),
(985,417,o),
(934,439,o),
(873,439,o),
(836,419,o),
(836,401,qs),
(836,255,o)
);
},
{
closed = 1;
nodes = (
(567,719,o),
(488,716,q),
(467,768,o),
(467,959,o),
(471,1066,o),
(495,1094,qs),
(527,1131,o),
(595,1131,qs),
(694,1131,o),
(694,909,qs),
(692,781,ls),
(692,756,o)
);
}
);
width = 1053;
}
);
note = e;
unicode = 101;
},
{
glyphname = f;
layers = (
{
layerId = m01;
shapes = (
{
closed = 1;
nodes = (
(409,1490,qs),
(373,1436,o),
(450,1400,qs),
(495,1379,o),
(539,1379,o),
(542,1379,q),
(505,1357,o),
(505,1308,qs),
(505,1298,o),
(508,1288,qs),
(521,1230,o),
(581,1223,q),
(594,1282,o),
(664,1335,qs),
(704,1365,o),
(733,1390,qs),
(777,1429,o),
(777,1490,qs),
(777,1600,o),
(686,1667,qs),
(596,1732,o),
(454,1732,qs),
(295,1732,o),
(216,1637,qs),
(142,1548,o),
(142,1416,qs),
(142,1296,o),
(199,1182,q),
(133,1184,o),
(53,1184,o),
(29,1150,qs),
(17,1132,o),
(17,1064,o),
(68,1019,o),
(147,1019,o),
(223,1025,q),
(227,953,l),
(227,808,o),
(199,735,qs),
(187,704,o),
(158,658,o),
(134,638,o),
(118,620,o),
(118,602,o),
(135,591,qs),
(142,587,o),
(161,568,o),
(182,545,o),
(201,503,o),
(216,449,o),
(225,366,o),
(225,201,o),
(172,61,o),
(104,8,q),
(106,-2,o),
(114,-15,qs),
(118,-22,o),
(134,-34,o),
(155,-44,o),
(189,-51,o),
(232,-51,o),
(253,-46,qs),
(334,-28,o),
(377,34,q),
(444,-51,o),
(540,-51,qs),
(568,-51,o),
(589,-45,qs),
(641,-29,o),
(645,8,q),
(578,61,o),
(524,202,o),
(524,469,o),
(562,531,qs),
(578,556,o),
(610,586,o),
(632,602,o),
(632,617,o),
(611,635,qs),
(601,643,o),
(578,668,o),
(555,716,o),
(524,824,o),
(524,958,qs),
(524,1027,l),
(563,1016,o),
(682,1016,qs),
(720,1016,o),
(771,1061,o),
(771,1141,o),
(721,1181,o),
(682,1181,q),
(493,1170,l),
(447,1170,o),
(360,1259,o),
(309,1389,o),
(309,1450,qs),
(309,1539,o),
(374,1577,qs),
(410,1597,o),
(514,1597,o),
(577,1560,o),
(577,1517,o),
(546,1490,o),
(510,1481,o),
(465,1481,o),
(417,1499,q),
(413,1496,o)
);
}
);
width = 758;
}
);
note = f;
unicode = 102;
},
{
glyphname = g;
layers = (
{
layerId = m01;
shapes = (
{
closed = 1;
nodes = (
(756,-72,o),
(756,-114,qs),
(756,-202,o),
(716,-244,qs),
(697,-263,o),
(653,-281,o),
(601,-281,o),
(575,-270,qs),
(518,-244,o),
(518,-192,qs),
(518,-143,o),
(550,-118,qs),
(568,-105,o),
(595,-103,o),
(595,-101,qs),
(595,-87,o),
(546,-69,qs),
(522,-60,o),
(466,-60,o),
(426,-78,qs),
(399,-89,o),
(399,-96,qs),
(399,-84,o),
(374,-53,qs),
(361,-36,o),
(324,-4,o),
(262,18,o),
(197,18,o),
(181,6,q),
(216,-27,o),
(256,-111,o),
(274,-189,q),
(306,-298,o),
(497,-412,o),
(734,-412,o),
(820,-358,qs),
(858,-334,o),
(917,-254,o),
(957,-173,o),
(986,-58,o),
(1002,41,o),
(1011,177,o),
(1013,281,o),
(1013,432,o),
(1062,516,qs),
(1081,548,o),
(1112,603,o),
(1112,616,o),
(1092,631,o),
(1062,662,o),
(1033,713,o),
(1013,814,o),
(1013,1020,o),
(1072,1169,o),
(1150,1237,q),
(1145,1262,o),
(1099,1278,qs),
(1067,1289,o),
(990,1289,o),
(964,1277,qs),
(899,1248,o),
(856,1176,q),
(796,1235,o),
(625,1311,o),
(546,1311,qs),
(373,1311,o),
(256,1220,qs),
(196,1174,o),
(127,1013,o),
(127,813,o),
(100,688,o),
(67,645,o),
(40,618,o),
(40,608,o),
(67,586,o),
(100,552,o),
(127,457,o),
(127,389,qs),
(127,276,o),
(246,104,o),
(429,20,o),
(658,20,o),
(753,125,q),
(753,88,o)
);
},
{
closed = 1;
nodes = (
(734,413,qs),
(734,321,o),
(638,219,o),
(505,219,o),
(408,322,o),
(408,504,o),
(439,550,qs),
(452,570,o),
(478,597,o),
(496,610,o),
(496,618,o),
(468,642,o),
(436,680,o),
(408,795,o),
(408,881,qs),
(408,1130,o),
(568,1130,qs),
(734,1130,o),
(734,881,qs),
(734,743,o),
(703,684,qs),
(690,660,o),
(665,631,o),
(647,618,o),
(647,610,o),
(656,604,qs),
(734,547,o)
);
}
);
width = 1161;
}
);
note = g;
unicode = 103;
},
{
glyphname = h;
layers = (
{
layerId = m01;
shapes = (
{
closed = 1;
nodes = (
(566,1619,q),
(562,1634,ls),
(558,1648,o),
(510,1678,o),
(446,1678,o),
(423,1666,qs),
(368,1639,o),
(335,1573,q),
(263,1678,o),
(160,1678,qs),
(132,1678,o),
(110,1672,qs),
(55,1655,o),
(55,1619,q),
(123,1531,o),
(176,1323,o),
(176,1133,qs),
(176,879,ls),
(176,745,o),
(140,682,qs),
(126,657,o),
(97,626,o),
(76,613,o),
(76,609,o),
(97,589,o),
(126,551,o),
(155,495,o),
(176,400,o),
(176,214,o),
(120,68,o),
(50,3,q),
(64,-51,o),
(242,-51,o),
(322,56,q),
(410,-51,o),
(510,-51,qs),
(544,-51,o),
(599,-17,o),
(606,3,q),
(535,68,o),
(481,213,o),
(481,466,o),
(512,530,qs),
(524,557,o),
(548,592,o),
(566,608,o),
(566,616,o),
(539,639,o),
(507,675,o),
(480,779,o),
(480,939,o),
(493,993,qs),
(530,1147,o),
(645,1147,qs),
(707,1147,o),
(759,1020,o),
(759,743,o),
(728,684,qs),
(716,659,o),
(690,630,o),
(672,616,o),
(672,609,o),
(692,594,o),
(721,562,o),
(750,511,o),
(770,415,o),
(770,223,o),
(714,69,o),
(645,3,q),
(658,-51,o),
(824,-51,o),
(904,56,q),
(987,-51,o),
(1169,-51,o),
(1196,3,q),
(1125,68,o),
(1071,212,o),
(1071,467,o),
(1103,532,qs),
(1116,559,o),
(1143,593,o),
(1162,608,o),
(1162,615,o),
(1152,626,qs),
(1062,720,o),
(1062,919,qs),
(1062,1111,o),
(891,1310,o),
(764,1310,qs),
(603,1310,o),
(484,1195,q),
(500,1440,o)
);
}
);
width = 1249;
}
);
note = h;
unicode = 104;
},
{
glyphname = hbar;
layers = (
{
layerId = m01;
shapes = (
{
closed = 1;
nodes = (
(566,1559,q),
(562,1574,ls),
(558,1588,o),
(510,1618,o),
(446,1618,o),
(423,1606,qs),
(368,1579,o),
(335,1513,q),
(263,1618,o),
(160,1618,qs),
(132,1618,o),
(110,1612,qs),
(55,1595,o),
(55,1559,q),
(123,1482,o),
(176,1300,o),
(176,1133,qs),
(176,879,ls),
(176,745,o),
(140,682,qs),
(126,657,o),
(97,626,o),
(76,613,o),
(76,609,o),
(97,589,o),
(126,551,o),
(155,495,o),
(176,400,o),
(176,209,o),
(120,56,o),
(50,-12,q),
(64,-66,o),
(242,-66,o),
(322,41,q),
(410,-66,o),
(510,-66,qs),
(544,-66,o),
(599,-32,o),
(606,-12,q),
(535,56,o),
(481,207,o),
(481,466,o),
(512,530,qs),
(524,557,o),
(548,592,o),
(566,608,o),
(566,616,o),
(539,639,o),
(507,675,o),
(480,779,o),
(480,939,o),
(493,993,qs),
(530,1147,o),
(645,1147,qs),
(707,1147,o),
(759,1020,o),
(759,743,o),
(728,684,qs),
(716,659,o),
(690,630,o),
(672,616,o),
(672,609,o),
(692,594,o),
(721,562,o),
(750,511,o),
(770,415,o),
(770,217,o),
(714,57,o),
(645,-12,q),
(658,-66,o),
(824,-66,o),
(904,41,q),
(987,-66,o),
(1169,-66,o),
(1196,-12,q),
(1125,55,o),
(1071,207,o),
(1071,467,o),
(1103,532,qs),
(1116,559,o),
(1143,593,o),
(1162,608,o),
(1162,615,o),
(1152,626,qs),
(1062,720,o),
(1062,919,qs),
(1062,1111,o),
(891,1310,o),
(764,1310,qs),
(603,1310,o),
(484,1195,q),
(500,1405,o)
);
},
{
closed = 1;
nodes = (
(26,1446,l),
(26,1376,l),
(658,1376,l),
(658,1446,l)
);
}
);
width = 1249;
}
);
note = hbar;
unicode = 295;
},
{
glyphname = i;
layers = (
{
layerId = m01;
shapes = (
{
closed = 1;
nodes = (
(110,1304,qs),
(59,1288,o),
(59,1256,q),
(122,1194,o),
(169,1060,o),
(169,756,o),
(134,690,qs),
(120,663,o),
(90,635,o),
(70,620,o),
(70,605,o),
(90,590,o),
(120,558,o),
(149,504,o),
(169,392,o),
(169,196,o),
(121,59,o),
(59,3,q),
(63,-10,ls),
(67,-24,o),
(115,-51,o),
(181,-51,o),
(206,-42,qs),
(274,-20,o),
(305,26,q),
(322,7,ls),
(338,-12,o),
(413,-51,o),
(481,-51,o),
(500,-45,qs),
(551,-29,o),
(551,3,q),
(489,59,o),
(441,196,o),
(441,468,o),
(476,531,qs),
(491,558,o),
(520,590,o),
(540,605,o),
(540,620,o),
(520,635,o),
(491,663,o),
(461,718,o),
(441,843,o),
(441,1061,o),
(488,1195,o),
(551,1256,q),
(548,1275,o),
(528,1291,qs),
(519,1299,o),
(481,1310,o),
(429,1310,o),
(404,1302,qs),
(336,1279,o),
(305,1233,q),
(242,1310,o),
(155,1310,qs),
(129,1310,o)
);
},
{
closed = 1;
nodes = (
(91,1569,o),
(91,1563,q),
(144,1517,ls),
(196,1471,o),
(249,1426,qs),
(302,1380,l),
(513,1570,l),
(303,1754,l),
(294,1754,o)
);
}
);
width = 615;
}
);
note = i;
unicode = 105;
},
{
glyphname = dotlessi;
layers = (
{
layerId = m01;
shapes = (
{
closed = 1;
nodes = (
(106,1414,qs),
(55,1398,o),
(55,1366,q),
(118,1305,o),
(165,1171,o),
(165,855,o),
(130,781,qs),
(116,750,o),
(86,715,o),
(66,697,o),
(66,680,o),
(97,648,o),
(134,598,o),
(165,450,o),
(165,203,o),
(117,52,o),
(55,-13,q),
(59,-26,ls),
(63,-40,o),
(111,-67,o),
(177,-67,o),
(202,-58,qs),
(270,-36,o),
(301,10,q),
(318,-9,ls),
(334,-28,o),
(409,-67,o),
(477,-67,o),
(496,-61,qs),
(547,-45,o),
(547,-13,q),
(485,52,o),
(437,203,o),
(437,450,o),
(468,598,o),
(505,648,o),
(536,680,o),
(536,698,o),
(516,716,qs),
(508,724,o),
(486,748,o),
(465,796,o),
(448,863,o),
(437,974,o),
(437,1171,o),
(484,1305,o),
(547,1366,q),
(544,1385,o),
(524,1401,qs),
(515,1409,o),
(477,1420,o),
(425,1420,o),
(400,1412,qs),
(332,1389,o),
(301,1343,q),
(238,1420,o),
(151,1420,qs),
(125,1420,o)
);
}
);
width = 606;
}
);
note = dotlessi;
unicode = 305;
},
{
glyphname = ij;
layers = (
{
layerId = m01;
shapes = (
{
closed = 1;
nodes = (
(108,1304,qs),
(58,1288,o),
(58,1256,q),
(121,1194,o),
(168,1060,o),
(168,755,o),
(133,690,qs),
(118,663,o),
(89,635,o),
(69,620,o),
(69,605,o),
(89,590,o),
(118,558,o),
(148,504,o),
(168,392,o),
(168,190,o),
(120,46,o),
(58,-13,q),
(62,-26,ls),
(66,-40,o),
(114,-67,o),
(180,-67,o),
(206,-58,qs),
(273,-36,o),
(304,10,q),
(320,-9,ls),
(337,-28,o),
(412,-67,o),
(480,-67,o),
(500,-61,qs),
(550,-45,o),
(550,-13,q),
(488,46,o),
(440,190,o),
(440,468,o),
(475,531,qs),
(490,558,o),
(519,590,o),
(539,605,o),
(539,620,o),
(519,635,o),
(490,663,o),
(460,718,o),
(440,843,o),
(440,1061,o),
(487,1195,o),
(550,1256,q),
(547,1275,o),
(528,1291,qs),
(518,1299,o),
(480,1310,o),
(428,1310,o),
(402,1302,qs),
(335,1279,o),
(304,1233,q),
(241,1310,o),
(154,1310,qs),
(128,1310,o)
);
},
{
closed = 1;
nodes = (
(89,1588,o),
(89,1561,qs),
(89,1547,o),
(135,1522,qs),
(152,1512,o),
(198,1491,o),
(216,1484,o),
(221,1482,q),
(235,1456,ls),
(249,1431,o),
(289,1380,o),
(309,1380,o),
(351,1421,o),
(386,1490,q),
(418,1504,ls),
(449,1518,o),
(512,1558,o),
(512,1578,o),
(462,1619,o),
(378,1653,q),
(364,1678,ls),
(325,1754,o),
(299,1754,qs),
(285,1754,o),
(229,1688,o),
(203,1644,q),
(174,1630,ls)
);
},
{
closed = 1;
nodes = (
(1317,-40,o),
(1317,244,qs),
(1317,430,o),
(1354,512,qs),
(1370,545,o),
(1402,583,o),
(1424,602,o),
(1424,619,o),
(1402,637,o),
(1370,669,o),
(1339,724,o),
(1317,844,o),
(1317,1048,o),
(1370,1196,o),
(1438,1252,q),
(1435,1272,o),
(1413,1290,qs),
(1403,1299,o),
(1360,1311,o),
(1302,1311,o),
(1274,1302,qs),
(1200,1279,o),
(1165,1226,q),
(1147,1247,ls),
(1129,1268,o),
(1047,1311,o),
(974,1311,o),
(953,1304,qs),
(897,1287,o),
(897,1252,q),
(964,1196,o),
(1018,1047,o),
(1018,763,o),
(980,698,qs),
(964,670,o),
(932,639,o),
(910,622,o),
(910,602,o),
(938,581,qs),
(950,572,o),
(978,523,o),
(1002,454,o),
(1018,327,o),
(1018,192,o),
(1075,114,qs),
(1096,86,o),
(1132,-7,o),
(1132,-129,o),
(1040,-201,o),
(948,-201,o),
(890,-155,o),
(890,-78,o),
(951,-42,o),
(1017,-42,o),
(1061,-56,q),
(1068,-47,o),
(1068,-29,qs),
(1068,27,o),
(1000,54,qs),
(957,72,o),
(885,72,o),
(877,71,q),
(877,99,o),
(887,136,q),
(887,181,o),
(832,288,o),
(782,288,qs),
(774,288,l),
(778,268,o),
(778,248,qs),
(778,178,o),
(664,51,o),
(664,-26,qs),
(664,-165,o),
(764,-230,qs),
(852,-289,o),
(958,-289,qs),
(1150,-289,o)
);
},
{
closed = 1;
nodes = (
(951,1588,o),
(951,1561,qs),
(951,1547,o),
(997,1522,qs),
(1014,1512,o),
(1060,1491,o),
(1078,1484,o),
(1083,1482,q),
(1097,1456,ls),
(1111,1431,o),
(1151,1380,o),
(1171,1380,o),
(1213,1421,o),
(1248,1490,q),
(1280,1504,ls),
(1311,1518,o),
(1374,1558,o),
(1374,1578,o),
(1324,1619,o),
(1240,1653,q),
(1226,1678,ls),
(1187,1754,o),
(1161,1754,qs),
(1147,1754,o),
(1091,1688,o),
(1065,1644,q),
(1036,1630,ls)
);
}
);
width = 1481;
}
);
note = ij;
unicode = 307;
},
{
glyphname = j;
layers = (
{
layerId = m01;
shapes = (
{
closed = 1;
nodes = (
(650,-40,o),
(650,244,qs),
(650,432,o),
(688,512,qs),
(704,545,o),
(735,583,o),
(757,602,o),
(757,619,o),
(735,637,o),
(704,669,o),
(672,724,o),
(650,844,o),
(650,1048,o),
(703,1196,o),
(771,1252,q),
(768,1272,o),
(746,1290,qs),
(736,1299,o),
(693,1311,o),
(635,1311,o),
(606,1302,qs),
(533,1279,o),
(498,1226,q),
(480,1247,ls),
(462,1268,o),
(380,1311,o),
(307,1311,o),
(286,1304,qs),
(230,1287,o),
(230,1252,q),
(297,1196,o),
(351,1047,o),
(351,763,o),
(313,698,qs),
(297,670,o),
(265,639,o),
(243,622,o),
(243,602,o),
(271,581,qs),
(283,572,o),
(311,523,o),
(335,454,o),
(351,327,o),
(351,192,o),
(408,114,qs),
(429,86,o),
(465,-7,o),
(465,-129,o),
(373,-201,o),
(281,-201,o),
(223,-155,o),
(223,-78,o),
(284,-42,o),
(350,-42,o),
(394,-56,q),
(401,-49,o),
(401,-29,qs),
(401,27,o),
(333,54,qs),
(290,72,o),
(218,72,o),
(210,71,q),
(210,99,o),
(220,136,q),
(220,181,o),
(165,288,o),
(115,288,qs),
(107,288,l),
(111,268,o),
(111,248,qs),
(111,178,o),
(-3,51,o),
(-3,-26,qs),
(-3,-165,o),
(96,-230,qs),
(185,-289,o),
(291,-289,qs),
(483,-289,o)
);
},
{
closed = 1;
nodes = (
(284,1569,o),
(284,1563,q),
(337,1517,ls),
(390,1471,o),
(443,1426,qs),
(496,1380,l),
(707,1570,l),
(496,1754,l),
(487,1754,o)
);
}
);
width = 830;
}
);
note = j;
unicode = 106;
},
{
glyphname = uni0237;
layers = (
{
layerId = m01;
shapes = (
{
closed = 1;
nodes = (
(292,1414,qs),
(236,1396,o),
(236,1361,q),
(303,1300,o),
(357,1138,o),
(357,797,o),
(319,718,qs),
(303,684,o),
(271,647,o),
(249,628,o),
(249,610,o),
(260,600,qs),
(357,517,o),
(357,245,qs),
(357,191,ls),
(357,172,o),
(355,114,o),
(352,83,o),
(347,39,o),
(339,16,o),
(327,-14,o),
(287,-49,o),
(246,-49,qs),
(147,-49,o),
(91,20,q),
(76,16,o),
(65,3,qs),
(59,-4,o),
(51,-33,o),
(51,-84,o),
(86,-151,o),
(108,-169,q),
(51,-218,o),
(51,-339,o),
(91,-349,q),
(189,-289,o),
(277,-289,qs),
(479,-289,o),
(656,-40,o),
(656,244,qs),
(656,432,o),
(694,513,qs),
(710,547,o),
(741,587,o),
(763,606,o),
(763,625,o),
(741,645,o),
(710,683,o),
(678,751,o),
(656,900,o),
(656,1139,o),
(709,1301,o),
(777,1361,q),
(774,1379,o),
(752,1399,qs),
(742,1408,o),
(699,1420,o),
(641,1420,o),
(612,1411,qs),
(539,1388,o),
(504,1335,q),
(438,1420,o),
(341,1420,qs),
(313,1420,o)
);
}
);
width = 816;
}
);
note = uni0237;
unicode = 567;
},
{
glyphname = k;
layers = (
{
layerId = m01;
shapes = (
{
closed = 1;
nodes = (
(248,1651,qs),
(216,1678,o),
(161,1678,qs),
(81,1678,o),
(53,1622,q),
(125,1526,o),
(179,1295,o),
(179,845,o),
(140,746,qs),
(123,704,o),
(90,655,o),
(67,627,o),
(67,607,o),
(90,590,o),
(123,556,o),
(156,502,o),
(179,397,o),
(179,203,o),
(125,66,o),
(54,3,q),
(58,-11,o),
(82,-34,qs),
(100,-51,o),
(161,-51,qs),
(246,-51,o),
(326,56,q),
(399,-51,o),
(571,-51,o),
(598,3,q),
(520,65,o),
(461,203,o),
(461,329,q),
(471,545,l),
(495,541,o),
(648,541,o),
(682,527,q),
(686,435,o),
(780,47,o),
(802,9,q),
(811,-21,o),
(847,-51,o),
(893,-51,o),
(910,-40,qs),
(962,-9,o),
(976,45,q),
(998,21,ls),
(1019,-3,o),
(1094,-51,o),
(1126,-51,qs),
(1239,-51,o),
(1246,1,q),
(1180,29,o),
(1130,90,qs),
(1046,190,o),
(1030,291,qs),
(1008,448,o),
(956,514,qs),
(934,543,o),
(887,582,o),
(850,595,o),
(826,610,o),
(826,629,o),
(861,642,o),
(914,668,o),
(970,719,o),
(1020,843,o),
(1034,969,o),
(1049,1012,qs),
(1112,1194,o),
(1256,1259,q),
(1255,1270,o),
(1242,1290,o),
(1184,1311,o),
(1104,1311,o),
(1017,1252,o),
(986,1215,q),
(976,1239,ls),
(965,1263,o),
(914,1311,o),
(869,1311,o),
(856,1304,qs),
(823,1286,o),
(810,1246,q),
(743,1128,o),
(720,986,qs),
(712,932,o),
(689,760,o),
(681,718,q),
(658,715,ls),
(589,706,o),
(526,706,qs),
(493,706,o),
(469,712,q),
(461,882,o),
(461,1295,o),
(520,1515,o),
(598,1623,q),
(584,1678,o),
(407,1678,o),
(326,1570,q),
(302,1606,o)
);
}
);
width = 1241;
}
);
note = k;
unicode = 107;
},
{
glyphname = kgreenlandic;
layers = (
{
layerId = m01;
shapes = (
{
closed = 1;
nodes = (
(248,1591,qs),
(216,1618,o),
(161,1618,qs),
(81,1618,o),
(53,1562,q),
(125,1477,o),
(179,1271,o),
(179,845,o),
(140,746,qs),
(123,704,o),
(90,655,o),
(67,627,o),
(67,607,o),
(90,590,o),
(123,556,o),
(156,502,o),
(179,397,o),
(179,190,o),
(125,39,o),
(54,-30,q),
(58,-44,o),
(82,-68,qs),
(100,-84,o),
(161,-84,qs),
(246,-84,o),
(326,23,q),
(399,-84,o),
(571,-84,o),
(598,-30,q),
(520,39,o),
(461,190,o),
(461,329,q),
(471,545,l),
(495,541,o),
(648,541,o),
(682,527,q),
(686,429,o),
(789,17,o),
(812,-24,q),
(821,-54,o),
(857,-84,o),
(903,-84,o),
(920,-74,qs),
(972,-42,o),
(986,12,q),
(1008,-12,ls),
(1029,-36,o),
(1104,-84,o),
(1136,-84,qs),
(1249,-84,o),
(1256,-32,q),
(1151,15,o),
(1077,153,qs),
(1038,226,o),
(1030,291,qs),
(1008,448,o),
(956,514,qs),
(934,543,o),
(887,582,o),
(850,595,o),
(826,610,o),
(826,629,o),
(861,642,o),
(914,668,o),
(970,719,o),
(1020,843,o),
(1034,969,o),
(1049,1012,qs),
(1112,1194,o),
(1256,1259,q),
(1255,1270,o),
(1242,1290,o),
(1184,1311,o),
(1104,1311,o),
(1017,1252,o),
(986,1215,q),
(976,1239,ls),
(965,1263,o),
(914,1311,o),
(869,1311,o),
(856,1304,qs),
(823,1286,o),
(810,1246,q),
(743,1128,o),
(720,986,qs),
(712,932,o),
(689,760,o),
(681,718,q),
(658,715,ls),
(589,706,o),
(526,706,qs),
(493,706,o),
(469,712,q),
(461,882,o),
(461,1272,o),
(520,1467,o),
(598,1563,q),
(584,1618,o),
(407,1618,o),
(326,1510,q),
(302,1546,o)
);
}
);
width = 1311;
}
);
note = kgreenlandic;
unicode = 312;
},
{
glyphname = l;
layers = (
{
layerId = m01;
shapes = (
{
closed = 1;
nodes = (
(496,-45,qs),
(546,-29,o),
(546,3,q),
(511,22,o),
(477,58,qs),
(465,70,o),
(450,115,o),
(437,161,o),
(437,321,qs),
(437,468,o),
(472,531,qs),
(487,558,o),
(516,590,o),
(536,605,o),
(536,624,o),
(516,647,o),
(487,693,o),
(457,778,o),
(437,969,o),
(437,1305,o),
(485,1534,o),
(547,1624,q),
(544,1643,o),
(524,1659,qs),
(515,1667,o),
(477,1678,o),
(425,1678,o),
(400,1670,qs),
(333,1647,o),
(302,1601,q),
(254,1678,o),
(151,1678,qs),
(125,1678,o),
(106,1672,qs),
(55,1656,o),
(55,1624,q),
(117,1534,o),
(165,1305,o),
(165,837,o),
(130,736,qs),
(116,693,o),
(86,647,o),
(66,624,o),
(66,605,o),
(86,590,o),
(116,558,o),
(145,504,o),
(165,395,o),
(165,267,o),
(162,146,o),
(144,92,qs),
(128,42,o),
(56,3,q),
(59,-16,o),
(78,-32,qs),
(88,-40,o),
(126,-51,o),
(180,-51,o),
(206,-44,qs),
(273,-26,o),
(301,16,q),
(354,-51,o),
(450,-51,qs),
(476,-51,o)
);
}
);
width = 608;
}
);
note = l;
unicode = 108;
},
{
glyphname = lslash;
layers = (
{
layerId = m01;
shapes = (
{
closed = 1;
nodes = (
(176,1414,qs),
(125,1398,o),
(125,1366,q),
(187,1307,o),
(235,1168,o),
(235,855,o),
(200,781,qs),
(186,750,o),
(156,715,o),
(136,697,o),
(136,680,o),
(167,648,o),
(204,598,o),
(235,450,o),
(235,341,qs),
(235,264,ls),
(235,241,o),
(232,165,o),
(227,133,o),
(216,82,o),
(201,58,o),
(170,14,o),
(126,-13,q),
(129,-32,o),
(148,-48,qs),
(158,-56,o),
(196,-67,o),
(250,-67,o),
(277,-60,qs),
(356,-40,o),
(382,0,q),
(452,-66,o),
(512,-66,qs),
(541,-66,o),
(662,-13,o),
(699,-13,qs),
(777,-13,o),
(862,-67,q),
(898,-57,o),
(898,-3,qs),
(898,45,o),
(846,87,q),
(868,102,o),
(885,130,qs),
(898,152,o),
(898,193,o),
(894,206,qs),
(883,240,o),
(862,240,q),
(799,177,o),
(691,177,qs),
(518,177,o),
(518,182,q),
(507,194,o),
(507,450,o),
(538,598,o),
(575,648,o),
(606,680,o),
(606,697,o),
(586,715,o),
(556,750,o),
(527,812,o),
(507,948,o),
(507,1168,o),
(555,1307,o),
(617,1366,q),
(614,1385,o),
(594,1401,qs),
(585,1409,o),
(547,1420,o),
(495,1420,o),
(470,1412,qs),
(403,1389,o),
(372,1343,q),
(324,1420,o),
(221,1420,qs),
(195,1420,o)
);
},
{
closed = 1;
nodes = (
(41,579,l),
(41,410,l),
(1077,410,l),
(1077,579,l)
);
}
);
width = 1115;
}
);
note = lslash;
unicode = 322;
},
{
glyphname = m;
layers = (
{
layerId = m01;
shapes = (
{
closed = 1;
nodes = (
(515,-51,qs),
(542,-51,o),
(583,-19,o),
(590,3,q),
(531,68,o),
(485,212,o),
(485,465,o),
(508,530,qs),
(518,557,o),
(537,591,o),
(551,607,o),
(551,616,o),
(530,641,o),
(504,681,o),
(483,801,o),
(483,1019,o),
(558,1149,o),
(627,1149,qs),
(760,1149,o),
(760,890,qs),
(760,749,o),
(729,687,qs),
(716,661,o),
(691,631,o),
(673,615,o),
(673,608,o),
(691,593,o),
(716,560,o),
(742,509,o),
(760,414,o),
(760,221,o),
(713,68,o),
(655,3,q),
(668,-51,o),
(730,-51,qs),
(823,-51,o),
(903,56,q),
(928,19,o),
(981,-24,qs),
(1014,-51,o),
(1068,-51,qs),
(1149,-51,o),
(1176,3,q),
(1104,67,o),
(1051,211,o),
(1051,472,o),
(1082,535,qs),
(1094,561,o),
(1119,593,o),
(1137,607,o),
(1137,616,o),
(1128,624,qs),
(1049,689,o),
(1049,924,q),
(1071,1149,o),
(1326,1149,o),
(1326,890,qs),
(1326,713,o),
(1292,661,qs),
(1279,641,o),
(1258,616,o),
(1258,610,qs),
(1258,608,o),
(1272,593,o),
(1292,561,o),
(1312,510,o),
(1326,415,o),
(1326,221,o),
(1288,68,o),
(1241,3,q),
(1244,-8,o),
(1245,-13,o),
(1250,-25,o),
(1254,-32,o),
(1263,-42,o),
(1272,-47,o),
(1287,-51,o),
(1326,-51,o),
(1356,-40,qs),
(1429,-12,o),
(1480,56,q),
(1553,-51,o),
(1725,-51,o),
(1752,3,q),
(1681,68,o),
(1627,212,o),
(1627,472,o),
(1658,535,qs),
(1670,561,o),
(1695,593,o),
(1713,607,o),
(1713,616,o),
(1704,624,qs),
(1627,697,o),
(1627,914,qs),
(1627,1128,o),
(1516,1225,qs),
(1465,1270,o),
(1341,1312,o),
(1181,1312,o),
(1019,1227,o),
(969,1138,q),
(886,1312,o),
(479,1312,o),
(392,1127,q),
(372,1160,o),
(352,1184,qs),
(264,1289,o),
(180,1289,qs),
(73,1289,o),
(47,1237,q),
(125,1171,o),
(185,1024,o),
(185,758,o),
(150,692,qs),
(136,665,o),
(106,630,o),
(86,613,o),
(86,610,q),
(87,609,o),
(120,584,o),
(141,555,o),
(170,499,o),
(185,405,o),
(185,213,o),
(130,68,o),
(59,3,q),
(63,-11,o),
(87,-34,qs),
(105,-51,o),
(167,-51,qs),
(251,-51,o),
(331,56,q),
(414,-51,o)
);
}
);
width = 1806;
}
);
note = m;
unicode = 109;
},
{
glyphname = n;
layers = (
{
layerId = m01;
shapes = (
{
closed = 1;
nodes = (
(73,1289,o),
(47,1237,q),
(125,1166,o),
(185,1010,o),
(185,748,o),
(150,686,qs),
(135,660,o),
(106,628,o),
(85,613,o),
(85,610,q),
(86,609,o),
(120,583,o),
(141,554,o),
(170,498,o),
(185,405,o),
(185,214,o),
(129,68,o),
(59,3,q),
(67,-23,o),
(101,-39,qs),
(127,-51,o),
(167,-51,qs),
(251,-51,o),
(331,56,q),
(419,-51,o),
(519,-51,qs),
(553,-51,o),
(608,-17,o),
(615,3,q),
(544,68,o),
(490,212,o),
(490,463,o),
(520,530,qs),
(532,556,o),
(557,591,o),
(575,607,o),
(575,615,o),
(548,643,o),
(515,686,o),
(488,798,o),
(488,876,qs),
(488,1012,o),
(586,1148,o),
(661,1148,qs),
(779,1148,o),
(779,894,qs),
(779,816,o),
(748,698,o),
(712,649,o),
(681,615,o),
(681,608,o),
(701,593,o),
(730,561,o),
(759,510,o),
(779,414,o),
(779,223,o),
(729,70,o),
(670,3,q),
(684,-51,o),
(833,-51,o),
(913,56,q),
(996,-51,o),
(1178,-51,o),
(1205,3,q),
(1134,68,o),
(1080,212,o),
(1080,467,o),
(1110,528,qs),
(1123,553,o),
(1148,584,o),
(1166,597,o),
(1166,606,o),
(1139,633,o),
(1107,675,o),
(1080,801,o),
(1080,894,qs),
(1080,1093,o),
(876,1312,o),
(546,1312,o),
(385,1139,q),
(298,1289,o)
);
}
);
width = 1259;
}
);
note = n;
unicode = 110;
},
{
glyphname = o;
layers = (
{
layerId = m01;
shapes = (
{
closed = 1;
nodes = (
(486,546,qs),
(498,569,o),
(522,597,o),
(540,609,o),
(540,618,o),
(513,643,o),
(481,684,o),
(454,803,o),
(454,891,qs),
(454,1131,o),
(713,1131,o),
(713,891,qs),
(713,803,o),
(686,684,o),
(653,643,o),
(626,618,o),
(626,612,q),
(628,609,o),
(663,582,o),
(689,549,o),
(713,449,o),
(713,375,qs),
(713,112,o),
(580,112,qs),
(455,112,o),
(455,365,qs),
(455,488,o)
);
},
{
closed = 1;
nodes = (
(1082,586,o),
(1115,611,o),
(1116,612,q),
(1116,616,o),
(1095,631,o),
(1066,662,o),
(1037,713,o),
(1016,814,o),
(1016,984,o),
(942,1152,o),
(818,1256,o),
(666,1311,o),
(500,1311,o),
(347,1256,o),
(224,1152,o),
(150,984,o),
(150,746,o),
(110,686,qs),
(94,661,o),
(61,631,o),
(38,616,o),
(38,610,o),
(61,596,o),
(94,565,o),
(127,515,o),
(150,418,o),
(150,253,o),
(224,88,o),
(347,-14,o),
(500,-68,o),
(666,-68,o),
(818,-14,o),
(942,88,o),
(1016,253,o),
(1016,414,o),
(1031,504,o),
(1060,558,o)
);
}
);
width = 1155;
}
);
note = o;
unicode = 111;
},
{
glyphname = oslash;
layers = (
{
layerId = m01;
shapes = (
{
closed = 1;
nodes = (
(994,1565,l),
(910,1605,l),
(160,-229,l),
(244,-269,l)
);
},
{
closed = 1;
nodes = (
(456,1114,qs),
(459,1149,o),
(469,1181,o),
(487,1220,o),
(515,1236,o),
(555,1247,o),
(634,1247,o),
(656,1232,qs),
(670,1222,o),
(689,1204,o),
(701,1164,o),
(712,1115,o),
(712,979,qs),
(712,330,ls),
(712,309,o),
(709,244,o),
(705,210,o),
(696,163,o),
(683,139,o),
(657,103,o),
(620,94,qs),
(559,78,o),
(520,102,qs),
(507,109,o),
(489,121,o),
(475,152,o),
(454,194,o),
(454,327,qs),
(454,383,l),
(453,979,ls),
(453,1066,o)
);
},
{
closed = 1;
nodes = (
(1051,602,qs),
(1068,633,o),
(1090,659,o),
(1115,678,o),
(1115,685,o),
(1104,694,qs),
(1015,766,o),
(1015,979,qs),
(1015,1202,o),
(943,1310,qs),
(909,1361,o),
(798,1421,o),
(672,1442,o),
(494,1442,o),
(367,1421,o),
(255,1361,o),
(187,1259,o),
(149,1094,o),
(149,828,o),
(110,762,qs),
(93,735,o),
(60,701,o),
(37,685,o),
(37,678,o),
(48,670,qs),
(149,600,o),
(149,383,qs),
(149,130,o),
(365,-84,o),
(799,-84,o),
(1015,130,o),
(1015,383,qs),
(1015,535,o)
);
}
);
width = 1151;
}
);
note = oslash;
unicode = 248;
},
{
glyphname = oe;
layers = (
{
layerId = m01;
shapes = (
{
closed = 1;
nodes = (
(1167,463,o),
(1161,451,q),
(1219,419,o),
(1265,342,o),
(1265,227,o),
(1256,194,qs),
(1250,169,o),
(1226,137,o),
(1179,113,o),
(1111,113,o),
(1078,129,qs),
(1064,136,o),
(1042,173,qs),
(1019,211,o),
(1019,346,qs),
(1019,464,ls),
(1019,562,o),
(1024,649,q),
(1097,656,o),
(1182,656,qs),
(1558,656,l),
(1510,719,o),
(1510,936,qs),
(1510,1227,o),
(1384,1357,qs),
(1301,1442,o),
(1131,1442,qs),
(971,1442,o),
(874,1322,q),
(826,1389,o),
(684,1442,o),
(583,1442,qs),
(406,1442,o),
(311,1391,qs),
(255,1361,o),
(187,1259,o),
(149,1094,o),
(149,828,o),
(110,762,qs),
(93,735,o),
(60,701,o),
(37,685,o),
(37,678,o),
(48,670,qs),
(149,600,o),
(149,383,qs),
(149,130,o),
(365,-84,o),
(768,-84,o),
(864,43,q),
(963,-84,o),
(1131,-84,qs),
(1212,-84,o),
(1280,-67,qs),
(1319,-57,o),
(1383,-24,o),
(1444,32,o),
(1485,108,o),
(1510,218,o),
(1510,352,o),
(1546,420,o),
(1602,451,q),
(1592,485,o),
(1525,485,qs),
(1502,485,o),
(1478,476,qs),
(1415,452,o),
(1382,402,q),
(1314,485,o),
(1238,485,qs),
(1214,485,o)
);
},
{
closed = 1;
nodes = (
(484,590,qs),
(497,619,o),
(521,658,o),
(539,676,o),
(539,686,o),
(512,714,o),
(480,757,o),
(453,885,o),
(453,1066,o),
(456,1114,qs),
(459,1149,o),
(469,1181,o),
(487,1220,o),
(515,1236,o),
(555,1247,o),
(634,1247,o),
(656,1232,qs),
(670,1222,o),
(689,1204,o),
(701,1164,o),
(712,1115,o),
(712,979,qs),
(712,828,o),
(681,762,qs),
(668,735,o),
(643,702,o),
(625,686,o),
(625,678,o),
(632,672,qs),
(712,597,o),
(712,393,qs),
(712,330,ls),
(712,309,o),
(709,244,o),
(705,210,o),
(696,163,o),
(683,139,o),
(657,103,o),
(620,94,qs),
(559,78,o),
(520,102,qs),
(507,109,o),
(489,121,o),
(475,152,o),
(454,194,o),
(454,327,qs),
(454,398,ls),
(454,519,o)
);
},
{
closed = 1;
nodes = (
(1255,831,q),
(1217,813,o),
(1059,813,o),
(1013,823,q),
(1019,872,o),
(1019,1060,o),
(1024,1121,qs),
(1028,1170,o),
(1057,1211,qs),
(1082,1246,o),
(1147,1246,qs),
(1265,1246,o),
(1265,962,qs),
(1265,936,ls),
(1265,861,o)
);
}
);
width = 1637;
}
);
note = oe;
unicode = 339;
},
{
glyphname = p;
layers = (
{
layerId = m01;
shapes = (
{
closed = 1;
nodes = (
(821,-70,o),
(924,32,qs),
(974,81,o),
(1033,245,o),
(1033,478,o),
(1068,540,qs),
(1083,566,o),
(1112,597,o),
(1133,612,o),
(1133,616,q),
(1131,618,o),
(1106,638,o),
(1097,646,qs),
(1033,707,o),
(1033,884,qs),
(1033,1097,o),
(920,1207,qs),
(867,1258,o),
(736,1311,o),
(576,1311,o),
(408,1232,o),
(343,1158,q),
(255,1309,o),
(151,1309,qs),
(123,1309,o),
(102,1302,qs),
(46,1285,o),
(46,1249,q),
(113,1179,o),
(166,1014,o),
(167,867,qs),
(163,746,o),
(125,688,qs),
(109,663,o),
(77,633,o),
(55,619,o),
(55,611,o),
(84,592,qs),
(96,584,o),
(126,547,o),
(167,460,o),
(167,348,qs),
(167,94,ls),
(167,-88,o),
(114,-289,o),
(46,-372,q),
(50,-393,o),
(70,-410,qs),
(80,-419,o),
(123,-431,o),
(205,-431,o),
(254,-394,qs),
(272,-381,o),
(311,-336,o),
(316,-326,q),
(334,-352,ls),
(353,-378,o),
(435,-431,o),
(510,-431,o),
(531,-424,qs),
(587,-407,o),
(587,-372,q),
(487,-216,o),
(465,2,q),
(559,-70,o)
);
},
{
closed = 1;
nodes = (
(598,1131,qs),
(730,1131,o),
(730,874,qs),
(730,753,o),
(704,696,qs),
(691,670,o),
(671,641,o),
(644,618,o),
(643,611,o),
(652,604,qs),
(730,543,o),
(730,348,qs),
(730,111,o),
(471,111,o),
(471,348,qs),
(471,433,o),
(498,547,o),
(530,586,o),
(557,611,o),
(557,619,o),
(548,628,qs),
(472,699,o),
(472,884,qs),
(472,1131,o)
);
}
);
width = 1172;
}
);
note = p;
unicode = 112;
},
{
glyphname = thorn;
layers = (
{
layerId = m01;
shapes = (
{
closed = 1;
nodes = (
(441,-116,o),
(441,50,q),
(553,-1,o),
(668,-1,qs),
(833,-1,o),
(944,76,qs),
(1001,116,o),
(1067,259,o),
(1067,458,o),
(1094,596,o),
(1127,643,o),
(1154,673,o),
(1154,686,o),
(1145,694,qs),
(1067,768,o),
(1067,984,qs),
(1067,1209,o),
(944,1310,qs),
(886,1357,o),
(749,1401,o),
(559,1401,o),
(450,1351,q),
(472,1512,o),
(566,1611,q),
(552,1638,o),
(505,1666,o),
(472,1666,qs),
(389,1666,o),
(307,1557,q),
(233,1666,o),
(51,1666,o),
(35,1611,q),
(103,1538,o),
(161,1365,o),
(161,1222,qs),
(161,979,ls),
(161,840,o),
(126,768,qs),
(111,738,o),
(82,701,o),
(61,683,o),
(61,675,o),
(72,666,qs),
(161,594,o),
(161,381,qs),
(161,9,ls),
(160,-135,o),
(103,-308,o),
(35,-380,q),
(39,-394,o),
(56,-412,qs),
(67,-422,o),
(112,-435,o),
(195,-435,o),
(242,-397,qs),
(260,-383,o),
(294,-345,o),
(304,-330,o),
(307,-326,q),
(330,-360,o),
(372,-396,qs),
(416,-435,o),
(472,-435,qs),
(538,-435,o),
(566,-380,q),
(497,-305,o)
);
},
{
closed = 1;
nodes = (
(484,727,o),
(458,776,o),
(440,880,o),
(440,1055,o),
(454,1108,qs),
(464,1143,o),
(500,1182,o),
(562,1207,o),
(666,1207,o),
(694,1197,qs),
(711,1191,o),
(740,1179,o),
(764,1146,qs),
(786,1115,o),
(786,1002,qs),
(786,925,ls),
(786,864,o),
(759,746,o),
(726,708,o),
(699,685,o),
(699,676,o),
(717,663,o),
(742,636,o),
(768,591,o),
(786,495,o),
(786,375,o),
(784,328,qs),
(782,299,o),
(776,273,o),
(764,233,o),
(746,216,o),
(732,205,qs),
(701,179,o),
(607,179,qs),
(522,179,o),
(482,222,qs),
(464,242,o),
(445,311,o),
(440,378,o),
(440,557,o),
(471,612,qs),
(484,635,o),
(509,662,o),
(527,675,o),
(527,685,o),
(509,699,o)
);
}
);
width = 1192;
}
);
note = thorn;
unicode = 254;
},
{
glyphname = q;
layers = (
{
layerId = m01;
shapes = (
{
closed = 1;
nodes = (
(668,696,qs),
(656,670,o),
(632,636,o),
(614,619,o),
(614,611,o),
(641,586,o),
(673,547,o),
(700,433,o),
(700,348,qs),
(700,111,o),
(441,111,o),
(441,348,qs),
(441,484,o),
(472,544,qs),
(484,568,o),
(510,597,o),
(528,611,o),
(527,618,o),
(500,641,o),
(480,670,o),
(441,753,o),
(441,874,qs),
(441,1131,o),
(573,1131,qs),
(699,1131,o),
(699,884,qs),
(699,761,o)
);
},
{
closed = 1;
nodes = (
(1070,-424,qs),
(1125,-408,o),
(1125,-372,q),
(1057,-289,o),
(1004,-88,o),
(1004,94,qs),
(1004,348,ls),
(1004,460,o),
(1033,522,qs),
(1045,547,o),
(1075,584,o),
(1099,600,o),
(1116,612,o),
(1116,619,o),
(1105,626,qs),
(1010,687,o),
(1004,867,q),
(1005,1014,o),
(1058,1179,o),
(1125,1249,q),
(1122,1268,o),
(1093,1294,qs),
(1077,1309,o),
(1020,1309,qs),
(916,1309,o),
(828,1158,q),
(763,1232,o),
(595,1311,o),
(509,1311,qs),
(359,1311,o),
(252,1207,qs),
(199,1156,o),
(138,989,o),
(138,782,o),
(118,722,qs),
(109,697,o),
(83,655,o),
(65,638,o),
(40,618,o),
(38,616,q),
(38,612,o),
(48,604,qs),
(138,541,o),
(138,348,qs),
(138,139,o),
(247,32,qs),
(350,-70,o),
(485,-70,qs),
(612,-70,o),
(706,2,q),
(684,-216,o),
(584,-372,q),
(588,-394,o),
(608,-410,qs),
(619,-419,o),
(661,-431,o),
(719,-431,o),
(775,-408,o),
(810,-381,o),
(843,-344,o),
(852,-330,o),
(855,-326,q),
(922,-431,o),
(1020,-431,qs),
(1048,-431,o)
);
}
);
width = 1170;
}
);
note = q;
unicode = 113;
},
{
glyphname = r;
layers = (
{
layerId = m01;
shapes = (
{
closed = 1;
nodes = (
(883,776,o),
(876,787,o),
(868,802,o),
(864,814,o),
(864,828,o),
(867,834,qs),
(940,951,o),
(940,1063,qs),
(940,1114,o),
(927,1156,qs),
(880,1310,o),
(672,1310,qs),
(500,1310,o),
(367,1135,q),
(276,1289,o),
(73,1289,o),
(47,1237,q),
(125,1166,o),
(185,1010,o),
(185,748,o),
(150,686,qs),
(135,660,o),
(106,628,o),
(85,613,o),
(85,610,q),
(86,609,o),
(120,583,o),
(141,554,o),
(170,498,o),
(185,405,o),
(185,214,o),
(129,68,o),
(59,3,q),
(67,-23,o),
(101,-39,qs),
(127,-51,o),
(167,-51,qs),
(251,-51,o),
(331,56,q),
(419,-51,o),
(519,-51,qs),
(553,-51,o),
(608,-17,o),
(615,3,q),
(544,68,o),
(490,212,o),
(490,416,o),
(521,527,o),
(555,572,o),
(574,590,qs),
(594,608,l),
(582,608,o),
(551,668,qs),
(535,698,o),
(486,827,o),
(486,933,qs),
(486,1067,o),
(526,1130,qs),
(545,1158,o),
(587,1186,o),
(647,1186,o),
(674,1156,qs),
(687,1142,o),
(702,1102,o),
(702,1029,o),
(627,943,o),
(570,943,qs),
(559,943,o),
(554,944,q),
(559,915,o),
(580,888,qs),
(590,876,o),
(633,858,o),
(702,858,o),
(740,879,q),
(740,878,ls),
(740,863,o),
(755,828,qs),
(791,741,o),
(873,741,q),
(900,750,l),
(897,755,o)
);
}
);
width = 916;
}
);
note = r;
unicode = 114;
},
{
glyphname = s;
layers = (
{
layerId = m01;
shapes = (
{
closed = 1;
nodes = (
(161,56,o),
(220,16,qs),
(346,-70,o),
(480,-70,qs),
(700,-70,o),
(818,44,qs),
(873,97,o),
(930,231,o),
(930,404,o),
(831,592,o),
(737,661,q),
(694,686,o),
(668,764,qs),
(661,788,o),
(648,788,o),
(562,772,o),
(517,772,o),
(506,777,qs),
(393,827,o),
(393,1129,o),
(526,1129,qs),
(581,1129,o),
(654,1083,o),
(654,987,o),
(577,931,o),
(520,924,q),
(520,908,o),
(532,888,qs),
(540,876,o),
(577,861,o),
(655,861,o),
(718,903,q),
(718,891,o),
(742,852,qs),
(755,830,o),
(789,790,o),
(841,761,o),
(897,761,o),
(911,774,q),
(868,818,o),
(868,872,q),
(891,1001,l),
(891,1136,o),
(795,1214,qs),
(753,1248,o),
(605,1311,o),
(507,1311,qs),
(313,1311,o),
(86,1108,o),
(86,727,o),
(255,607,q),
(308,564,o),
(330,494,qs),
(337,472,o),
(350,465,o),
(357,465,o),
(423,481,o),
(449,481,qs),
(524,481,o),
(639,354,o),
(639,247,qs),
(639,204,o),
(608,159,qs),
(592,136,o),
(529,107,o),
(427,107,o),
(350,166,o),
(350,273,o),
(412,330,o),
(455,339,q),
(455,342,ls),
(455,355,o),
(441,376,qs),
(433,389,o),
(393,405,o),
(308,405,o),
(249,358,q),
(249,370,o),
(232,405,qs),
(223,425,o),
(195,463,o),
(147,499,o),
(106,510,o),
(68,510,o),
(53,496,q),
(95,449,o),
(95,386,q),
(84,268,l),
(84,189,o)
);
}
);
width = 986;
}
);
note = s;
unicode = 115;
},
{
glyphname = germandbls;
layers = (
{
layerId = m01;
shapes = (
{
closed = 1;
nodes = (
(586,722,l)
);
},
{
closed = 1;
nodes = (
(452,1211,o),
(502,1327,o),
(561,1372,o),
(642,1372,o),
(701,1330,o),
(716,1294,qs),
(744,1227,o),
(744,1089,o),
(741,1018,o),
(730,937,o),
(708,881,o),
(692,857,qs),
(658,809,o),
(586,809,q),
(586,722,l),
(780,686,o),
(793,427,qs),
(794,401,o),
(794,304,o),
(783,203,o),
(769,162,qs),
(742,79,o),
(674,79,qs),
(639,79,o),
(594,119,o),
(594,177,o),
(627,207,o),
(677,207,o),
(736,215,q),
(742,220,o),
(742,237,qs),
(742,282,o),
(698,303,qs),
(673,316,o),
(640,316,qs),
(624,315,l),
(624,337,o),
(632,367,q),
(632,422,o),
(575,489,o),
(548,489,qs),
(542,489,l),
(544,471,o),
(544,431,o),
(526,386,o),
(499,350,o),
(486,332,qs),
(454,289,o),
(454,187,o),
(487,105,o),
(514,78,qs),
(569,25,o),
(649,8,q),
(702,0,o),
(799,0,o),
(917,33,o),
(966,70,qs),
(1063,144,o),
(1092,327,q),
(1096,364,o),
(1149,455,o),
(1149,462,o),
(1128,484,qs),
(1065,551,o),
(1040,649,o),
(1010,690,qs),
(954,763,o),
(846,780,q),
(968,818,o),
(988,954,qs),
(1003,1038,o),
(1061,1110,qs),
(1081,1134,o),
(1081,1147,o),
(1062,1170,qs),
(1001,1246,o),
(984,1323,qs),
(959,1443,o),
(751,1586,o),
(596,1586,qs),
(360,1586,o),
(261,1460,qs),
(179,1354,o),
(179,1151,qs),
(179,941,o),
(141,860,qs),
(118,810,o),
(70,767,o),
(70,748,o),
(92,729,o),
(125,689,o),
(141,655,qs),
(179,574,o),
(179,233,o),
(123,38,o),
(59,-22,q),
(74,-53,o),
(143,-73,o),
(204,-73,o),
(282,-15,o),
(300,14,qs),
(319,42,l),
(346,-24,o),
(412,-60,qs),
(435,-73,o),
(491,-73,o),
(543,-48,o),
(563,-22,q),
(476,24,o),
(401,175,o),
(401,385,o),
(412,524,o),
(419,557,qs),
(435,627,o),
(452,641,qs),
(458,647,o),
(472,664,o),
(479,673,o),
(490,686,o),
(495,693,o),
(502,703,o),
(505,710,o),
(507,714,qs),
(510,721,o),
(510,742,o),
(498,764,q),
(467,805,o),
(452,913,o),
(452,1040,qs),
(452,1103,ls)
);
}
);
width = 1149;
}
);
note = germandbls;
unicode = 223;
},
{
glyphname = t;
layers = (
{
layerId = m01;
shapes = (
{
closed = 1;
nodes = (
(207,770,o),
(172,700,qs),
(158,670,o),
(128,638,o),
(108,621,o),
(108,605,o),
(128,590,o),
(158,558,o),
(187,504,o),
(207,395,o),
(207,221,o),
(203,168,qs),
(200,129,o),
(187,94,o),
(156,35,o),
(98,3,q),
(101,-16,o),
(127,-38,qs),
(143,-51,o),
(194,-51,qs),
(287,-51,o),
(343,33,q),
(446,-70,o),
(614,-70,qs),
(669,-70,o),
(717,-55,qs),
(940,15,o),
(940,439,qs),
(940,458,o),
(900,480,o),
(840,480,o),
(791,460,o),
(791,442,qs),
(791,61,o),
(643,61,qs),
(509,61,o),
(509,321,qs),
(509,412,o),
(537,536,o),
(570,578,o),
(598,605,o),
(598,621,o),
(580,638,o),
(554,670,o),
(527,729,o),
(509,861,o),
(509,1073,o),
(511,1124,q),
(675,1100,l),
(714,1100,o),
(764,1145,o),
(764,1230,o),
(714,1275,o),
(675,1275,q),
(511,1251,l),
(502,1308,o),
(502,1373,qs),
(510,1634,o),
(510,1634,q),
(510,1657,o),
(478,1681,o),
(432,1681,o),
(391,1659,o),
(384,1641,q),
(376,1606,ls),
(359,1523,o),
(292,1412,qs),
(259,1358,o),
(139,1266,o),
(66,1251,qs),
(39,1245,o),
(39,1164,o),
(74,1109,o),
(106,1109,q),
(204,1124,l),
(207,1048,o)
);
}
);
width = 940;
}
);
note = t;
unicode = 116;
},
{
glyphname = u;
layers = (
{
layerId = m01;
shapes = (
{
closed = 1;
nodes = (
(668,1292,qs),
(659,1285,o),
(646,1266,o),
(644,1258,o),
(643,1256,q),
(697,1188,o),
(739,1030,o),
(739,761,o),
(712,694,qs),
(701,666,o),
(679,631,o),
(663,615,o),
(663,606,o),
(687,580,o),
(717,539,o),
(741,418,o),
(741,223,o),
(651,96,o),
(532,96,o),
(451,217,o),
(451,418,o),
(478,539,o),
(510,580,o),
(537,606,o),
(537,614,o),
(519,629,o),
(494,661,o),
(469,713,o),
(451,814,o),
(451,1020,o),
(503,1190,o),
(567,1256,q),
(558,1311,o),
(480,1311,qs),
(396,1311,o),
(316,1204,q),
(291,1241,o),
(238,1284,qs),
(205,1311,o),
(152,1311,qs),
(72,1311,o),
(44,1256,q),
(110,1188,o),
(160,1031,o),
(160,753,o),
(129,689,qs),
(116,662,o),
(90,629,o),
(72,614,o),
(72,606,o),
(100,578,o),
(132,535,o),
(160,409,o),
(160,197,o),
(212,108,qs),
(317,-70,o),
(520,-70,qs),
(696,-70,o),
(800,106,q),
(823,67,ls),
(846,28,o),
(947,-51,o),
(1003,-51,qs),
(1112,-51,o),
(1138,0,q),
(1068,65,o),
(1018,208,o),
(1018,428,o),
(1045,541,o),
(1076,581,o),
(1103,606,o),
(1103,614,o),
(1085,629,o),
(1060,661,o),
(1035,713,o),
(1017,814,o),
(1017,1021,o),
(1075,1188,o),
(1146,1256,q),
(1146,1266,o),
(1134,1280,qs),
(1127,1288,o),
(1106,1301,o),
(1065,1311,o),
(1014,1311,o),
(990,1300,qs),
(925,1268,o),
(893,1204,q),
(820,1311,o),
(729,1311,qs),
(691,1311,o)
);
}
);
width = 1200;
}
);
note = u;
unicode = 117;
},
{
glyphname = v;
layers = (
{
layerId = m01;
shapes = (
{
closed = 1;
nodes = (
(487,934,q),
(456,1045,o),
(456,1188,o),
(507,1256,q),
(499,1275,o),
(478,1291,qs),
(468,1299,o),
(430,1310,o),
(382,1310,o),
(339,1285,o),
(294,1230,o),
(287,1193,q),
(160,1310,o),
(37,1310,qs),
(3,1310,o),
(-36,1290,o),
(-45,1271,o),
(-45,1258,o),
(-44,1256,q),
(36,1194,o),
(121,1060,o),
(192,801,o),
(192,659,o),
(158,632,qs),
(146,623,o),
(146,608,o),
(168,593,o),
(207,564,o),
(252,512,o),
(307,396,o),
(361,204,o),
(361,60,o),
(312,3,q),
(320,-15,o),
(352,-38,qs),
(372,-51,o),
(423,-51,qs),
(510,-51,o),
(561,26,q),
(578,7,ls),
(595,-12,o),
(661,-51,o),
(725,-51,o),
(771,-41,o),
(804,-24,o),
(804,2,qs),
(804,3,l),
(749,86,o),
(749,271,o),
(808,466,o),
(882,601,o),
(904,601,qs),
(906,601,ls),
(910,602,o),
(910,609,q),
(901,693,l),
(901,760,o),
(963,990,o),
(1077,1217,o),
(1137,1256,q),
(1137,1260,ls),
(1137,1274,o),
(1125,1289,qs),
(1118,1298,o),
(1082,1310,o),
(1029,1310,o),
(1002,1300,qs),
(931,1272,o),
(886,1213,q),
(878,1238,ls),
(870,1262,o),
(821,1310,o),
(787,1310,qs),
(713,1310,o),
(686,1256,q),
(737,1188,o),
(737,1016,o),
(707,781,o),
(678,705,qs),
(666,674,o),
(645,634,o),
(633,616,o),
(633,611,q),
(647,563,o),
(647,463,o),
(603,382,q),
(562,550,o)
);
}
);
width = 1096;
}
);
note = v;
unicode = 118;
},
{
glyphname = w;
layers = (
{
layerId = m01;
shapes = (
{
closed = 1;
nodes = (
(497,934,q),
(466,1045,o),
(466,1188,o),
(517,1256,q),
(509,1275,o),
(488,1291,qs),
(477,1299,o),
(439,1310,o),
(392,1310,o),
(370,1297,qs),
(317,1266,o),
(297,1193,q),
(276,1213,o),
(240,1239,qs),
(223,1252,o),
(179,1276,o),
(131,1297,o),
(74,1310,o),
(-5,1310,o),
(-22,1290,qs),
(-30,1282,o),
(-35,1268,o),
(-35,1258,o),
(-34,1256,q),
(46,1194,o),
(130,1060,o),
(202,801,o),
(202,666,o),
(179,645,qs),
(170,637,o),
(156,622,o),
(156,606,o),
(178,592,qs),
(189,585,o),
(216,565,o),
(250,524,o),
(285,468,o),
(323,374,o),
(371,204,o),
(371,60,o),
(322,3,q),
(331,-16,o),
(354,-32,qs),
(366,-40,o),
(407,-51,o),
(461,-51,o),
(486,-43,qs),
(548,-22,o),
(571,26,q),
(633,-51,o),
(703,-51,qs),
(739,-51,o),
(763,-46,qs),
(773,-43,o),
(791,-36,o),
(801,-29,o),
(809,-20,o),
(812,-13,o),
(814,-5,o),
(813,0,o),
(814,3,o),
(814,3,q),
(715,70,o),
(715,279,o),
(765,412,qs),
(828,578,o),
(883,647,q),
(913,620,o),
(972,459,qs),
(999,387,o),
(1038,207,o),
(1038,60,o),
(989,3,q),
(998,-16,o),
(1021,-32,qs),
(1033,-40,o),
(1074,-51,o),
(1128,-51,o),
(1153,-43,qs),
(1215,-22,o),
(1238,26,q),
(1300,-51,o),
(1431,-51,o),
(1458,-36,qs),
(1469,-30,o),
(1480,-12,o),
(1481,-4,o),
(1481,3,o),
(1481,3,q),
(1382,77,o),
(1382,190,qs),
(1382,275,o),
(1443,397,qs),
(1469,449,o),
(1523,541,o),
(1565,597,o),
(1576,602,o),
(1576,610,o),
(1563,721,o),
(1563,849,o),
(1646,1067,o),
(1731,1198,o),
(1814,1256,q),
(1814,1256,o),
(1815,1267,o),
(1810,1278,qs),
(1806,1287,o),
(1790,1300,o),
(1757,1310,o),
(1709,1310,o),
(1685,1300,qs),
(1624,1273,o),
(1583,1213,q),
(1573,1246,o),
(1552,1276,qs),
(1541,1290,o),
(1505,1310,o),
(1460,1310,o),
(1441,1304,qs),
(1394,1290,o),
(1383,1256,q),
(1434,1188,o),
(1434,1052,o),
(1423,934,q),
(1398,780,o),
(1359,704,qs),
(1343,673,o),
(1315,634,o),
(1299,615,o),
(1299,611,qs),
(1305,548,l),
(1305,495,o),
(1280,382,q),
(1239,550,o),
(1164,934,q),
(1133,1045,o),
(1133,1188,o),
(1184,1256,q),
(1180,1265,o),
(1171,1277,qs),
(1166,1283,o),
(1150,1295,o),
(1130,1304,o),
(1100,1310,o),
(1059,1310,o),
(1037,1297,qs),
(984,1266,o),
(964,1193,q),
(839,1310,o),
(714,1310,qs),
(673,1310,o),
(653,1297,qs),
(645,1291,o),
(634,1277,o),
(632,1266,o),
(632,1258,o),
(633,1256,q),
(723,1187,o),
(767,1107,q),
(767,1049,o),
(756,934,q),
(731,780,o),
(694,704,qs),
(679,673,o),
(652,634,o),
(636,615,o),
(636,611,q),
(650,569,o),
(650,458,o),
(613,382,q),
(572,550,o)
);
}
);
width = 1775;
}
);
note = w;
unicode = 119;
},
{
glyphname = x;
layers = (
{
layerId = m01;
shapes = (
{
closed = 1;
nodes = (
(418,68,qs),
(414,77,o),
(406,103,o),
(403,122,o),
(403,171,o),
(456,275,o),
(532,392,q),
(606,279,o),
(658,159,o),
(658,57,o),
(652,9,q),
(662,-11,o),
(684,-30,qs),
(695,-39,o),
(729,-51,o),
(782,-51,o),
(807,-42,qs),
(872,-19,o),
(872,34,q),
(897,13,ls),
(922,-8,o),
(1007,-51,o),
(1042,-51,qs),
(1141,-51,o),
(1141,-10,qs),
(1141,1,o),
(1135,9,q),
(1064,55,o),
(973,162,o),
(899,275,q),
(850,367,ls),
(805,458,o),
(805,547,o),
(846,630,o),
(846,641,qs),
(846,658,o),
(824,663,qs),
(753,680,o),
(697,720,q),
(817,904,ls),
(913,1051,o),
(1040,1193,o),
(1136,1252,q),
(1141,1269,l),
(1141,1311,o),
(1043,1311,qs),
(1003,1311,o),
(886,1256,o),
(853,1226,q),
(850,1247,ls),
(846,1268,o),
(798,1311,o),
(727,1311,o),
(674,1274,o),
(664,1252,q),
(679,1168,o),
(679,1050,o),
(637,944,o),
(584,869,q),
(476,1054,o),
(476,1155,qs),
(476,1219,o),
(488,1252,q),
(477,1273,o),
(457,1290,qs),
(447,1299,o),
(413,1311,o),
(369,1311,o),
(350,1302,qs),
(299,1279,o),
(299,1226,q),
(268,1247,ls),
(238,1268,o),
(133,1311,o),
(89,1311,qs),
(-9,1311,o),
(-9,1269,qs),
(-9,1259,o),
(-4,1252,q),
(71,1202,o),
(168,1089,o),
(225,984,q),
(306,814,ls),
(325,775,o),
(325,694,o),
(288,596,o),
(288,577,o),
(349,572,o),
(407,527,q),
(243,275,l),
(156,162,o),
(49,55,o),
(-33,9,q),
(-39,-1,o),
(-39,-10,qs),
(-39,-51,o),
(60,-51,qs),
(95,-51,o),
(200,4,o),
(230,34,q),
(234,13,ls),
(239,-8,o),
(296,-51,o),
(410,-51,o),
(440,9,q),
(434,27,o)
);
}
);
width = 1108;
}
);
note = x;
unicode = 120;
},
{
glyphname = y;
layers = (
{
layerId = m01;
shapes = (
{
closed = 1;
nodes = (
(908,1262,o),
(859,1310,o),
(825,1310,qs),
(751,1310,o),
(724,1256,q),
(775,1188,o),
(775,1041,o),
(744,795,o),
(707,715,qs),
(692,683,o),
(665,642,o),
(648,622,o),
(648,618,q),
(662,586,o),
(662,483,o),
(621,352,q),
(606,423,ls),
(562,632,o),
(516,872,qs),
(500,960,o),
(474,1081,o),
(474,1110,qs),
(474,1188,o),
(525,1256,q),
(517,1275,o),
(496,1291,qs),
(486,1299,o),
(448,1310,o),
(400,1310,o),
(357,1285,o),
(312,1230,o),
(305,1193,q),
(178,1310,o),
(55,1310,qs),
(21,1310,o),
(-18,1290,o),
(-27,1271,o),
(-27,1258,o),
(-26,1256,q),
(54,1194,o),
(139,1060,o),
(210,801,o),
(210,659,o),
(176,632,qs),
(164,623,o),
(164,608,o),
(186,593,o),
(206,578,qs),
(291,515,o),
(348,315,q),
(430,-34,o),
(440,-149,qs),
(444,-203,l),
(444,-274,o),
(368,-352,o),
(268,-352,o),
(199,-287,o),
(199,-229,qs),
(199,-161,o),
(314,-161,qs),
(329,-161,o),
(355,-163,q),
(358,-157,o),
(358,-122,o),
(295,-64,o),
(190,-64,o),
(149,-77,q),
(150,-72,o),
(150,-68,qs),
(150,-43,ls),
(150,-22,o),
(128,38,qs),
(117,71,o),
(62,116,o),
(11,116,o),
(4,114,q),
(17,87,o),
(17,27,o),
(-11,-48,qs),
(-29,-96,o),
(-29,-149,qs),
(-29,-283,o),
(170,-437,o),
(468,-437,o),
(672,-250,o),
(695,-65,qs),
(733,238,o),
(865,580,o),
(921,608,q),
(925,609,o),
(925,617,o),
(910,723,o),
(910,840,o),
(936,934,qs),
(991,1141,o),
(1155,1256,q),
(1155,1260,ls),
(1155,1274,o),
(1138,1295,qs),
(1127,1310,o),
(1074,1310,qs),
(997,1310,o),
(924,1213,q),
(916,1238,ls)
);
}
);
width = 1126;
}
);
note = y;
unicode = 121;
},
{
glyphname = z;
layers = (
{
layerId = m01;
shapes = (
{
closed = 1;
nodes = (
(454,-24,qs),
(512,-51,o),
(650,-51,qs),
(840,-51,o),
(930,52,qs),
(979,110,o),
(979,273,o),
(922,336,qs),
(901,360,o),
(865,431,o),
(865,490,o),
(869,510,q),
(862,510,ls),
(827,510,o),
(775,450,o),
(756,384,o),
(756,295,o),
(766,293,q),
(745,294,ls),
(670,294,o),
(595,224,o),
(595,172,o),
(602,166,q),
(646,180,o),
(705,180,o),
(753,144,o),
(753,105,qs),
(753,38,o),
(651,38,qs),
(587,38,o),
(511,118,o),
(511,256,o),
(563,371,o),
(635,456,o),
(699,515,o),
(722,525,o),
(722,533,o),
(705,580,o),
(705,602,qs),
(705,674,o),
(817,966,o),
(955,1209,o),
(990,1222,q),
(995,1233,o),
(995,1275,o),
(954,1313,o),
(932,1313,qs),
(840,1313,o),
(683,1182,q),
(622,1239,o),
(562,1272,qs),
(490,1312,o),
(355,1312,qs),
(236,1312,o),
(150,1253,qs),
(107,1223,o),
(56,1118,o),
(56,971,o),
(113,908,qs),
(134,884,o),
(170,813,o),
(170,754,o),
(166,734,q),
(173,734,ls),
(208,734,o),
(260,794,o),
(279,860,o),
(279,931,o),
(269,951,q),
(274,950,o),
(333,950,o),
(410,1003,o),
(410,1051,qs),
(410,1072,o),
(403,1078,q),
(365,1064,o),
(308,1064,o),
(276,1103,o),
(276,1168,o),
(331,1223,o),
(425,1223,o),
(504,1135,o),
(504,922,o),
(433,822,qs),
(403,779,o),
(344,715,o),
(300,676,o),
(298,673,q),
(308,649,ls),
(319,625,o),
(319,599,qs),
(319,516,o),
(205,251,o),
(55,41,o),
(5,22,q),
(0,11,o),
(0,-31,o),
(41,-69,o),
(63,-69,qs),
(155,-69,o),
(312,62,q),
(374,12,o)
);
}
);
width = 990;
}
);
note = z;
unicode = 122;
},
{
glyphname = ordfeminine;
layers = (
{
layerId = m01;
shapes = (
{
closed = 1;
nodes = (
(653,826,o),
(635,826,qs),
(607,826,o),
(607,880,qs),
(607,1116,ls),
(607,1246,o),
(523,1296,qs),
(484,1320,o),
(403,1341,o),
(258,1341,o),
(179,1311,qs),
(137,1295,o),
(86,1237,o),
(86,1174,o),
(124,1141,o),
(201,1141,o),
(211,1172,qs),
(228,1226,o),
(267,1259,o),
(404,1259,o),
(468,1177,o),
(468,1089,q),
(438,1092,o),
(403,1092,qs),
(282,1092,o),
(184,1052,qs),
(132,1031,o),
(70,950,o),
(70,816,o),
(183,732,o),
(267,732,qs),
(397,732,o),
(476,847,q),
(484,801,o),
(550,736,o),
(664,736,o),
(741,800,o),
(756,872,q),
(694,903,l),
(690,871,o)
);
},
{
closed = 1;
nodes = (
(265,986,qs),
(285,997,o),
(349,1010,o),
(393,1012,o),
(459,1014,o),
(468,1015,q),
(468,932,l),
(448,884,o),
(366,822,o),
(313,822,qs),
(216,822,o),
(216,909,qs),
(216,961,o)
);
},
{
closed = 1;
nodes = (
(607,637,l),
(152,637,l),
(152,530,l),
(607,530,l)
);
}
);
width = 817;
}
);
note = ordfeminine;
unicode = 170;
},
{
glyphname = ordmasculine;
layers = (
{
layerId = m01;
shapes = (
{
closed = 1;
nodes = (
(583,1131,o),
(583,936,o),
(486,824,o),
(318,824,o),
(221,936,o),
(221,1131,o),
(319,1244,o),
(485,1244,o)
);
},
{
closed = 1;
nodes = (
(738,897,o),
(738,1172,o),
(550,1341,o),
(255,1341,o),
(65,1172,o),
(65,897,o),
(255,728,o),
(550,728,o)
);
},
{
closed = 1;
nodes = (
(626,637,l),
(171,637,l),
(171,530,l),
(626,530,l)
);
}
);
width = 805;
}
);
note = ordmasculine;
unicode = 186;
},
{
glyphname = Omega;
layers = (
{
layerId = m01;
shapes = (
{
closed = 1;
nodes = (
(1229,191,o),
(1200,166,o),
(1166,166,o),
(1163,166,qs),
(1051,168,l),
(1175,263,o),
(1268,397,qs),
(1317,468,o),
(1373,643,o),
(1373,862,o),
(1284,1084,o),
(1125,1245,o),
(891,1338,o),
(752,1338,qs),
(475,1338,o),
(119,996,o),
(119,725,qs),
(119,402,o),
(434,168,q),
(332,166,ls),
(329,166,o),
(294,166,o),
(263,192,o),
(245,233,q),
(66,233,l),
(92,0,l),
(625,0,l),
(632,77,l),
(582,125,o),
(538,187,qs),
(364,429,o),
(364,702,qs),
(364,949,o),
(570,1227,o),
(923,1227,o),
(1130,938,o),
(1130,705,qs),
(1130,599,o),
(1104,498,qs),
(1043,257,o),
(858,76,q),
(868,0,l),
(1398,0,l),
(1429,233,l),
(1246,233,l)
);
}
);
width = 1490;
}
);
note = Omega;
unicode = 937;
},
{
glyphname = pi;
layers = (
{
layerId = m01;
shapes = (
{
closed = 1;
nodes = (
(254,934,qs),
(141,912,o),
(43,810,q),
(73,722,l),
(166,773,o),
(318,773,q),
(314,601,o),
(233,185,o),
(161,45,q),
(159,-12,l),
(241,-7,o),
(315,5,q),
(362,108,o),
(451,539,o),
(454,771,q),
(567,771,ls),
(673,771,o),
(763,769,q),
(753,447,o),
(753,253,qs),
(753,22,o),
(880,-12,q),
(1002,-12,o),
(1095,53,q),
(1073,121,o),
(1067,228,q),
(1041,210,o),
(1020,210,q),
(992,230,o),
(974,329,o),
(974,628,o),
(979,767,q),
(1046,767,o),
(1089,773,q),
(1125,792,o),
(1171,891,q),
(1149,976,l),
(1092,941,o),
(994,941,qs),
(377,944,ls),
(308,944,o)
);
}
);
width = 1214;
}
);
note = pi;
unicode = 960;
},
{
glyphname = zero;
layers = (
{
layerId = m01;
shapes = (
{
closed = 1;
nodes = (
(545,727,o),
(562,750,o),
(562,762,o),
(545,782,o),
(520,823,o),
(495,892,o),
(478,1037,o),
(478,1219,o),
(481,1274,qs),
(483,1310,o),
(491,1345,o),
(507,1392,o),
(530,1412,o),
(564,1434,o),
(609,1441,o),
(669,1441,o),
(715,1434,o),
(749,1412,o),
(772,1392,o),
(788,1345,o),
(796,1310,o),
(800,1237,o),
(801,1185,o),
(801,1014,o),
(774,851,o),
(743,797,o),
(716,763,o),
(716,752,o),
(734,733,o),
(746,711,qs),
(801,610,o),
(801,399,qs),
(801,330,o),
(801,330,q),
(801,307,o),
(798,235,o),
(792,199,o),
(780,140,o),
(752,105,qs),
(721,65,o),
(639,65,qs),
(555,65,o),
(514,114,qs),
(497,134,o),
(482,233,o),
(479,306,o),
(479,474,o),
(496,608,o),
(520,680,o)
);
},
{
closed = 1;
nodes = (
(1187,725,o),
(1214,746,o),
(1214,753,o),
(1191,772,o),
(1159,810,o),
(1127,872,o),
(1104,995,o),
(1104,1200,o),
(1025,1399,o),
(892,1522,o),
(728,1587,o),
(550,1587,o),
(386,1521,o),
(253,1398,o),
(174,1200,o),
(174,915,o),
(130,839,qs),
(112,808,o),
(76,771,o),
(50,754,o),
(50,746,o),
(76,728,o),
(112,689,o),
(148,625,o),
(174,501,o),
(174,303,o),
(253,112,o),
(386,-6,o),
(550,-69,o),
(728,-69,o),
(892,-6,o),
(1025,112,o),
(1104,303,o),
(1104,504,o),
(1124,627,o),
(1162,696,o)
);
}
);
width = 1263;
}
);
note = zero;
unicode = 48;
},
{
glyphname = one;
layers = (
{
layerId = m01;
shapes = (
{
closed = 1;
nodes = (
(112,1556,qs),
(56,1539,o),
(56,1503,q),
(125,1436,o),
(177,1288,o),
(177,940,o),
(139,859,qs),
(123,825,o),
(90,787,o),
(68,767,o),
(68,748,o),
(90,728,o),
(123,687,o),
(155,617,o),
(177,473,o),
(177,223,o),
(125,58,o),
(56,-14,q),
(60,-35,o),
(80,-53,qs),
(91,-62,o),
(133,-74,o),
(190,-74,o),
(218,-65,qs),
(291,-42,o),
(326,11,q),
(344,-10,ls),
(363,-31,o),
(445,-74,o),
(520,-74,o),
(541,-68,qs),
(597,-50,o),
(597,-14,q),
(528,58,o),
(476,223,o),
(476,569,o),
(514,652,qs),
(530,687,o),
(563,728,o),
(585,748,o),
(585,767,o),
(563,787,o),
(530,825,o),
(498,893,o),
(476,1042,o),
(476,1288,o),
(528,1436,o),
(597,1503,q),
(593,1518,ls),
(589,1532,o),
(536,1562,o),
(433,1562,o),
(388,1532,qs),
(371,1521,o),
(338,1492,o),
(329,1480,o),
(326,1477,q),
(260,1562,o),
(161,1562,qs),
(133,1562,o)
);
}
);
width = 650;
}
);
note = one;
unicode = 49;
},
{
glyphname = two;
layers = (
{
layerId = m01;
shapes = (
{
closed = 1;
nodes = (
(877,240,o),
(785,240,qs),
(443,246,l),
(650,439,o),
(774,567,qs),
(868,664,o),
(950,789,qs),
(1056,952,o),
(1056,1157,qs),
(1056,1332,o),
(918,1457,qs),
(852,1516,o),
(659,1586,o),
(420,1586,o),
(308,1532,qs),
(249,1504,o),
(158,1423,o),
(103,1303,o),
(103,1182,o),
(151,1017,o),
(151,999,qs),
(151,948,o),
(111,901,q),
(129,890,o),
(150,890,qs),
(208,890,o),
(244,931,qs),
(261,949,o),
(286,986,o),
(302,1029,o),
(308,1047,o),
(310,1056,o),
(311,1056,o),
(314,1054,q),
(382,1022,o),
(433,1022,qs),
(493,1022,o),
(528,1054,qs),
(545,1069,o),
(545,1103,q),
(539,1102,o),
(527,1102,qs),
(431,1102,o),
(321,1233,o),
(321,1398,o),
(416,1508,o),
(584,1508,o),
(697,1402,o),
(708,1318,q),
(708,1310,ls),
(708,1264,o),
(638,1192,qs),
(615,1167,o),
(615,1160,o),
(649,1142,o),
(690,1118,o),
(724,1058,o),
(724,934,o),
(680,828,qs),
(547,510,o),
(61,24,q),
(56,12,o),
(56,-35,o),
(100,-76,o),
(160,-76,o),
(273,2,o),
(311,46,q),
(357,-70,o),
(477,-70,qs),
(509,-70,o),
(551,-62,qs),
(568,-59,o),
(614,-46,o),
(641,-38,o),
(761,0,o),
(796,0,qs),
(890,0,o),
(990,-74,q),
(1024,-64,o),
(1024,68,o),
(944,129,q),
(969,134,o),
(1035,176,qs),
(1067,197,o),
(1114,259,o),
(1114,291,qs),
(1114,343,o),
(1041,367,q),
(989,298,o)
);
}
);
width = 1164;
}
);
note = two;
unicode = 50;
},
{
glyphname = three;
layers = (
{
layerId = m01;
shapes = (
{
closed = 1;
nodes = (
(450,852,o),
(450,767,qs),
(450,732,o),
(474,686,o),
(506,686,o),
(574,705,o),
(655,705,o),
(730,594,o),
(730,473,o),
(697,410,o),
(656,385,o),
(623,366,o),
(623,360,o),
(644,340,qs),
(709,278,o),
(709,230,qs),
(709,135,o),
(575,7,o),
(415,7,o),
(336,122,o),
(336,288,o),
(429,420,o),
(515,426,q),
(515,434,ls),
(515,454,o),
(498,478,qs),
(488,493,o),
(440,512,o),
(342,512,o),
(276,477,q),
(275,541,o),
(180,664,o),
(118,664,qs),
(95,664,o),
(81,654,q),
(115,608,o),
(115,525,o),
(62,374,o),
(62,332,qs),
(62,233,o),
(144,75,o),
(282,-22,o),
(455,-74,o),
(665,-74,o),
(862,-3,o),
(995,117,o),
(1071,275,o),
(1071,468,o),
(956,675,o),
(839,761,q),
(952,846,o),
(1064,1052,o),
(1064,1157,qs),
(1064,1332,o),
(926,1457,qs),
(860,1516,o),
(667,1586,o),
(428,1586,o),
(316,1532,qs),
(257,1504,o),
(166,1423,o),
(111,1303,o),
(111,1182,o),
(159,1017,o),
(159,999,qs),
(159,948,o),
(119,901,q),
(137,890,o),
(158,890,qs),
(216,890,o),
(252,931,qs),
(269,949,o),
(294,986,o),
(310,1029,o),
(316,1047,o),
(318,1056,o),
(319,1056,o),
(322,1054,q),
(390,1022,o),
(441,1022,qs),
(501,1022,o),
(536,1054,qs),
(553,1069,o),
(553,1103,q),
(547,1102,o),
(535,1102,qs),
(439,1102,o),
(329,1233,o),
(329,1398,o),
(424,1508,o),
(592,1508,o),
(705,1402,o),
(716,1318,q),
(716,1310,ls),
(716,1264,o),
(646,1192,qs),
(623,1167,o),
(623,1160,o),
(657,1142,o),
(698,1118,o),
(732,1058,o),
(732,940,o),
(653,833,o),
(576,833,o),
(512,852,o),
(502,852,qs)
);
}
);
width = 1139;
}
);
note = three;
unicode = 51;
},
{
glyphname = four;
layers = (
{
layerId = m01;
shapes = (
{
closed = 1;
nodes = (
(531,1532,qs),
(518,1544,o),
(466,1562,o),
(392,1562,o),
(366,1542,qs),
(357,1534,o),
(343,1513,o),
(340,1505,o),
(339,1503,q),
(365,1476,o),
(420,1315,o),
(420,1140,o),
(390,1068,qs),
(193,586,l),
(189,581,o),
(152,537,o),
(142,525,o),
(111,485,o),
(101,467,o),
(90,449,qs),
(53,392,o),
(53,324,qs),
(53,246,o),
(142,246,qs),
(194,246,o),
(253,299,qs),
(284,326,o),
(298,360,q),
(345,246,o),
(445,246,qs),
(478,246,o),
(624,308,o),
(675,308,o),
(682,307,q),
(678,191,o),
(629,51,o),
(574,-13,q),
(578,-26,ls),
(582,-40,o),
(630,-67,o),
(696,-67,o),
(722,-58,qs),
(789,-36,o),
(820,10,q),
(836,-9,ls),
(853,-28,o),
(928,-67,o),
(996,-67,o),
(1016,-61,qs),
(1066,-45,o),
(1066,-13,q),
(1007,55,o),
(959,205,o),
(956,336,q),
(967,336,ls),
(1050,336,o),
(1146,246,q),
(1186,256,o),
(1186,317,qs),
(1186,368,o),
(1129,416,q),
(1151,428,o),
(1172,464,qs),
(1186,488,o),
(1186,532,o),
(1182,546,qs),
(1170,584,o),
(1146,584,q),
(1108,548,o),
(1025,515,o),
(958,515,qs),
(956,515,l),
(956,812,ls),
(956,953,o),
(994,1100,o),
(1046,1174,q),
(1040,1201,o),
(1002,1228,o),
(940,1228,o),
(912,1213,qs),
(843,1177,o),
(800,1091,q),
(798,1091,l),
(784,1110,ls),
(769,1130,o),
(704,1168,o),
(648,1168,o),
(632,1162,qs),
(592,1146,o),
(592,1114,q),
(644,1054,o),
(682,931,o),
(682,812,qs),
(684,515,l),
(443,516,o),
(278,516,q),
(311,607,ls),
(385,812,o),
(522,1108,qs),
(586,1249,o),
(736,1480,o),
(795,1515,qs),
(803,1519,o),
(803,1525,qs),
(803,1538,o),
(724,1565,o),
(692,1565,qs),
(586,1565,o),
(565,1477,q),
(558,1507,o)
);
}
);
width = 1243;
}
);
note = four;
unicode = 52;
},
{
glyphname = five;
layers = (
{
layerId = m01;
shapes = (
{
closed = 1;
nodes = (
(974,1122,q),
(991,1131,o),
(1004,1156,qs),
(1011,1169,o),
(1020,1219,o),
(1020,1268,o),
(1012,1285,qs),
(987,1334,o),
(943,1349,q),
(1020,1388,o),
(1020,1470,qs),
(1020,1490,o),
(1014,1506,qs),
(998,1546,o),
(966,1546,q),
(907,1506,o),
(771,1476,o),
(646,1476,q),
(127,1509,l),
(126,824,o),
(126,785,o),
(167,746,o),
(231,746,o),
(254,776,qs),
(299,835,o),
(439,907,o),
(600,907,o),
(719,777,o),
(719,643,qs),
(719,595,o),
(653,517,qs),
(631,491,o),
(631,483,o),
(644,474,qs),
(757,401,o),
(757,234,qs),
(757,126,o),
(631,13,o),
(462,13,o),
(339,105,o),
(339,239,o),
(397,351,o),
(449,351,qs),
(470,351,o),
(496,339,q),
(496,347,ls),
(496,381,o),
(482,426,qs),
(474,451,o),
(435,485,o),
(343,485,o),
(277,450,q),
(276,514,o),
(181,637,o),
(119,637,qs),
(96,637,o),
(82,627,q),
(116,581,o),
(116,499,o),
(63,355,o),
(63,315,qs),
(63,154,o),
(163,58,qs),
(299,-74,o),
(803,-74,o),
(931,78,qs),
(1053,224,o),
(1053,438,qs),
(1053,682,o),
(795,1000,o),
(591,1000,qs),
(441,1000,o),
(283,911,q),
(283,1266,l),
(356,1209,o),
(468,1209,q),
(778,1231,l),
(891,1231,o)
);
}
);
width = 1119;
}
);
note = five;
unicode = 53;
},
{
glyphname = six;
layers = (
{
layerId = m01;
shapes = (
{
closed = 1;
nodes = (
(980,1069,qs),
(1037,1173,o),
(1037,1267,qs),
(1037,1388,o),
(811,1552,o),
(496,1552,o),
(368,1454,qs),
(136,1276,o),
(136,860,q),
(140,728,ls),
(140,621,o),
(108,557,qs),
(95,531,o),
(69,494,o),
(50,474,o),
(50,467,o),
(77,450,o),
(110,422,o),
(137,339,o),
(137,277,qs),
(137,125,o),
(233,38,qs),
(277,-2,o),
(397,-57,o),
(526,-80,o),
(666,-80,o),
(791,-57,o),
(905,-3,o),
(987,78,o),
(1035,201,o),
(1035,339,o),
(1062,422,o),
(1095,450,o),
(1122,467,o),
(1122,474,o),
(1114,480,qs),
(1039,537,o),
(1025,672,qs),
(1010,812,o),
(774,972,o),
(605,972,qs),
(521,972,o),
(449,946,q),
(425,1038,o),
(425,1117,qs),
(425,1251,o),
(491,1328,qs),
(575,1427,o),
(708,1427,qs),
(824,1427,o),
(824,1360,qs),
(824,1328,o),
(742,1279,o),
(681,1279,o),
(662,1285,q),
(658,1275,o),
(658,1253,qs),
(658,1237,o),
(683,1208,qs),
(697,1192,o),
(759,1172,o),
(834,1172,o),
(857,1177,q),
(853,1128,l),
(853,1081,o),
(874,1032,qs),
(885,1004,o),
(934,969,o),
(974,969,o),
(980,970,q),
(974,1041,l),
(974,1057,o)
);
},
{
closed = 1;
nodes = (
(428,171,o),
(428,375,o),
(459,414,qs),
(472,431,o),
(497,450,o),
(515,458,o),
(515,464,o),
(507,468,qs),
(438,507,o),
(438,638,qs),
(438,734,o),
(523,832,o),
(678,832,o),
(764,733,o),
(764,549,o),
(730,510,qs),
(715,493,o),
(686,473,o),
(666,464,o),
(666,458,o),
(675,454,qs),
(754,414,o),
(754,282,qs),
(754,55,o),
(595,55,qs),
(516,55,o)
);
}
);
width = 1170;
}
);
note = six;
unicode = 54;
},
{
glyphname = seven;
layers = (
{
layerId = m01;
shapes = (
{
closed = 1;
nodes = (
(698,1557,qs),
(647,1557,o),
(408,1488,o),
(353,1488,qs),
(227,1488,o),
(95,1560,q),
(62,1550,o),
(62,1485,qs),
(62,1454,o),
(109,1380,o),
(139,1363,q),
(110,1341,o),
(80,1272,qs),
(62,1228,o),
(62,1133,o),
(93,1112,q),
(139,1180,o),
(222,1259,o),
(337,1304,o),
(575,1304,o),
(812,1305,q),
(757,1199,o),
(680,1103,qs),
(511,889,o),
(335,832,q),
(348,774,o),
(348,731,qs),
(348,565,o),
(161,67,o),
(90,-23,qs),
(79,-37,o),
(79,-47,qs),
(79,-67,o),
(174,-67,o),
(327,0,o),
(366,51,q),
(394,-10,o),
(510,-67,o),
(636,-67,o),
(636,-44,q),
(635,-40,l),
(558,110,o),
(558,379,o),
(622,623,o),
(815,1042,o),
(1066,1472,qs),
(1074,1486,o),
(1074,1524,o),
(1031,1561,o),
(1011,1561,qs),
(945,1561,o),
(847,1438,q),
(809,1557,o)
);
}
);
width = 1120;
}
);
note = seven;
unicode = 55;
},
{
glyphname = eight;
layers = (
{
layerId = m01;
shapes = (
{
closed = 1;
nodes = (
(216,675,o),
(63,426,o),
(63,137,o),
(174,30,qs),
(292,-85,o),
(511,-85,qs),
(689,-85,o),
(817,-20,qs),
(1038,92,o),
(1038,347,qs),
(1038,711,o),
(682,872,q),
(810,936,o),
(971,1140,o),
(971,1358,o),
(913,1436,qs),
(801,1585,o),
(570,1585,qs),
(390,1585,o),
(246,1484,qs),
(177,1436,o),
(94,1282,o),
(94,1054,o),
(233,829,o),
(358,750,q)
);
},
{
closed = 1;
nodes = (
(587,31,o),
(446,31,o),
(342,124,o),
(342,262,o),
(390,320,qs),
(405,339,o),
(405,345,o),
(373,377,o),
(341,437,o),
(341,511,o),
(355,567,qs),
(360,591,o),
(400,671,qs),
(417,704,l),
(506,659,o),
(576,600,qs),
(689,504,o),
(689,318,qs),
(689,174,o)
);
},
{
closed = 1;
nodes = (
(742,1409,o),
(742,1297,o),
(684,1258,qs),
(665,1244,o),
(665,1239,o),
(680,1225,o),
(702,1202,o),
(723,1172,o),
(738,1129,o),
(738,1088,o),
(732,1066,qs),
(729,1057,o),
(716,1033,o),
(708,1019,o),
(689,994,o),
(681,983,o),
(656,956,o),
(644,942,o),
(621,919,q),
(489,1003,o),
(405,1145,o),
(405,1370,o),
(510,1477,o),
(646,1477,o)
);
}
);
width = 1096;
}
);
note = eight;
unicode = 56;
},
{
glyphname = nine;
layers = (
{
layerId = m01;
shapes = (
{
closed = 1;
nodes = (
(189,403,qs),
(132,299,o),
(132,205,qs),
(132,84,o),
(358,-80,o),
(673,-80,o),
(800,18,qs),
(1033,196,o),
(1033,612,q),
(1029,744,ls),
(1029,851,o),
(1061,915,qs),
(1074,941,o),
(1100,978,o),
(1119,997,o),
(1119,1005,o),
(1092,1022,o),
(1059,1050,o),
(1032,1133,o),
(1032,1195,qs),
(1032,1347,o),
(936,1434,qs),
(892,1474,o),
(772,1529,o),
(643,1552,o),
(503,1552,o),
(378,1529,o),
(264,1475,o),
(182,1394,o),
(134,1271,o),
(134,1133,o),
(107,1050,o),
(74,1022,o),
(47,1005,o),
(47,998,o),
(55,992,qs),
(130,935,o),
(144,800,qs),
(159,660,o),
(395,500,o),
(564,500,qs),
(648,500,o),
(720,526,q),
(744,434,o),
(744,355,qs),
(744,221,o),
(678,144,qs),
(594,45,o),
(461,45,qs),
(345,45,o),
(345,112,qs),
(345,144,o),
(427,193,o),
(488,193,o),
(507,187,q),
(511,197,o),
(511,219,qs),
(511,235,o),
(486,264,qs),
(472,280,o),
(410,300,o),
(335,300,o),
(312,295,q),
(316,344,l),
(316,391,o),
(296,440,qs),
(284,468,o),
(235,503,o),
(195,503,o),
(189,502,q),
(195,431,l),
(195,415,o)
);
},
{
closed = 1;
nodes = (
(741,1301,o),
(741,1098,o),
(710,1058,qs),
(698,1041,o),
(672,1022,o),
(654,1014,o),
(654,1008,o),
(662,1004,qs),
(731,965,o),
(731,834,qs),
(731,738,o),
(646,640,o),
(491,640,o),
(405,739,o),
(405,923,o),
(440,962,qs),
(454,979,o),
(483,999,o),
(503,1008,o),
(503,1014,o),
(494,1018,qs),
(415,1058,o),
(415,1190,qs),
(415,1417,o),
(574,1417,qs),
(653,1417,o)
);
}
);
width = 1168;
}
);
note = nine;
unicode = 57;
},
{
glyphname = fraction;
layers = (
{
layerId = m01;
shapes = (
{
closed = 1;
nodes = (
(1175,1330,l),
(1047,1330,l),
(49,-16,l),
(178,-16,l)
);
}
);
width = 1225;
}
);
note = fraction;
unicode = 8260;
},
{
glyphname = onehalf;
layers = (
{
layerId = m01;
shapes = (
{
closed = 1;
nodes = (
(1133,1259,o),
(1293,1534,o),
(1358,1580,q),
(1358,1580,o),
(1370,1601,o),
(1370,1609,qs),
(1370,1639,o),
(1252,1639,o),
(1215,1618,qs),
(1200,1609,o),
(1178,1591,o),
(1167,1579,o),
(1166,1579,o),
(1166,1582,qs),
(1166,1596,ls),
(1166,1639,o),
(1042,1639,o),
(1022,1626,qs),
(1012,1620,o),
(1004,1604,o),
(1004,1581,o),
(1014,1545,o),
(1023,1504,o),
(1023,1436,o),
(1005,1368,qs),
(937,1107,o),
(710,763,q),
(717,696,l),
(717,595,o),
(600,271,o),
(437,-9,o),
(372,-57,qs),
(370,-58,o),
(361,-79,o),
(361,-86,qs),
(361,-117,o),
(424,-117,qs),
(453,-117,o),
(477,-110,qs),
(538,-92,o),
(554,-52,q),
(554,-57,o),
(554,-70,o),
(560,-80,qs),
(584,-117,o),
(658,-117,qs),
(744,-117,o),
(744,-78,qs),
(744,-66,o),
(721,10,o),
(721,35,qs),
(721,142,o),
(858,490,o),
(902,573,qs),
(922,609,o),
(959,670,o),
(986,707,o),
(1009,738,o),
(1031,768,o),
(1031,787,q),
(1023,855,l),
(1023,948,o)
);
},
{
closed = 1;
nodes = (
(495,393,qs),
(538,406,o),
(540,436,q),
(485,493,o),
(442,625,o),
(442,878,o),
(465,940,qs),
(475,966,o),
(497,1002,o),
(517,1015,o),
(530,1026,o),
(530,1041,o),
(512,1049,qs),
(505,1053,o),
(486,1066,o),
(467,1099,o),
(452,1151,o),
(442,1244,o),
(442,1417,o),
(484,1536,o),
(540,1590,q),
(538,1598,o),
(532,1608,qs),
(529,1613,o),
(516,1623,o),
(499,1631,o),
(471,1637,o),
(432,1637,o),
(410,1629,qs),
(358,1611,o),
(332,1569,q),
(289,1637,o),
(210,1637,qs),
(188,1637,o),
(171,1632,qs),
(128,1619,o),
(126,1590,q),
(182,1536,o),
(224,1417,o),
(224,1183,o),
(206,1125,qs),
(199,1099,o),
(180,1066,o),
(161,1053,o),
(146,1046,o),
(136,1038,o),
(136,1025,o),
(154,1012,qs),
(161,1006,o),
(180,987,o),
(199,949,o),
(214,894,o),
(224,804,o),
(224,664,o),
(214,608,qs),
(197,509,o),
(126,436,q),
(128,427,o),
(134,417,qs),
(137,412,o),
(150,401,o),
(167,393,o),
(194,388,o),
(234,388,o),
(255,395,qs),
(308,413,o),
(332,456,q),
(377,388,o),
(454,388,qs),
(477,388,o)
);
},
{
closed = 1;
nodes = (
(2013,134,qs),
(2096,184,o),
(2096,239,qs),
(2096,284,o),
(2036,300,q),
(1994,244,o),
(1905,198,o),
(1832,198,qs),
(1558,203,l),
(1714,347,o),
(1823,459,qs),
(1897,536,o),
(1964,637,qs),
(2048,766,o),
(2048,932,qs),
(2048,1071,o),
(1938,1171,qs),
(1886,1219,o),
(1731,1275,o),
(1539,1275,o),
(1450,1232,qs),
(1403,1209,o),
(1331,1145,o),
(1286,1049,o),
(1286,952,o),
(1324,819,o),
(1324,764,o),
(1292,727,q),
(1304,718,o),
(1324,718,qs),
(1375,718,o),
(1409,761,qs),
(1422,777,o),
(1443,822,o),
(1449,841,o),
(1451,851,o),
(1451,851,q),
(1453,843,o),
(1504,830,qs),
(1528,824,o),
(1594,824,o),
(1622,846,qs),
(1640,860,o),
(1640,888,qs),
(1640,889,l),
(1634,888,o),
(1626,888,qs),
(1549,888,o),
(1460,992,o),
(1460,1124,o),
(1537,1213,o),
(1671,1213,o),
(1762,1128,o),
(1770,1061,q),
(1770,1054,ls),
(1770,1017,o),
(1714,959,qs),
(1696,939,o),
(1696,934,o),
(1714,925,o),
(1727,918,qs),
(1784,885,o),
(1784,819,qs),
(1784,707,o),
(1693,559,qs),
(1549,319,o),
(1252,25,q),
(1248,14,o),
(1248,-22,o),
(1284,-55,o),
(1321,-55,o),
(1398,-18,o),
(1452,43,q),
(1489,-50,o),
(1585,-50,qs),
(1634,-50,o),
(1770,-8,qs),
(1816,6,o),
(1840,6,qs),
(1916,6,o),
(1996,-53,q),
(2024,-44,o),
(2024,63,o),
(1960,109,q),
(1977,112,o)
);
}
);
width = 1979;
}
);
note = onehalf;
unicode = 189;
},
{
glyphname = onequarter;
layers = (
{
layerId = m01;
shapes = (
{
closed = 1;
nodes = (
(1133,1259,o),
(1293,1534,o),
(1358,1580,q),
(1358,1580,o),
(1370,1601,o),
(1370,1609,qs),
(1370,1639,o),
(1252,1639,o),
(1215,1618,qs),
(1200,1609,o),
(1178,1591,o),
(1167,1579,o),
(1166,1579,o),
(1166,1582,qs),
(1166,1596,ls),
(1166,1639,o),
(1042,1639,o),
(1022,1626,qs),
(1012,1620,o),
(1004,1604,o),
(1004,1581,o),
(1014,1545,o),
(1023,1504,o),
(1023,1436,o),
(1005,1368,qs),
(937,1107,o),
(710,763,q),
(717,696,l),
(717,595,o),
(600,271,o),
(437,-9,o),
(372,-57,qs),
(370,-58,o),
(361,-79,o),
(361,-86,qs),
(361,-117,o),
(424,-117,qs),
(453,-117,o),
(477,-110,qs),
(538,-92,o),
(554,-52,q),
(554,-57,o),
(554,-70,o),
(560,-80,qs),
(584,-117,o),
(658,-117,qs),
(744,-117,o),
(744,-78,qs),
(744,-66,o),
(721,10,o),
(721,35,qs),
(721,142,o),
(858,490,o),
(902,573,qs),
(922,609,o),
(959,670,o),
(986,707,o),
(1009,738,o),
(1031,768,o),
(1031,787,q),
(1023,855,l),
(1023,948,o)
);
},
{
closed = 1;
nodes = (
(495,393,qs),
(538,406,o),
(540,436,q),
(485,493,o),
(442,625,o),
(442,878,o),
(465,940,qs),
(475,966,o),
(497,1002,o),
(517,1015,o),
(530,1026,o),
(530,1041,o),
(512,1049,qs),
(505,1053,o),
(486,1066,o),
(467,1099,o),
(452,1151,o),
(442,1244,o),
(442,1417,o),
(484,1536,o),
(540,1590,q),
(538,1598,o),
(532,1608,qs),
(529,1613,o),
(516,1623,o),
(499,1631,o),
(471,1637,o),
(432,1637,o),
(410,1629,qs),
(358,1611,o),
(332,1569,q),
(289,1637,o),
(210,1637,qs),
(188,1637,o),
(171,1632,qs),
(128,1619,o),
(126,1590,q),
(182,1536,o),
(224,1417,o),
(224,1183,o),
(206,1125,qs),
(199,1099,o),
(180,1066,o),
(161,1053,o),
(146,1046,o),
(136,1038,o),
(136,1025,o),
(154,1012,qs),
(161,1006,o),
(180,987,o),
(199,949,o),
(214,894,o),
(224,804,o),
(224,664,o),
(214,608,qs),
(197,509,o),
(126,436,q),
(128,427,o),
(134,417,qs),
(137,412,o),
(150,401,o),
(167,393,o),
(194,388,o),
(234,388,o),
(255,395,qs),
(308,413,o),
(332,456,q),
(377,388,o),
(454,388,qs),
(477,388,o)
);
},
{
closed = 1;
nodes = (
(1482,937,o),
(1479,894,q),
(1521,846,o),
(1551,748,o),
(1551,653,qs),
(1553,415,l),
(1360,416,o),
(1228,416,q),
(1254,488,ls),
(1316,658,o),
(1422,890,qs),
(1474,1002,o),
(1594,1187,o),
(1641,1215,qs),
(1647,1218,o),
(1647,1222,qs),
(1647,1233,o),
(1585,1255,o),
(1559,1255,qs),
(1474,1255,o),
(1457,1185,q),
(1455,1196,o),
(1446,1211,qs),
(1441,1219,o),
(1425,1233,o),
(1404,1245,o),
(1371,1253,o),
(1335,1253,o),
(1320,1247,qs),
(1285,1234,o),
(1277,1205,q),
(1298,1183,o),
(1341,1055,o),
(1341,915,o),
(1317,857,qs),
(1160,472,l),
(1121,425,o),
(1115,417,qs),
(1048,332,o),
(1048,262,qs),
(1048,200,o),
(1119,200,qs),
(1135,200,o),
(1150,205,qs),
(1210,224,o),
(1244,291,q),
(1282,200,o),
(1361,200,qs),
(1388,200,o),
(1504,249,o),
(1534,249,qs),
(1551,249,l),
(1547,155,o),
(1509,44,o),
(1465,-7,q),
(1466,-16,o),
(1471,-23,qs),
(1490,-51,o),
(1541,-51,qs),
(1616,-51,o),
(1661,11,q),
(1710,-51,o),
(1855,-51,o),
(1858,-7,q),
(1811,47,o),
(1772,167,o),
(1770,272,q),
(1779,272,ls),
(1846,272,o),
(1922,200,q),
(1933,202,o),
(1943,214,qs),
(1947,219,o),
(1954,242,o),
(1954,274,o),
(1947,289,qs),
(1944,296,o),
(1936,309,o),
(1928,318,o),
(1920,327,o),
(1914,332,o),
(1909,335,o),
(1914,338,o),
(1923,346,qs),
(1954,374,o),
(1954,414,qs),
(1954,466,o),
(1922,470,q),
(1866,415,o),
(1772,415,qs),
(1770,415,l),
(1770,653,ls),
(1770,765,o),
(1800,882,o),
(1842,942,q),
(1837,963,o),
(1807,985,o),
(1757,985,o),
(1734,973,qs),
(1677,943,o),
(1645,876,q),
(1644,876,l),
(1603,937,o)
);
}
);
width = 2229;
}
);
note = onequarter;
unicode = 188;
},
{
glyphname = threequarters;
layers = (
{
layerId = m01;
shapes = (
{
closed = 1;
nodes = (
(1524,1259,o),
(1684,1534,o),
(1749,1580,q),
(1749,1581,o),
(1761,1600,o),
(1761,1609,qs),
(1761,1639,o),
(1643,1639,o),
(1606,1618,qs),
(1591,1609,o),
(1569,1591,o),
(1558,1579,o),
(1557,1579,o),
(1557,1582,qs),
(1557,1596,ls),
(1557,1639,o),
(1395,1639,o),
(1395,1593,qs),
(1395,1580,o),
(1406,1539,qs),
(1414,1509,o),
(1414,1488,qs),
(1414,1289,o),
(1177,887,qs),
(1101,763,l),
(1108,696,o),
(1108,696,q),
(1108,595,o),
(991,271,o),
(828,-9,o),
(763,-57,qs),
(752,-65,o),
(752,-86,qs),
(752,-117,o),
(815,-117,qs),
(844,-117,o),
(868,-110,qs),
(929,-92,o),
(945,-52,q),
(945,-57,o),
(945,-70,o),
(951,-80,qs),
(975,-117,o),
(1049,-117,qs),
(1135,-117,o),
(1135,-78,qs),
(1135,-66,o),
(1112,10,o),
(1112,35,qs),
(1112,142,o),
(1275,556,o),
(1339,652,qs),
(1364,690,o),
(1422,766,o),
(1422,787,q),
(1414,855,l),
(1414,948,o)
);
},
{
closed = 1;
nodes = (
(1903,928,q),
(1896,925,o),
(1887,915,o),
(1882,907,o),
(1880,898,o),
(1879,894,o),
(1907,861,o),
(1951,774,o),
(1951,653,qs),
(1953,415,l),
(1760,416,o),
(1628,416,q),
(1654,488,ls),
(1716,658,o),
(1822,890,qs),
(1874,1002,o),
(1994,1187,o),
(2041,1215,qs),
(2047,1218,o),
(2047,1222,qs),
(2047,1233,o),
(1985,1255,o),
(1959,1255,qs),
(1874,1255,o),
(1857,1185,q),
(1855,1196,o),
(1846,1211,qs),
(1841,1219,o),
(1825,1233,o),
(1804,1245,o),
(1771,1253,o),
(1735,1253,o),
(1720,1247,qs),
(1685,1234,o),
(1677,1205,q),
(1698,1183,o),
(1741,1055,o),
(1741,915,o),
(1717,857,qs),
(1560,472,l),
(1556,467,o),
(1552,462,qs),
(1550,460,o),
(1504,405,o),
(1472,355,qs),
(1448,317,o),
(1448,262,qs),
(1448,200,o),
(1519,200,qs),
(1535,200,o),
(1550,205,qs),
(1610,224,o),
(1644,291,q),
(1682,200,o),
(1761,200,qs),
(1788,200,o),
(1904,249,o),
(1934,249,qs),
(1951,249,l),
(1947,155,o),
(1909,44,o),
(1865,-7,q),
(1866,-16,o),
(1871,-23,qs),
(1890,-51,o),
(1941,-51,qs),
(2016,-51,o),
(2061,11,q),
(2110,-51,o),
(2255,-51,o),
(2258,-7,q),
(2211,47,o),
(2172,167,o),
(2170,272,q),
(2179,272,ls),
(2246,272,o),
(2322,200,q),
(2333,202,o),
(2343,214,qs),
(2347,219,o),
(2354,242,o),
(2354,276,o),
(2345,293,qs),
(2341,301,o),
(2332,314,o),
(2323,324,o),
(2315,331,o),
(2309,336,o),
(2314,338,o),
(2323,346,qs),
(2354,374,o),
(2354,414,qs),
(2354,466,o),
(2322,470,q),
(2266,415,o),
(2172,415,qs),
(2170,415,l),
(2170,653,ls),
(2170,765,o),
(2200,882,o),
(2242,942,q),
(2237,963,o),
(2207,985,o),
(2164,985,o),
(2147,978,qs),
(2082,955,o),
(2045,876,q),
(2044,876,l),
(2003,937,o),
(1940,937,qs),
(1917,937,o)
);
},
{
closed = 1;
nodes = (
(526,934,o),
(590,934,o),
(650,845,o),
(650,727,o),
(620,699,qs),
(608,687,o),
(582,672,o),
(564,663,o),
(564,658,o),
(582,641,qs),
(634,592,o),
(634,554,qs),
(634,478,o),
(527,376,o),
(399,376,o),
(336,467,o),
(336,601,o),
(410,706,o),
(478,710,q),
(478,716,ls),
(478,732,o),
(465,752,qs),
(457,764,o),
(419,780,o),
(341,780,o),
(288,752,q),
(287,792,o),
(262,832,qs),
(251,851,o),
(220,882,o),
(181,900,o),
(143,900,o),
(132,892,q),
(158,856,o),
(158,789,o),
(116,669,o),
(116,636,qs),
(116,476,o),
(237,391,qs),
(351,310,o),
(506,310,qs),
(693,310,o),
(810,415,qs),
(924,517,o),
(924,660,qs),
(924,842,o),
(738,978,q),
(918,1114,o),
(918,1296,qs),
(918,1435,o),
(807,1535,qs),
(755,1582,o),
(600,1638,o),
(408,1638,o),
(319,1596,qs),
(272,1573,o),
(200,1509,o),
(156,1413,o),
(156,1316,o),
(194,1183,o),
(194,1128,o),
(162,1090,q),
(175,1082,o),
(192,1082,qs),
(244,1082,o),
(278,1124,qs),
(291,1141,o),
(312,1186,o),
(318,1205,o),
(320,1215,o),
(321,1215,o),
(332,1209,o),
(352,1201,o),
(375,1193,o),
(406,1188,o),
(446,1188,o),
(464,1194,qs),
(508,1210,o),
(508,1252,q),
(504,1252,o),
(494,1252,qs),
(418,1252,o),
(330,1356,o),
(330,1512,o),
(395,1554,qs),
(429,1576,o),
(540,1576,o),
(631,1492,o),
(640,1424,q),
(640,1418,ls),
(640,1386,o),
(602,1344,qs),
(588,1329,o),
(564,1303,o),
(564,1298,o),
(583,1289,o),
(596,1281,qs),
(652,1249,o),
(652,1182,qs),
(652,1098,o),
(599,1055,qs),
(576,1036,o),
(528,1036,o),
(477,1052,o),
(468,1052,qs),
(426,1052,o),
(426,918,o),
(462,918,qs),
(471,918,o)
);
}
);
width = 2467;
}
);
note = threequarters;
unicode = 190;
},
{
glyphname = uni00B9;
layers = (
{
layerId = m01;
shapes = (
{
closed = 1;
nodes = (
(80,285,o),
(97,270,qs),
(105,263,o),
(139,253,o),
(198,253,o),
(273,294,o),
(293,321,q),
(308,304,ls),
(323,287,o),
(389,253,o),
(448,253,o),
(465,258,qs),
(510,271,o),
(510,301,q),
(455,358,o),
(413,490,o),
(413,708,o),
(440,839,o),
(473,883,o),
(500,911,o),
(500,926,o),
(482,942,o),
(456,972,o),
(431,1027,o),
(413,1147,o),
(413,1343,o),
(455,1461,o),
(510,1515,q),
(507,1532,o),
(490,1545,qs),
(482,1552,o),
(448,1562,o),
(402,1562,o),
(380,1554,qs),
(320,1535,o),
(293,1494,q),
(278,1511,ls),
(264,1528,o),
(198,1562,o),
(138,1562,o),
(121,1557,qs),
(77,1544,o),
(77,1515,q),
(132,1461,o),
(174,1343,o),
(174,1065,o),
(143,1000,qs),
(130,972,o),
(105,942,o),
(87,926,o),
(87,911,o),
(114,883,o),
(147,839,o),
(174,708,o),
(174,490,o),
(132,358,o),
(77,301,q)
);
}
);
width = 650;
}
);
note = uni00B9;
unicode = 185;
},
{
glyphname = uni00B2;
layers = (
{
layerId = m01;
shapes = (
{
closed = 1;
nodes = (
(650,690,qs),
(826,863,o),
(883,970,qs),
(954,1102,o),
(954,1243,qs),
(954,1384,o),
(726,1586,o),
(547,1586,qs),
(422,1586,o),
(312,1520,qs),
(259,1487,o),
(192,1374,o),
(192,1263,o),
(230,1130,o),
(230,1076,o),
(198,1038,q),
(212,1029,o),
(229,1029,qs),
(280,1029,o),
(314,1072,qs),
(327,1088,o),
(349,1133,o),
(355,1153,o),
(357,1162,o),
(357,1162,o),
(364,1159,o),
(374,1154,o),
(388,1149,o),
(406,1143,o),
(424,1138,o),
(446,1135,o),
(482,1135,o),
(500,1142,qs),
(545,1159,o),
(545,1192,qs),
(545,1200,l),
(540,1199,o),
(531,1199,qs),
(454,1199,o),
(366,1303,o),
(366,1435,o),
(442,1524,o),
(577,1524,o),
(668,1439,o),
(676,1372,q),
(676,1365,ls),
(676,1330,o),
(620,1270,qs),
(601,1251,o),
(601,1246,o),
(632,1229,qs),
(645,1222,o),
(671,1199,o),
(689,1157,o),
(689,1065,o),
(654,980,qs),
(543,716,o),
(158,336,q),
(154,325,o),
(154,289,o),
(189,256,o),
(237,256,o),
(321,314,o),
(358,354,q),
(395,261,o),
(491,261,qs),
(516,261,o),
(546,267,qs),
(559,269,o),
(588,277,o),
(615,285,o),
(643,293,o),
(717,317,o),
(746,317,qs),
(821,317,o),
(901,258,q),
(929,267,o),
(929,374,o),
(865,420,q),
(892,426,o),
(1001,503,o),
(1001,550,qs),
(1001,575,o),
(980,591,qs),
(973,597,o),
(952,608,o),
(944,610,o),
(942,611,q),
(900,556,o),
(811,509,o),
(737,509,qs),
(464,514,l),
(583,624,o)
);
}
);
width = 1164;
}
);
note = uni00B2;
unicode = 178;
},
{
glyphname = uni00B3;
layers = (
{
layerId = m01;
shapes = (
{
closed = 1;
nodes = (
(570,881,o),
(635,881,o),
(695,793,o),
(695,685,o),
(652,631,o),
(609,610,o),
(609,605,o),
(626,589,qs),
(678,542,o),
(678,501,qs),
(678,425,o),
(571,323,o),
(443,323,o),
(380,415,o),
(380,548,o),
(454,654,o),
(523,658,q),
(523,664,ls),
(523,678,o),
(510,700,qs),
(502,712,o),
(463,727,o),
(385,727,o),
(332,699,q),
(331,750,o),
(255,848,o),
(205,848,qs),
(187,848,o),
(176,840,q),
(203,804,o),
(203,736,o),
(161,616,o),
(161,583,qs),
(161,479,o),
(218,403,qs),
(327,258,o),
(551,258,qs),
(734,258,o),
(968,463,o),
(968,607,qs),
(968,789,o),
(782,926,q),
(962,1062,o),
(962,1243,qs),
(962,1384,o),
(734,1586,o),
(555,1586,qs),
(430,1586,o),
(320,1520,qs),
(267,1487,o),
(200,1374,o),
(200,1263,o),
(238,1130,o),
(238,1076,o),
(206,1038,q),
(222,1029,o),
(237,1029,qs),
(288,1029,o),
(322,1072,qs),
(335,1088,o),
(357,1133,o),
(363,1153,o),
(365,1162,o),
(365,1162,o),
(372,1159,o),
(382,1154,o),
(396,1149,o),
(414,1143,o),
(432,1138,o),
(454,1135,o),
(490,1135,o),
(508,1142,qs),
(553,1159,o),
(553,1192,qs),
(553,1200,l),
(548,1199,o),
(539,1199,qs),
(462,1199,o),
(374,1303,o),
(374,1435,o),
(450,1524,o),
(585,1524,o),
(676,1439,o),
(684,1372,q),
(684,1365,ls),
(684,1330,o),
(628,1270,qs),
(609,1251,o),
(609,1246,o),
(640,1229,qs),
(653,1222,o),
(679,1199,o),
(697,1157,o),
(697,1069,o),
(634,984,o),
(572,984,o),
(522,999,o),
(513,999,qs),
(471,999,o),
(471,866,o),
(507,866,qs),
(516,866,o)
);
}
);
width = 1139;
}
);
note = uni00B3;
unicode = 179;
},
{
glyphname = uni2074;
layers = (
{
layerId = m01;
shapes = (
{
closed = 1;
nodes = (
(644,1242,qs),
(612,1231,o),
(612,1204,q),
(654,1156,o),
(684,1058,o),
(684,963,qs),
(686,725,l),
(493,726,o),
(361,726,q),
(387,798,ls),
(444,958,o),
(556,1200,qs),
(607,1312,o),
(727,1497,o),
(774,1525,q),
(794,1539,o),
(749,1554,qs),
(718,1565,o),
(692,1565,qs),
(608,1565,o),
(590,1495,q),
(585,1519,o),
(564,1539,qs),
(553,1549,o),
(512,1563,o),
(451,1563,o),
(432,1546,qs),
(424,1540,o),
(413,1523,o),
(411,1517,o),
(410,1515,q),
(431,1493,o),
(474,1365,o),
(474,1225,o),
(450,1167,qs),
(293,782,l),
(282,767,o),
(260,742,qs),
(256,738,o),
(233,709,o),
(226,697,o),
(208,670,o),
(201,655,o),
(181,612,o),
(181,572,qs),
(181,510,o),
(252,510,qs),
(274,510,o),
(295,520,qs),
(349,546,o),
(377,601,q),
(415,510,o),
(494,510,qs),
(520,510,o),
(638,559,o),
(667,559,qs),
(684,559,l),
(680,466,o),
(642,354,o),
(598,303,q),
(604,281,o),
(642,259,o),
(674,259,qs),
(753,259,o),
(794,321,q),
(808,306,ls),
(821,290,o),
(881,259,o),
(935,259,o),
(950,264,qs),
(991,277,o),
(991,303,q),
(944,357,o),
(905,477,o),
(903,582,q),
(912,582,ls),
(979,582,o),
(1055,510,q),
(1063,512,ls),
(1087,520,o),
(1087,576,qs),
(1087,608,o),
(1042,646,q),
(1059,653,o),
(1076,684,qs),
(1087,703,o),
(1087,748,o),
(1066,780,o),
(1055,780,q),
(998,725,o),
(905,725,qs),
(903,725,l),
(903,963,ls),
(903,1076,o),
(933,1193,o),
(975,1252,q),
(970,1274,o),
(940,1295,o),
(890,1295,o),
(867,1283,qs),
(812,1254,o),
(778,1186,q),
(777,1186,l),
(730,1247,o),
(673,1247,qs),
(657,1247,o)
);
}
);
width = 1243;
}
);
note = uni2074;
unicode = 8308;
},
{
glyphname = .notdef;
layers = (
{
layerId = m01;
shapes = (
{
closed = 1;
nodes = (
(612,1365,l),
(68,1365,l),
(68,0,l),
(612,0,l)
);
},
{
closed = 1;
nodes = (
(544,1297,l),
(544,68,l),
(136,68,l),
(136,1297,l)
);
}
);
width = 748;
}
);
note = ".notdef";
},
{
glyphname = period;
layers = (
{
layerId = m01;
shapes = (
{
closed = 1;
nodes = (
(54,141,o),
(54,135,q),
(266,-48,l),
(477,142,l),
(266,326,o),
(266,326,q),
(257,326,o)
);
}
);
width = 529;
}
);
note = period;
unicode = 46;
},
{
glyphname = comma;
layers = (
{
layerId = m01;
shapes = (
{
closed = 1;
nodes = (
(385,-112,o),
(385,124,o),
(358,224,q),
(293,259,o),
(177,259,o),
(102,216,o),
(86,183,q),
(86,79,o),
(148,-3,q),
(220,-3,o),
(256,13,q),
(258,13,l),
(258,-75,o),
(177,-169,o),
(96,-189,q),
(96,-283,l),
(230,-271,o)
);
}
);
width = 470;
}
);
note = comma;
unicode = 44;
},
{
glyphname = colon;
layers = (
{
layerId = m01;
shapes = (
{
closed = 1;
nodes = (
(13,141,o),
(13,135,q),
(225,-48,l),
(436,142,l),
(225,326,o),
(225,326,q),
(216,326,o)
);
},
{
closed = 1;
nodes = (
(13,821,o),
(13,815,q),
(13,815,o),
(225,632,o),
(225,632,q),
(436,822,l),
(436,822,o),
(225,1006,o),
(225,1006,q),
(216,1006,o)
);
}
);
width = 441;
}
);
note = colon;
unicode = 58;
},
{
glyphname = semicolon;
layers = (
{
layerId = m01;
shapes = (
{
closed = 1;
nodes = (
(13,821,o),
(13,815,q),
(13,815,o),
(225,632,o),
(225,632,q),
(436,822,l),
(436,822,o),
(225,1006,o),
(225,1006,q),
(216,1006,o)
);
},
{
closed = 1;
nodes = (
(378,-112,o),
(378,124,o),
(351,224,q),
(286,259,o),
(170,259,o),
(95,216,o),
(79,183,q),
(79,79,o),
(141,-3,q),
(213,-3,o),
(249,13,q),
(251,13,l),
(251,-75,o),
(170,-169,o),
(89,-189,q),
(89,-283,l),
(223,-271,o)
);
}
);
width = 459;
}
);
note = semicolon;
unicode = 59;
},
{
glyphname = ellipsis;
layers = (
{
layerId = m01;
shapes = (
{
closed = 1;
nodes = (
(361,60,q),
(361,187,o),
(285,259,q),
(158,259,o),
(86,183,q),
(86,56,o),
(162,-16,q),
(289,-16,o)
);
},
{
closed = 1;
nodes = (
(1043,60,q),
(1043,187,o),
(967,259,q),
(840,259,o),
(768,183,q),
(768,56,o),
(844,-16,q),
(971,-16,o)
);
},
{
closed = 1;
nodes = (
(1725,60,q),
(1725,187,o),
(1649,259,q),
(1522,259,o),
(1450,183,q),
(1450,56,o),
(1526,-16,q),
(1653,-16,o)
);
}
);
width = 1809;
}
);
note = ellipsis;
unicode = 8230;
},
{
glyphname = exclam;
layers = (
{
layerId = m01;
shapes = (
{
closed = 1;
nodes = (
(305,1510,q),
(270,1558,o),
(207,1579,qs),
(181,1587,o),
(136,1587,o),
(106,1581,o),
(86,1571,o),
(72,1560,o),
(64,1548,o),
(62,1544,qs),
(59,1537,o),
(59,1533,q),
(127,1438,o),
(143,1309,qs),
(151,1247,o),
(167,1069,o),
(177,968,o),
(192,865,qs),
(231,590,o),
(266,470,q),
(293,404,o),
(305,397,q),
(356,397,o),
(419,863,qs),
(436,992,o),
(453,1187,o),
(460,1257,o),
(473,1358,o),
(484,1400,o),
(495,1431,qs),
(510,1475,o),
(551,1533,q),
(548,1567,o),
(500,1581,qs),
(481,1587,o),
(455,1587,qs),
(366,1587,o)
);
},
{
closed = 1;
nodes = (
(513,60,o),
(513,60,q),
(302,250,l),
(302,250,o),
(91,67,o),
(91,67,q),
(91,61,o),
(294,-124,o),
(303,-124,q),
(303,-124,o)
);
}
);
width = 611;
}
);
note = exclam;
unicode = 33;
},
{
glyphname = exclamdown;
layers = (
{
layerId = m01;
shapes = (
{
closed = 1;
nodes = (
(500,-118,qs),
(548,-104,o),
(551,-70,q),
(510,-12,o),
(495,32,qs),
(484,63,o),
(473,105,o),
(460,206,o),
(453,276,o),
(436,471,o),
(419,600,qs),
(356,1066,o),
(305,1066,qs),
(270,1066,o),
(213,738,qs),
(182,558,o),
(167,397,qs),
(167,393,o),
(166,383,o),
(166,376,o),
(165,366,o),
(164,360,o),
(151,216,o),
(143,154,qs),
(127,25,o),
(59,-70,q),
(63,-89,o),
(82,-105,qs),
(91,-113,o),
(130,-124,o),
(181,-124,o),
(207,-116,qs),
(270,-95,o),
(305,-47,q),
(366,-124,o),
(455,-124,qs),
(481,-124,o)
);
},
{
closed = 1;
nodes = (
(91,1396,o),
(302,1213,o),
(302,1213,q),
(513,1403,l),
(513,1403,o),
(303,1587,o),
(297,1587,o),
(192,1494,o),
(91,1399,o)
);
}
);
width = 611;
}
);
note = exclamdown;
unicode = 161;
},
{
glyphname = question;
layers = (
{
layerId = m01;
shapes = (
{
closed = 1;
nodes = (
(531,914,qs),
(505,914,o),
(423,943,o),
(411,943,o),
(404,918,qs),
(377,831,o),
(328,782,o),
(303,747,o),
(285,709,o),
(272,669,o),
(269,648,qs),
(262,608,o),
(262,523,o),
(274,430,o),
(286,368,o),
(286,330,o),
(329,295,o),
(374,295,o),
(388,300,qs),
(419,314,o),
(419,348,qs),
(419,614,o),
(605,614,qs),
(634,614,o),
(732,597,o),
(737,597,q),
(745,599,l),
(755,605,o),
(763,628,qs),
(789,705,o),
(845,753,qs),
(1017,899,o),
(1017,1155,qs),
(1017,1362,o),
(746,1585,o),
(506,1585,qs),
(401,1585,o),
(242,1506,o),
(199,1467,qs),
(102,1379,o),
(102,1242,qs),
(102,1196,o),
(150,1042,o),
(150,1026,qs),
(150,966,o),
(100,911,q),
(118,917,o),
(184,917,o),
(243,951,o),
(260,976,qs),
(294,1027,o),
(309,1083,q),
(316,1072,o),
(404,1049,o),
(465,1049,o),
(511,1066,o),
(532,1085,o),
(538,1100,qs),
(544,1117,o),
(544,1130,q),
(482,1133,o),
(389,1191,o),
(389,1307,o),
(466,1365,o),
(514,1365,qs),
(671,1365,o),
(671,1188,qs),
(671,914,o)
);
},
{
closed = 1;
nodes = (
(165,-10,o),
(165,-15,q),
(165,-15,o),
(377,-198,o),
(377,-198,q),
(588,-8,l),
(588,-8,o),
(377,176,o),
(377,176,q),
(368,176,o)
);
}
);
width = 1043;
}
);
note = question;
unicode = 63;
},
{
glyphname = questiondown;
layers = (
{
layerId = m01;
shapes = (
{
closed = 1;
nodes = (
(871,1139,o),
(833,1156,qs),
(817,1163,o),
(774,1163,o),
(738,1134,o),
(738,1041,o),
(666,917,o),
(549,842,o),
(457,842,o),
(385,860,o),
(380,860,q),
(366,857,o),
(354,832,o),
(343,801,o),
(335,783,qs),
(316,740,o),
(190,633,o),
(100,430,o),
(100,302,qs),
(100,95,o),
(371,-128,o),
(611,-128,qs),
(718,-128,o),
(875,-48,o),
(918,-10,qs),
(1015,78,o),
(1015,215,qs),
(1015,261,o),
(967,415,o),
(967,431,qs),
(967,491,o),
(1017,546,q),
(999,540,o),
(942,540,o),
(897,522,o),
(866,493,o),
(840,457,o),
(832,440,qs),
(815,403,o),
(808,374,q),
(800,385,o),
(713,408,o),
(652,408,o),
(606,391,o),
(585,372,o),
(579,357,qs),
(573,341,o),
(573,327,q),
(678,322,o),
(714,261,qs),
(728,237,o),
(728,151,o),
(651,92,o),
(603,92,qs),
(446,92,o),
(446,269,qs),
(446,512,o),
(568,541,qs),
(576,543,o),
(612,543,o),
(694,514,o),
(703,514,o),
(711,529,o),
(718,551,o),
(729,583,o),
(735,598,qs),
(749,635,o),
(774,660,q),
(852,729,o),
(868,811,qs),
(875,847,o),
(875,898,qs),
(871,1095,ls)
);
},
{
closed = 1;
nodes = (
(992,1467,o),
(992,1473,q),
(992,1473,o),
(780,1656,o),
(780,1656,q),
(569,1466,l),
(569,1466,o),
(780,1282,o),
(780,1282,q),
(789,1282,o)
);
}
);
width = 1043;
}
);
note = questiondown;
unicode = 191;
},
{
glyphname = periodcentered;
layers = (
{
layerId = m01;
shapes = (
{
closed = 1;
nodes = (
(85,594,o),
(116,532,q),
(188,506,o),
(351,506,o),
(415,539,q),
(441,614,o),
(441,772,o),
(408,836,q),
(336,861,o),
(175,861,o),
(111,828,q),
(85,756,o)
);
}
);
width = 527;
}
);
note = periodcentered;
unicode = 183;
},
{
glyphname = bullet;
layers = (
{
layerId = m01;
shapes = (
{
closed = 1;
nodes = (
(1179,897,l),
(765,931,l),
(613,1305,l),
(451,921,l),
(49,891,l),
(363,618,l),
(267,231,l),
(269,226,l),
(625,442,l),
(967,229,l),
(969,235,l),
(872,636,l)
);
}
);
width = 1229;
}
);
note = bullet;
unicode = 8226;
},
{
glyphname = asterisk;
layers = (
{
layerId = m01;
shapes = (
{
closed = 1;
nodes = (
(810,853,l),
(534,876,l),
(432,1125,l),
(324,869,l),
(56,849,l),
(266,667,l),
(202,409,l),
(203,406,l),
(440,550,l),
(668,408,l),
(670,412,l),
(605,679,l)
);
}
);
width = 866;
}
);
note = asterisk;
unicode = 42;
},
{
glyphname = numbersign;
layers = (
{
layerId = m01;
shapes = (
{
closed = 1;
nodes = (
(891,807,l),
(1089,807,l),
(1089,937,l),
(915,937,l),
(983,1326,l),
(845,1326,l),
(778,937,l),
(475,937,l),
(542,1326,l),
(405,1326,l),
(338,937,l),
(83,937,l),
(83,807,l),
(314,807,l),
(261,510,l),
(56,510,l),
(56,381,l),
(237,381,l),
(169,-8,l),
(306,-8,l),
(375,381,l),
(679,381,l),
(611,-8,l),
(747,-8,l),
(816,381,l),
(1064,381,l),
(1064,510,l),
(839,510,l)
);
},
{
closed = 1;
nodes = (
(397,510,l),
(450,807,l),
(755,807,l),
(702,510,l)
);
}
);
width = 1149;
}
);
note = numbersign;
unicode = 35;
},
{
glyphname = slash;
layers = (
{
layerId = m01;
shapes = (
{
closed = 1;
nodes = (
(761,1259,o),
(921,1534,o),
(986,1580,q),
(986,1580,o),
(998,1601,o),
(998,1609,qs),
(998,1639,o),
(933,1639,qs),
(837,1639,o),
(793,1575,q),
(793,1578,o),
(793,1586,qs),
(793,1593,o),
(788,1605,qs),
(785,1612,o),
(772,1623,o),
(753,1633,o),
(723,1639,o),
(642,1639,o),
(625,1623,qs),
(616,1614,o),
(611,1594,o),
(616,1565,o),
(631,1512,o),
(631,1488,qs),
(631,1417,o),
(595,1314,qs),
(505,1057,o),
(297,763,q),
(305,696,l),
(305,620,o),
(234,387,o),
(131,167,o),
(8,-21,o),
(-40,-57,qs),
(-52,-65,o),
(-52,-86,qs),
(-52,-117,o),
(12,-117,qs),
(41,-117,o),
(66,-110,qs),
(129,-92,o),
(152,-52,q),
(148,-72,o),
(166,-94,qs),
(174,-104,o),
(213,-117,o),
(302,-117,o),
(320,-100,qs),
(329,-92,o),
(336,-72,o),
(332,-43,o),
(319,11,o),
(319,35,qs),
(319,105,o),
(363,227,qs),
(380,272,o),
(492,557,o),
(563,652,qs),
(591,690,o),
(659,768,o),
(659,787,q),
(651,855,l),
(651,948,o)
);
}
);
width = 916;
}
);
note = slash;
unicode = 47;
},
{
glyphname = backslash;
layers = (
{
layerId = m01;
shapes = (
{
closed = 1;
nodes = (
(639,-35,l),
(804,-35,l),
(215,1395,l),
(50,1395,l)
);
}
);
width = 852;
}
);
note = backslash;
unicode = 92;
},
{
glyphname = hyphen;
layers = (
{
layerId = m01;
shapes = (
{
closed = 1;
nodes = (
(621,561,o),
(723,548,q),
(748,553,o),
(748,594,qs),
(748,690,ls),
(748,725,o),
(730,734,qs),
(726,736,o),
(626,723,o),
(201,723,o),
(113,736,q),
(106,734,ls),
(88,728,o),
(88,690,qs),
(88,594,ls),
(88,575,o),
(104,548,o),
(113,548,q),
(194,561,o)
);
}
);
width = 838;
}
);
note = hyphen;
unicode = 45;
},
{
glyphname = endash;
layers = (
{
layerId = m01;
shapes = (
{
closed = 1;
nodes = (
(90,579,l),
(90,410,l),
(1126,410,l),
(1126,579,l)
);
}
);
width = 1213;
}
);
note = endash;
unicode = 8211;
},
{
glyphname = emdash;
layers = (
{
layerId = m01;
shapes = (
{
closed = 1;
nodes = (
(90,579,l),
(90,410,l),
(2150,410,l),
(2150,579,l)
);
}
);
width = 2237;
}
);
note = emdash;
unicode = 8212;
},
{
glyphname = underscore;
layers = (
{
layerId = m01;
shapes = (
{
closed = 1;
nodes = (
(1147,-256,l),
(1147,-154,l),
(111,-154,l),
(111,-256,l)
);
}
);
width = 1260;
}
);
note = underscore;
unicode = 95;
},
{
glyphname = parenleft;
layers = (
{
layerId = m01;
shapes = (
{
closed = 1;
nodes = (
(335,1418,qs),
(69,1150,o),
(69,694,qs),
(69,238,o),
(335,-30,qs),
(470,-166,o),
(659,-219,q),
(659,-78,l),
(308,78,o),
(308,1307,o),
(659,1467,q),
(659,1608,l),
(470,1555,o)
);
}
);
width = 709;
}
);
note = parenleft;
unicode = 40;
},
{
glyphname = parenright;
layers = (
{
layerId = m01;
shapes = (
{
closed = 1;
nodes = (
(510,106,o),
(641,477,o),
(641,911,o),
(510,1282,o),
(240,1555,o),
(51,1608,q),
(51,1467,l),
(402,1307,o),
(402,78,o),
(51,-78,q),
(51,-219,l),
(239,-167,o)
);
}
);
width = 711;
}
);
note = parenright;
unicode = 41;
},
{
glyphname = braceleft;
layers = (
{
layerId = m01;
shapes = (
{
closed = 1;
nodes = (
(392,-434,o),
(616,-434,q),
(616,-350,l),
(511,-338,o),
(440,-244,o),
(440,-122,qs),
(440,77,ls),
(440,223,o),
(422,300,qs),
(394,419,o),
(252,470,q),
(252,472,l),
(314,494,o),
(389,554,o),
(440,686,o),
(440,862,qs),
(440,1018,ls),
(440,1079,o),
(452,1207,o),
(486,1238,qs),
(528,1276,o),
(616,1289,q),
(616,1374,l),
(392,1374,o),
(227,1238,o),
(227,1050,qs),
(227,871,ls),
(227,793,o),
(226,756,qs),
(221,633,o),
(188,588,qs),
(140,524,o),
(46,510,q),
(91,478,o),
(124,387,o),
(124,313,q),
(186,291,o),
(227,170,o),
(227,70,qs),
(227,-110,ls),
(227,-298,o)
);
}
);
width = 670;
}
);
note = braceleft;
unicode = 123;
},
{
glyphname = braceright;
layers = (
{
layerId = m01;
shapes = (
{
closed = 1;
nodes = (
(307,512,o),
(419,471,q),
(419,469,l),
(322,436,o),
(277,366,qs),
(232,295,o),
(232,33,qs),
(232,-122,ls),
(232,-243,o),
(159,-338,o),
(54,-350,q),
(54,-434,l),
(280,-434,o),
(443,-299,o),
(443,-110,qs),
(443,87,ls),
(443,277,o),
(479,348,qs),
(514,415,o),
(625,430,q),
(625,510,l),
(556,518,o),
(522,546,qs),
(503,561,o),
(476,591,o),
(459,642,o),
(443,708,o),
(443,852,qs),
(443,1050,ls),
(443,1239,o),
(280,1374,o),
(54,1374,q),
(54,1289,l),
(160,1275,o),
(232,1183,o),
(232,1062,qs),
(232,818,ls),
(232,660,o)
);
}
);
width = 675;
}
);
note = braceright;
unicode = 125;
},
{
glyphname = bracketleft;
layers = (
{
layerId = m01;
shapes = (
{
closed = 1;
nodes = (
(325,-247,l),
(325,1235,l),
(604,1235,l),
(604,1375,l),
(101,1375,l),
(101,-387,l),
(604,-387,l),
(604,-247,l)
);
}
);
width = 666;
}
);
note = bracketleft;
unicode = 91;
},
{
glyphname = bracketright;
layers = (
{
layerId = m01;
shapes = (
{
closed = 1;
nodes = (
(58,1375,l),
(58,1235,l),
(337,1235,l),
(337,-247,l),
(58,-247,l),
(58,-387,l),
(561,-387,l),
(561,1375,l)
);
}
);
width = 663;
}
);
note = bracketright;
unicode = 93;
},
{
glyphname = quotesinglbase;
layers = (
{
layerId = m01;
shapes = (
{
closed = 1;
nodes = (
(385,-112,o),
(385,124,o),
(358,224,q),
(293,259,o),
(177,259,o),
(102,216,o),
(86,183,q),
(86,79,o),
(148,-3,q),
(220,-3,o),
(256,13,q),
(258,13,l),
(258,-75,o),
(177,-169,o),
(96,-189,q),
(96,-283,l),
(230,-271,o)
);
}
);
width = 470;
}
);
note = quotesinglbase;
unicode = 8218;
},
{
glyphname = quotedblbase;
layers = (
{
layerId = m01;
shapes = (
{
closed = 1;
nodes = (
(385,-112,o),
(385,124,o),
(358,224,q),
(293,259,o),
(177,259,o),
(102,216,o),
(86,183,q),
(86,79,o),
(148,-3,q),
(220,-3,o),
(256,13,q),
(258,13,l),
(258,-75,o),
(177,-169,o),
(96,-189,q),
(96,-283,l),
(230,-271,o)
);
},
{
closed = 1;
nodes = (
(860,-112,o),
(860,131,o),
(832,224,q),
(767,259,o),
(651,259,o),
(577,216,o),
(561,183,q),
(561,79,o),
(623,-3,q),
(695,-3,o),
(731,13,q),
(733,13,l),
(733,-75,o),
(652,-168,o),
(570,-189,q),
(570,-283,l),
(705,-271,o)
);
}
);
width = 945;
}
);
note = quotedblbase;
unicode = 8222;
},
{
glyphname = quotedblleft;
layers = (
{
layerId = m01;
shapes = (
{
closed = 1;
nodes = (
(548,1224,o),
(548,992,o),
(576,888,q),
(641,853,o),
(757,853,o),
(832,895,o),
(847,928,q),
(847,1034,o),
(786,1115,q),
(712,1115,o),
(677,1098,q),
(675,1098,l),
(675,1185,o),
(756,1279,o),
(838,1300,q),
(838,1395,l),
(703,1383,o)
);
},
{
closed = 1;
nodes = (
(73,1224,o),
(73,992,o),
(101,888,q),
(166,853,o),
(282,853,o),
(357,895,o),
(372,928,q),
(372,1034,o),
(311,1115,q),
(237,1115,o),
(202,1098,q),
(200,1098,l),
(200,1185,o),
(281,1279,o),
(363,1300,q),
(363,1395,l),
(228,1383,o)
);
}
);
width = 923;
}
);
note = quotedblleft;
unicode = 8220;
},
{
glyphname = quotedblright;
layers = (
{
layerId = m01;
shapes = (
{
closed = 1;
nodes = (
(377,1023,o),
(377,1260,o),
(350,1360,q),
(285,1395,o),
(169,1395,o),
(94,1352,o),
(78,1319,q),
(78,1214,o),
(140,1132,q),
(213,1132,o),
(248,1149,q),
(250,1149,l),
(250,1060,o),
(169,967,o),
(88,947,q),
(88,853,l),
(223,865,o)
);
},
{
closed = 1;
nodes = (
(852,1022,o),
(852,1267,o),
(824,1360,q),
(759,1395,o),
(643,1395,o),
(569,1352,o),
(553,1319,q),
(553,1214,o),
(615,1132,q),
(688,1132,o),
(723,1149,q),
(725,1149,l),
(725,1060,o),
(644,967,o),
(562,947,q),
(562,853,l),
(697,865,o)
);
}
);
width = 928;
}
);
note = quotedblright;
unicode = 8221;
},
{
glyphname = quoteleft;
layers = (
{
layerId = m01;
shapes = (
{
closed = 1;
nodes = (
(73,1224,o),
(73,992,o),
(101,888,q),
(166,853,o),
(282,853,o),
(357,895,o),
(372,928,q),
(372,1034,o),
(311,1115,q),
(237,1115,o),
(202,1098,q),
(200,1098,l),
(200,1185,o),
(281,1279,o),
(363,1300,q),
(363,1395,l),
(228,1383,o)
);
}
);
width = 448;
}
);
note = quoteleft;
unicode = 8216;
},
{
glyphname = quoteright;
layers = (
{
layerId = m01;
shapes = (
{
closed = 1;
nodes = (
(377,1023,o),
(377,1260,o),
(350,1360,q),
(285,1395,o),
(169,1395,o),
(94,1352,o),
(78,1319,q),
(78,1214,o),
(140,1132,q),
(213,1132,o),
(248,1149,q),
(250,1149,l),
(250,1060,o),
(169,967,o),
(88,947,q),
(88,853,l),
(223,865,o)
);
}
);
width = 453;
}
);
note = quoteright;
unicode = 8217;
},
{
glyphname = guillemotleft;
layers = (
{
layerId = m01;
shapes = (
{
closed = 1;
nodes = (
(292,860,o),
(103,559,o),
(65,480,q),
(102,399,o),
(234,196,qs),
(290,108,o),
(312,71,q),
(479,71,l),
(450,127,o),
(297,440,o),
(275,484,q),
(479,894,l),
(312,894,l)
);
},
{
closed = 1;
nodes = (
(711,864,o),
(512,542,o),
(482,480,q),
(511,417,o),
(708,106,o),
(728,71,q),
(896,71,l),
(864,130,o),
(708,452,o),
(692,484,q),
(896,894,l),
(728,894,l)
);
}
);
width = 968;
}
);
note = guillemotleft;
unicode = 171;
},
{
glyphname = guillemotright;
layers = (
{
layerId = m01;
shapes = (
{
closed = 1;
nodes = (
(676,107,o),
(861,402,o),
(901,485,q),
(862,565,o),
(732,769,qs),
(676,857,o),
(654,894,q),
(487,894,l),
(516,838,o),
(669,525,o),
(691,481,q),
(487,71,l),
(654,71,l)
);
},
{
closed = 1;
nodes = (
(252,96,o),
(454,421,o),
(484,485,q),
(455,547,o),
(258,859,o),
(238,894,q),
(70,894,l),
(102,835,o),
(258,513,o),
(274,481,q),
(70,71,l),
(238,71,l)
);
}
);
width = 965;
}
);
note = guillemotright;
unicode = 187;
},
{
glyphname = guilsinglleft;
layers = (
{
layerId = m01;
shapes = (
{
closed = 1;
nodes = (
(294,864,o),
(95,542,o),
(65,480,q),
(94,417,o),
(291,106,o),
(311,71,q),
(480,71,l),
(448,131,o),
(292,452,o),
(275,484,q),
(480,894,l),
(311,894,l)
);
}
);
width = 552;
}
);
note = guilsinglleft;
unicode = 8249;
},
{
glyphname = guilsinglright;
layers = (
{
layerId = m01;
shapes = (
{
closed = 1;
nodes = (
(260,107,o),
(445,401,o),
(485,485,q),
(449,560,o),
(316,769,qs),
(260,857,o),
(238,894,q),
(70,894,l),
(101,837,o),
(254,520,o),
(275,481,q),
(70,71,l),
(238,71,l)
);
}
);
width = 549;
}
);
note = guilsinglright;
unicode = 8250;
},
{
glyphname = quotedbl;
layers = (
{
layerId = m01;
shapes = (
{
closed = 1;
nodes = (
(204,1395,q),
(118,1395,o),
(80,1332,q),
(80,1308,o),
(88,1113,q),
(111,870,ls),
(116,823,o),
(137,810,q),
(184,810,o),
(212,841,q),
(245,1192,l),
(246,1284,ls),
(246,1370,o)
);
},
{
closed = 1;
nodes = (
(576,1395,q),
(490,1395,o),
(452,1332,q),
(452,1308,o),
(460,1113,q),
(483,870,ls),
(487,824,o),
(508,810,q),
(554,810,o),
(584,841,q),
(617,1192,l),
(618,1284,ls),
(618,1370,o)
);
}
);
width = 700;
}
);
note = quotedbl;
unicode = 34;
},
{
glyphname = quotesingle;
layers = (
{
layerId = m01;
shapes = (
{
closed = 1;
nodes = (
(204,1395,q),
(118,1395,o),
(80,1332,q),
(80,1308,o),
(88,1113,q),
(111,870,ls),
(116,823,o),
(137,810,q),
(183,810,o),
(213,841,q),
(245,1192,l),
(246,1284,ls),
(246,1370,o)
);
}
);
width = 328;
}
);
note = quotesingle;
unicode = 39;
},
{
glyphname = florin;
layers = (
{
layerId = m01;
shapes = (
{
closed = 1;
nodes = (
(407,-434,o),
(488,-348,qs),
(525,-308,o),
(596,-128,o),
(629,87,qs),
(741,832,l),
(991,832,l),
(1003,963,l),
(761,963,l),
(773,1066,ls),
(787,1167,o),
(802,1214,qs),
(813,1247,o),
(841,1284,o),
(883,1307,o),
(940,1307,o),
(953,1299,q),
(915,1293,o),
(915,1254,q),
(950,1196,o),
(1058,1183,q),
(1132,1228,o),
(1143,1332,q),
(1113,1386,o),
(981,1445,o),
(912,1445,qs),
(633,1445,o),
(575,1110,qs),
(549,963,l),
(307,963,l),
(296,832,l),
(529,832,l),
(408,0,ls),
(390,-132,o),
(380,-176,qs),
(370,-217,o),
(351,-255,o),
(319,-292,o),
(277,-304,o),
(226,-304,o),
(222,-297,q),
(222,-296,l),
(239,-289,o),
(261,-261,o),
(261,-249,q),
(223,-185,o),
(122,-174,q),
(44,-219,o),
(34,-319,q),
(97,-434,o)
);
}
);
width = 1182;
}
);
note = florin;
unicode = 402;
},
{
glyphname = uni2620;
layers = (
{
layerId = m01;
shapes = (
{
closed = 1;
nodes = (
(787,347,o),
(778,347,qs),
(756,347,o),
(734,282,qs),
(725,255,l),
(722,249,o),
(688,244,o),
(688,237,qs),
(688,194,ls),
(688,187,o),
(670,187,o),
(660,218,o),
(641,218,o),
(633,206,q),
(589,206,ls),
(584,206,o),
(567,176,o),
(552,176,o),
(524,206,o),
(503,206,o),
(499,178,o),
(476,178,o),
(464,212,o),
(431,212,o),
(424,206,q),
(394,237,l),
(391,237,ls),
(369,237,o),
(369,200,q),
(354,200,l),
(354,249,l),
(350,258,o),
(326,258,q),
(326,215,l),
(308,215,o),
(299,286,o),
(284,356,o),
(258,356,q),
(271,237,l),
(264,169,l),
(310,102,o),
(451,3,o),
(522,3,qs),
(554,3,o),
(674,45,o),
(780,120,o),
(780,156,q),
(774,203,l),
(787,332,l)
);
},
{
closed = 1;
nodes = (
(647,261,o),
(660,261,qs),
(664,261,l),
(669,304,o),
(726,356,o),
(799,377,o),
(836,386,qs),
(921,409,o),
(921,473,q),
(916,544,l),
(916,598,ls),
(916,629,o),
(977,737,o),
(982,758,q),
(982,820,ls),
(982,1030,o),
(740,1274,o),
(329,1274,o),
(159,1145,qs),
(98,1099,o),
(62,975,o),
(62,819,o),
(159,590,o),
(159,532,q),
(154,464,l),
(154,443,o),
(184,409,o),
(211,409,o),
(231,415,qs),
(251,421,l),
(296,421,o),
(310,355,qs),
(318,321,o),
(339,316,q),
(350,323,l),
(355,323,o),
(375,292,o),
(387,292,qs),
(406,292,o),
(416,328,qs),
(420,341,o),
(427,341,q),
(427,273,ls),
(427,266,o),
(442,266,q),
(479,273,l),
(490,273,o),
(509,242,o),
(532,242,o),
(542,261,o),
(557,261,o),
(566,242,o),
(599,242,o),
(609,259,o),
(609,281,qs),
(609,286,ls),
(609,290,o),
(609,292,q),
(616,293,ls),
(627,293,o)
);
},
{
closed = 1;
nodes = (
(461,488,qs),
(461,517,o),
(512,635,o),
(534,635,qs),
(565,635,o),
(620,537,o),
(620,461,o),
(592,461,qs),
(577,461,o),
(548,498,o),
(548,525,q),
(531,525,l),
(533,513,o),
(533,506,qs),
(533,464,o),
(501,464,qs),
(461,464,o)
);
},
{
closed = 1;
nodes = (
(240,598,q),
(234,604,l),
(233,624,o),
(216,704,o),
(216,743,o),
(263,771,o),
(308,771,qs),
(473,771,o),
(473,681,qs),
(473,648,o),
(404,587,o),
(372,587,q),
(264,599,l),
(249,599,o)
);
},
{
closed = 1;
nodes = (
(611,644,o),
(611,681,qs),
(611,771,o),
(766,771,qs),
(812,771,o),
(840,744,qs),
(858,726,o),
(858,677,o),
(823,610,o),
(820,594,q),
(814,588,l),
(800,591,o),
(790,591,q),
(712,577,l),
(680,577,o)
);
}
);
width = 1048;
}
);
note = uni2620;
unicode = 9760;
},
{
glyphname = at;
layers = (
{
layerId = m01;
shapes = (
{
closed = 1;
nodes = (
(1040,938,o),
(1123,831,o),
(1123,641,o),
(1048,428,o),
(906,268,o),
(753,268,o),
(659,393,o),
(659,592,o),
(733,793,o),
(876,938,o)
);
},
{
closed = 1;
nodes = (
(1025,1067,o),
(851,1067,o),
(674,964,o),
(553,801,o),
(480,600,o),
(480,438,o),
(499,379,q),
(521,253,o),
(603,194,qs),
(640,168,o),
(719,142,o),
(839,144,o),
(987,237,o),
(1036,298,q),
(1038,298,l),
(1038,237,o),
(1139,140,o),
(1336,140,o),
(1527,250,o),
(1656,424,o),
(1732,641,o),
(1732,890,o),
(1617,1147,o),
(1415,1335,o),
(1122,1446,o),
(782,1446,o),
(636,1394,qs),
(366,1300,o),
(208,1054,qs),
(64,829,o),
(64,557,qs),
(64,305,o),
(205,108,qs),
(278,5,o),
(488,-147,o),
(792,-237,o),
(973,-237,qs),
(1378,-237,o),
(1642,49,q),
(1536,95,l),
(1327,-106,o),
(971,-106,qs),
(805,-106,o),
(531,-6,o),
(346,170,o),
(245,412,o),
(245,729,o),
(357,1021,o),
(549,1213,o),
(804,1319,o),
(1089,1319,o),
(1336,1224,o),
(1503,1066,o),
(1598,859,o),
(1598,651,o),
(1531,466,o),
(1433,342,o),
(1324,266,o),
(1245,266,o),
(1210,317,o),
(1210,368,o),
(1214,379,q),
(1367,1038,l),
(1200,1038,l),
(1172,923,l),
(1130,993,o)
);
}
);
width = 1798;
}
);
note = at;
unicode = 64;
},
{
glyphname = ampersand;
layers = (
{
layerId = m01;
shapes = (
{
closed = 1;
nodes = (
(870,1411,qs),
(836,1411,o),
(807,1351,qs),
(791,1318,o),
(791,1275,q),
(720,1276,ls),
(700,1276,o),
(682,1267,qs),
(641,1247,o),
(635,1200,q),
(717,1185,o),
(769,1159,qs),
(791,1148,o),
(830,1125,o),
(848,1115,qs),
(910,1081,o),
(1005,1081,qs),
(1120,1081,o),
(1262,1233,o),
(1262,1435,o),
(1210,1503,qs),
(1107,1638,o),
(897,1638,qs),
(665,1638,o),
(510,1525,qs),
(437,1471,o),
(352,1312,o),
(352,1152,o),
(425,1046,q),
(149,949,o),
(91,585,q),
(65,543,o),
(10,475,qs),
(-5,455,o),
(-5,447,o),
(39,388,o),
(97,300,o),
(143,189,o),
(196,127,qs),
(381,-93,o),
(743,-93,qs),
(1014,-93,o),
(1170,28,qs),
(1240,83,o),
(1334,231,o),
(1372,384,o),
(1372,552,o),
(1307,710,o),
(1252,765,q),
(1260,765,o),
(1294,765,o),
(1393,765,o),
(1461,777,qs),
(1502,783,o),
(1566,806,o),
(1625,845,o),
(1664,898,o),
(1688,973,o),
(1688,1055,o),
(1664,1167,qs),
(1656,1205,o),
(1656,1234,qs),
(1656,1302,o),
(1698,1354,q),
(1677,1364,o),
(1618,1364,o),
(1545,1311,o),
(1498,1227,o),
(1497,1184,q),
(1422,1219,o),
(1377,1219,qs),
(1312,1219,o),
(1276,1142,q),
(1350,1128,o),
(1381,1075,qs),
(1396,1050,o),
(1396,984,o),
(1389,958,qs),
(1384,941,o),
(1362,922,o),
(1311,894,o),
(1229,894,qs),
(1114,897,ls),
(989,897,o),
(901,856,qs),
(735,777,o),
(735,630,qs),
(735,549,o),
(855,437,o),
(961,437,qs),
(994,437,o),
(1008,467,q),
(951,478,o),
(876,570,o),
(876,673,o),
(917,709,qs),
(937,727,o),
(1006,747,o),
(1092,747,o),
(1126,718,qs),
(1202,654,o),
(1202,521,qs),
(1202,383,o),
(1111,294,qs),
(981,167,o),
(771,167,qs),
(651,167,o),
(548,219,qs),
(417,285,o),
(417,396,qs),
(417,438,o),
(453,495,qs),
(465,515,o),
(465,519,o),
(433,544,o),
(414,559,qs),
(363,600,o),
(363,654,qs),
(363,762,o),
(446,911,o),
(505,952,q),
(576,904,o),
(693,904,o),
(774,947,o),
(774,973,qs),
(774,1026,o),
(696,1097,o),
(621,1097,qs),
(600,1097,o),
(562,1093,q),
(520,1170,o),
(520,1324,o),
(623,1454,o),
(791,1521,o),
(973,1521,o),
(1078,1420,o),
(1078,1322,o),
(1027,1272,o),
(946,1272,o),
(901,1310,o),
(901,1365,o),
(911,1394,q),
(900,1411,o)
);
}
);
width = 1741;
}
);
note = ampersand;
unicode = 38;
},
{
glyphname = paragraph;
layers = (
{
layerId = m01;
shapes = (
{
closed = 1;
nodes = (
(786,1256,l),
(786,-421,l),
(956,-421,l),
(956,1182,l),
(973,1228,o),
(1047,1263,o),
(1108,1263,q),
(1108,1374,l),
(504,1374,ls),
(276,1374,o),
(61,1158,o),
(61,772,o),
(264,546,o),
(448,540,q),
(448,-421,l),
(618,-421,l),
(618,1256,l)
);
}
);
width = 1162;
}
);
note = paragraph;
unicode = 182;
},
{
glyphname = section;
layers = (
{
layerId = m01;
shapes = (
{
closed = 1;
nodes = (
(547,693,o),
(648,657,o),
(761,603,o),
(825,527,o),
(825,413,o),
(733,318,o),
(667,301,q),
(640,313,o),
(438,374,o),
(357,413,qs),
(241,469,o),
(241,569,qs),
(241,689,o),
(400,736,q),
(420,728,o)
);
},
{
closed = 1;
nodes = (
(188,-2,q),
(122,-24,o),
(122,-120,q),
(130,-210,o),
(192,-274,qs),
(311,-395,o),
(529,-395,qs),
(773,-395,o),
(893,-234,qs),
(954,-153,o),
(954,46,o),
(862,191,o),
(776,229,q),
(776,231,l),
(1005,337,o),
(1005,530,qs),
(1005,607,o),
(928,729,o),
(804,807,o),
(655,871,o),
(506,924,o),
(444,952,qs),
(305,1015,o),
(305,1108,qs),
(305,1187,o),
(440,1271,o),
(576,1271,o),
(625,1252,q),
(676,1251,o),
(703,1227,q),
(697,1164,o),
(697,1078,o),
(726,1032,o),
(768,1032,qs),
(868,1032,o),
(928,1105,q),
(928,1259,o),
(804,1336,qs),
(692,1407,o),
(537,1407,qs),
(298,1407,o),
(178,1254,qs),
(118,1177,o),
(118,1075,qs),
(118,899,o),
(292,802,q),
(292,800,l),
(180,762,o),
(60,609,o),
(60,424,o),
(138,298,o),
(262,222,o),
(413,162,o),
(564,114,o),
(626,88,qs),
(766,29,o),
(766,-72,qs),
(766,-153,o),
(627,-257,o),
(534,-257,qs),
(494,-257,o),
(457,-250,qs),
(305,-224,o),
(302,-122,q),
(358,-122,o),
(358,-61,q),
(291,-2,o)
);
}
);
width = 1061;
}
);
note = section;
unicode = 167;
},
{
glyphname = copyright;
layers = (
{
layerId = m01;
shapes = (
{
closed = 1;
nodes = (
(1431,282,o),
(1546,555,o),
(1546,859,o),
(1431,1132,o),
(1234,1329,o),
(959,1445,o),
(653,1445,o),
(379,1329,o),
(182,1132,o),
(67,859,o),
(67,555,o),
(182,282,o),
(379,85,o),
(653,-30,o),
(959,-30,o),
(1234,86,o)
);
},
{
closed = 1;
nodes = (
(203,581,o),
(203,833,o),
(297,1063,o),
(458,1231,o),
(682,1330,o),
(931,1330,o),
(1155,1231,o),
(1316,1063,o),
(1410,833,o),
(1410,539,o),
(1250,252,o),
(972,84,o),
(682,84,o),
(458,183,o),
(297,351,o)
);
},
{
closed = 1;
nodes = (
(925,378,o),
(835,378,qs),
(707,378,o),
(579,561,o),
(579,871,o),
(715,1052,o),
(837,1052,qs),
(926,1052,o),
(1039,959,o),
(1063,884,q),
(1143,899,l),
(1137,958,o),
(1125,1013,q),
(1101,1065,o),
(949,1129,o),
(840,1129,qs),
(621,1129,o),
(509,1004,qs),
(404,887,o),
(404,716,qs),
(404,516,o),
(635,294,o),
(828,294,qs),
(932,294,o),
(1076,349,o),
(1105,387,q),
(1147,459,o),
(1168,547,q),
(1086,565,l),
(1055,479,o)
);
}
);
width = 1614;
}
);
note = copyright;
unicode = 169;
},
{
glyphname = registered;
layers = (
{
layerId = m01;
shapes = (
{
closed = 1;
nodes = (
(1431,282,o),
(1546,555,o),
(1546,859,o),
(1431,1132,o),
(1234,1329,o),
(959,1445,o),
(653,1445,o),
(379,1329,o),
(182,1132,o),
(67,859,o),
(67,555,o),
(182,282,o),
(379,85,o),
(653,-30,o),
(959,-30,o),
(1234,86,o)
);
},
{
closed = 1;
nodes = (
(203,581,o),
(203,833,o),
(297,1063,o),
(458,1231,o),
(682,1330,o),
(931,1330,o),
(1155,1231,o),
(1316,1063,o),
(1410,833,o),
(1410,539,o),
(1250,252,o),
(972,84,o),
(682,84,o),
(458,183,o),
(297,351,o)
);
},
{
closed = 1;
nodes = (
(515,438,ls),
(515,401,o),
(501,376,o),
(467,365,q),
(467,313,l),
(713,313,l),
(713,366,l),
(680,375,o),
(665,403,o),
(665,439,qs),
(665,445,l),
(665,655,l),
(742,655,l),
(794,618,o),
(874,518,o),
(974,365,o),
(1016,313,q),
(1180,313,l),
(1163,352,l),
(1139,382,o),
(972,617,o),
(903,675,q),
(903,677,l),
(991,691,o),
(1102,813,o),
(1102,988,o),
(966,1103,o),
(846,1103,qs),
(503,1103,l),
(467,1085,l),
(500,1067,o),
(515,1027,o),
(515,980,qs),
(515,973,l),
(515,444,l)
);
},
{
closed = 1;
nodes = (
(862,1025,o),
(944,963,o),
(944,817,o),
(868,733,o),
(794,733,qs),
(665,733,l),
(665,1025,l),
(777,1025,ls)
);
}
);
width = 1614;
}
);
note = registered;
unicode = 174;
},
{
glyphname = trademark;
layers = (
{
layerId = m01;
shapes = (
{
closed = 1;
nodes = (
(610,1289,o),
(630,1224,q),
(686,1224,l),
(686,1374,l),
(64,1374,l),
(64,1224,l),
(120,1224,l),
(140,1289,o),
(180,1289,qs),
(303,1289,l),
(303,695,ls),
(303,670,o),
(301,651,o),
(279,622,o),
(212,611,q),
(212,552,l),
(548,552,l),
(548,611,l),
(480,623,o),
(466,642,qs),
(456,656,o),
(456,695,qs),
(456,1289,l),
(569,1289,ls)
);
},
{
closed = 1;
nodes = (
(1431,651,qs),
(1419,632,o),
(1357,614,q),
(1357,552,l),
(1698,552,l),
(1698,613,l),
(1650,628,o),
(1620,653,qs),
(1606,665,o),
(1606,737,qs),
(1606,1227,ls),
(1606,1266,o),
(1642,1303,o),
(1701,1314,q),
(1701,1374,l),
(1440,1374,l),
(1227,752,l),
(1225,752,l),
(1018,1374,l),
(735,1374,l),
(735,1314,l),
(847,1314,o),
(847,1236,qs),
(847,758,ls),
(847,695,o),
(813,633,o),
(754,613,q),
(754,552,l),
(1033,552,l),
(1033,614,l),
(973,635,o),
(939,697,o),
(939,761,qs),
(939,1193,l),
(943,1193,l),
(1154,551,l),
(1229,551,l),
(1444,1195,l),
(1448,1195,l),
(1448,739,l),
(1448,716,ls),
(1448,676,o)
);
}
);
width = 1770;
}
);
note = trademark;
unicode = 8482;
},
{
glyphname = degree;
layers = (
{
layerId = m01;
shapes = (
{
closed = 1;
nodes = (
(453,842,o),
(283,842,o),
(173,957,o),
(173,1129,o),
(283,1244,o),
(453,1244,o),
(564,1129,o),
(564,957,o)
);
},
{
closed = 1;
nodes = (
(493,1342,o),
(244,1342,o),
(68,1167,o),
(68,917,o),
(244,742,o),
(493,742,o),
(668,917,o),
(668,1167,o)
);
}
);
width = 738;
}
);
note = degree;
unicode = 176;
},
{
glyphname = bar;
layers = (
{
layerId = m01;
shapes = (
{
closed = 1;
nodes = (
(264,-473,l),
(264,1463,l),
(102,1463,l),
(102,-473,l)
);
}
);
width = 367;
}
);
note = bar;
unicode = 124;
},
{
glyphname = brokenbar;
layers = (
{
layerId = m01;
shapes = (
{
closed = 1;
nodes = (
(264,-412,l),
(264,308,l),
(102,308,l),
(102,-412,l)
);
},
{
closed = 1;
nodes = (
(264,743,l),
(264,1463,l),
(102,1463,l),
(102,743,l)
);
}
);
width = 367;
}
);
note = brokenbar;
unicode = 166;
},
{
glyphname = dagger;
layers = (
{
layerId = m01;
shapes = (
{
closed = 1;
nodes = (
(212,718,q),
(237,722,o),
(422,783,o),
(503,783,q),
(503,693,o),
(490,614,o),
(469,557,q),
(467,454,o),
(461,152,o),
(457,-57,o),
(457,-259,o),
(486,-405,o),
(533,-439,q),
(613,-439,o),
(633,-363,q),
(642,-198,o),
(642,50,o),
(635,471,o),
(634,557,q),
(600,671,o),
(600,783,q),
(688,783,o),
(812,742,qs),
(867,724,o),
(892,718,q),
(996,718,o),
(1048,775,q),
(1048,876,o),
(990,929,q),
(912,929,o),
(839,919,q),
(708,863,o),
(600,863,q),
(600,966,o),
(617,1046,qs),
(626,1089,o),
(638,1138,o),
(663,1221,o),
(666,1231,q),
(666,1337,o),
(604,1406,q),
(495,1406,o),
(438,1346,q),
(438,1265,o),
(449,1160,q),
(503,1028,o),
(503,863,q),
(385,863,o),
(265,919,q),
(163,929,o),
(114,929,q),
(56,876,o),
(56,775,q),
(108,718,o)
);
}
);
width = 1104;
}
);
note = dagger;
unicode = 8224;
},
{
glyphname = daggerdbl;
layers = (
{
layerId = m01;
shapes = (
{
closed = 1;
nodes = (
(824,974,q),
(822,973,o),
(787,960,o),
(783,958,qs),
(763,951,ls),
(747,945,o),
(736,942,o),
(664,921,o),
(589,916,q),
(592,1031,o),
(631,1155,qs),
(650,1216,o),
(654,1233,q),
(654,1335,o),
(596,1406,q),
(492,1406,l),
(433,1336,o),
(433,1233,q),
(438,1208,o),
(494,1035,o),
(497,916,q),
(439,919,o),
(237,980,o),
(193,980,qs),
(131,980,l),
(63,919,o),
(63,830,q),
(98,776,o),
(193,776,qs),
(236,776,o),
(432,836,o),
(497,836,q),
(487,662,o),
(424,487,q),
(486,322,o),
(497,139,q),
(442,139,o),
(244,199,o),
(193,199,qs),
(98,199,o),
(63,145,q),
(63,56,o),
(131,-4,q),
(189,-4,o),
(262,1,q),
(389,55,o),
(497,59,q),
(497,-59,o),
(456,-180,qs),
(438,-231,o),
(433,-257,q),
(433,-364,o),
(492,-430,q),
(596,-430,l),
(654,-359,o),
(654,-257,q),
(649,-233,o),
(592,-51,o),
(589,59,q),
(665,54,o),
(876,-4,o),
(956,-4,q),
(1024,56,o),
(1024,145,q),
(1008,169,o),
(936,199,o),
(851,199,o),
(652,139,o),
(589,139,q),
(589,307,o),
(660,487,q),
(589,666,o),
(589,836,q),
(654,836,o),
(853,776,o),
(936,776,o),
(1008,806,o),
(1024,830,q),
(1024,919,o),
(956,980,q),
(912,980,o)
);
}
);
width = 1088;
}
);
note = daggerdbl;
unicode = 8225;
},
{
glyphname = Euro;
layers = (
{
layerId = m01;
shapes = (
{
closed = 1;
nodes = (
(857,607,l),
(451,607,l),
(451,660,ls),
(451,702,o),
(452,723,q),
(874,723,l),
(896,860,l),
(462,860,l),
(509,1182,o),
(728,1182,qs),
(840,1182,o),
(967,1056,o),
(984,938,q),
(1143,938,l),
(1143,1327,l),
(987,1327,l),
(973,1229,l),
(886,1341,o),
(714,1341,qs),
(505,1341,o),
(243,1087,o),
(207,860,q),
(84,860,l),
(62,723,l),
(194,723,l),
(193,707,o),
(193,662,qs),
(193,607,l),
(84,607,l),
(62,470,l),
(206,470,l),
(242,230,o),
(501,-27,o),
(712,-27,qs),
(814,-27,o),
(867,37,q),
(869,28,o),
(881,-12,q),
(984,-12,o),
(1128,82,o),
(1162,165,q),
(1132,354,l),
(1003,381,l),
(982,271,o),
(846,134,o),
(748,134,qs),
(512,134,o),
(463,470,q),
(835,470,l)
);
}
);
width = 1229;
}
);
note = Euro;
unicode = 8364;
},
{
glyphname = cent;
layers = (
{
layerId = m01;
shapes = (
{
closed = 1;
nodes = (
(497,3,l),
(386,3,l),
(386,-217,l),
(497,-217,l)
);
},
{
closed = 1;
nodes = (
(497,1603,l),
(386,1603,l),
(386,1383,l),
(497,1383,l)
);
},
{
closed = 1;
nodes = (
(677,3,l),
(566,3,l),
(566,-217,l),
(677,-217,l)
);
},
{
closed = 1;
nodes = (
(677,1603,l),
(566,1603,l),
(566,1383,l),
(677,1383,l)
);
},
{
closed = 1;
nodes = (
(429,853,o),
(464,784,qs),
(485,742,o),
(528,704,o),
(528,688,o),
(508,670,o),
(479,634,o),
(464,604,qs),
(429,532,o),
(429,359,qs),
(429,223,o),
(444,175,o),
(461,136,o),
(474,128,qs),
(507,106,o),
(551,106,qs),
(655,106,o),
(655,300,qs),
(655,390,o),
(621,480,o),
(572,521,q),
(572,545,o),
(610,556,qs),
(625,561,o),
(681,561,o),
(747,532,o),
(762,518,qs),
(777,503,l),
(845,561,o),
(927,561,qs),
(974,561,o),
(994,535,qs),
(998,529,o),
(999,521,q),
(954,483,o),
(925,398,o),
(925,314,qs),
(925,193,ls),
(925,-85,o),
(529,-85,qs),
(357,-85,o),
(149,98,o),
(149,257,qs),
(149,351,ls),
(149,567,o),
(85,644,qs),
(70,662,o),
(50,680,o),
(50,696,o),
(70,714,o),
(100,746,o),
(114,776,qs),
(149,846,o),
(149,1024,qs),
(149,1118,ls),
(149,1360,o),
(388,1424,qs),
(456,1442,o),
(536,1442,qs),
(925,1442,o),
(925,1182,qs),
(925,1061,ls),
(925,977,o),
(960,885,o),
(1008,844,q),
(1008,820,o),
(970,808,qs),
(955,804,o),
(896,804,o),
(821,833,o),
(804,848,qs),
(786,862,l),
(762,838,o),
(683,804,o),
(624,804,o),
(595,812,o),
(588,818,qs),
(573,831,o),
(571,844,q),
(624,890,o),
(655,993,o),
(655,1110,qs),
(655,1262,o),
(540,1262,qs),
(468,1262,o),
(446,1208,qs),
(428,1166,o),
(428,1100,qs),
(429,1037,ls)
);
}
);
width = 1062;
}
);
note = cent;
unicode = 162;
},
{
glyphname = dollar;
layers = (
{
layerId = m01;
shapes = (
{
closed = 1;
nodes = (
(412,43,l),
(412,-217,l),
(523,-217,l),
(523,43,l)
);
},
{
closed = 1;
nodes = (
(412,1603,l),
(412,1353,l),
(523,1353,l),
(523,1603,l)
);
},
{
closed = 1;
nodes = (
(592,43,l),
(592,-217,l),
(703,-217,l),
(703,43,l)
);
},
{
closed = 1;
nodes = (
(592,1603,l),
(592,1353,l),
(703,1353,l),
(703,1603,l)
);
},
{
closed = 1;
nodes = (
(98,537,o),
(56,584,q),
(71,598,o),
(109,598,o),
(150,587,o),
(198,551,o),
(226,513,o),
(236,493,qs),
(252,458,o),
(252,446,q),
(320,493,o),
(385,493,qs),
(454,493,o),
(472,444,qs),
(475,436,o),
(475,430,qs),
(475,427,l),
(432,418,o),
(370,361,o),
(370,254,o),
(447,195,o),
(554,195,o),
(622,224,o),
(640,247,qs),
(674,292,o),
(674,335,qs),
(674,442,o),
(550,569,o),
(469,569,qs),
(443,569,o),
(377,553,o),
(370,553,o),
(357,560,o),
(350,582,qs),
(328,652,o),
(275,695,q),
(89,816,o),
(89,1196,o),
(326,1399,o),
(527,1399,qs),
(600,1399,o),
(737,1357,o),
(818,1306,o),
(851,1272,qs),
(923,1199,o),
(923,1081,q),
(909,946,l),
(909,892,o),
(952,848,q),
(938,835,o),
(900,835,o),
(842,850,o),
(770,919,o),
(744,971,o),
(744,979,q),
(681,937,o),
(596,937,o),
(575,951,qs),
(546,970,o),
(546,996,qs),
(546,1000,l),
(598,1008,o),
(659,1057,o),
(673,1110,qs),
(674,1116,o),
(674,1127,qs),
(674,1171,o),
(601,1217,o),
(546,1217,qs),
(413,1217,o),
(413,1058,qs),
(413,921,o),
(537,875,qs),
(548,870,o),
(594,870,o),
(681,894,o),
(695,894,o),
(702,870,qs),
(728,788,o),
(774,762,q),
(998,616,o),
(998,377,qs),
(998,205,o),
(719,4,o),
(485,4,qs),
(373,4,o),
(270,62,qs),
(158,125,o),
(112,231,qs),
(87,289,o),
(87,356,q),
(98,474,l)
);
}
);
width = 1053;
}
);
note = dollar;
unicode = 36;
},
{
glyphname = sterling;
layers = (
{
layerId = m01;
shapes = (
{
closed = 1;
nodes = (
(627,-64,qs),
(667,-64,o),
(840,-5,o),
(978,-5,o),
(1072,-65,q),
(1112,-55,o),
(1112,6,qs),
(1112,58,o),
(1055,105,q),
(1077,117,o),
(1098,152,qs),
(1112,177,o),
(1112,221,o),
(1108,236,qs),
(1096,273,o),
(1072,273,q),
(1035,236,o),
(951,204,o),
(884,204,qs),
(518,204,o),
(517,179,q),
(540,195,o),
(560,258,qs),
(569,289,o),
(582,413,o),
(582,657,o),
(603,686,qs),
(613,699,o),
(683,699,o),
(830,671,o),
(843,670,q),
(868,675,o),
(868,716,qs),
(868,812,ls),
(868,847,o),
(850,856,qs),
(846,858,o),
(834,857,o),
(682,828,o),
(613,828,o),
(594,852,o),
(563,1058,o),
(563,1229,qs),
(563,1489,o),
(702,1489,qs),
(807,1489,o),
(807,1242,qs),
(807,1181,o),
(780,1124,o),
(734,1098,q),
(741,1076,o),
(781,1054,o),
(850,1054,o),
(924,1094,o),
(941,1118,q),
(954,1102,ls),
(968,1086,o),
(1026,1054,o),
(1077,1054,o),
(1093,1059,qs),
(1135,1072,o),
(1135,1098,q),
(1094,1120,o),
(1064,1170,o),
(1064,1217,qs),
(1064,1468,o),
(900,1548,qs),
(821,1586,o),
(678,1586,qs),
(507,1586,o),
(406,1491,qs),
(360,1447,o),
(297,1328,o),
(269,1196,o),
(269,959,o),
(273,848,q),
(261,835,o),
(221,835,o),
(83,858,q),
(76,856,ls),
(58,850,o),
(58,812,qs),
(58,716,ls),
(58,681,o),
(76,672,qs),
(80,670,o),
(92,671,o),
(208,693,o),
(245,693,qs),
(271,693,o),
(283,566,o),
(283,384,qs),
(283,300,ls),
(283,274,o),
(280,191,o),
(274,156,o),
(262,100,o),
(245,73,o),
(211,24,o),
(163,-5,q),
(167,-20,ls),
(171,-35,o),
(223,-65,o),
(268,-65,qs),
(370,-65,o),
(444,9,q),
(545,-64,o)
);
}
);
width = 1191;
}
);
note = sterling;
unicode = 163;
},
{
glyphname = yen;
layers = (
{
layerId = m01;
shapes = (
{
closed = 1;
nodes = (
(702,-42,qs),
(735,-68,o),
(788,-68,qs),
(869,-68,o),
(896,-14,q),
(837,60,o),
(788,206,o),
(784,330,q),
(954,327,o),
(1059,319,q),
(1084,327,o),
(1084,365,qs),
(1084,411,ls),
(1084,446,o),
(1066,455,qs),
(1062,457,o),
(961,448,o),
(785,445,q),
(788,507,o),
(800,573,q),
(983,568,o),
(1059,562,q),
(1084,570,o),
(1084,608,qs),
(1084,654,ls),
(1084,689,o),
(1066,698,qs),
(1062,700,o),
(1005,694,o),
(825,689,q),
(877,893,o),
(1077,1267,o),
(1197,1367,q),
(1198,1381,ls),
(1198,1419,o),
(1097,1419,qs),
(1078,1419,o),
(1054,1406,qs),
(990,1374,o),
(934,1304,q),
(927,1345,o),
(905,1378,qs),
(894,1395,o),
(851,1419,o),
(792,1419,o),
(726,1385,o),
(706,1361,q),
(732,1307,o),
(732,1175,o),
(646,756,o),
(627,756,qs),
(619,756,o),
(570,958,o),
(527,1201,o),
(527,1305,o),
(554,1361,q),
(539,1388,o),
(498,1406,qs),
(470,1419,o),
(389,1419,o),
(354,1367,qs),
(336,1340,o),
(336,1304,q),
(307,1333,ls),
(278,1362,o),
(186,1419,o),
(153,1419,qs),
(50,1419,o),
(50,1381,qs),
(50,1377,o),
(53,1369,q),
(173,1269,o),
(371,894,o),
(423,689,q),
(281,692,o),
(219,700,q),
(212,698,ls),
(194,692,o),
(194,654,qs),
(194,608,ls),
(194,573,o),
(212,564,qs),
(216,562,o),
(300,570,o),
(448,573,q),
(457,521,o),
(463,445,q),
(302,447,o),
(219,457,q),
(212,455,ls),
(194,449,o),
(194,411,qs),
(194,365,ls),
(194,330,o),
(212,321,qs),
(216,319,o),
(296,328,o),
(464,331,q),
(460,206,o),
(411,60,o),
(353,-14,q),
(361,-40,o),
(395,-56,qs),
(421,-68,o),
(461,-68,qs),
(544,-68,o),
(624,39,q),
(649,2,o)
);
}
);
width = 1247;
}
);
note = yen;
unicode = 165;
},
{
glyphname = plus;
layers = (
{
layerId = m01;
shapes = (
{
closed = 1;
nodes = (
(68,492,l),
(500,492,l),
(500,60,l),
(663,60,l),
(663,492,l),
(1095,492,l),
(1095,655,l),
(663,655,l),
(663,1087,l),
(500,1087,l),
(500,655,l),
(68,655,l)
);
}
);
width = 1162;
}
);
note = plus;
unicode = 43;
},
{
glyphname = multiply;
layers = (
{
layerId = m01;
shapes = (
{
closed = 1;
nodes = (
(276,153,l),
(582,458,l),
(887,153,l),
(1002,268,l),
(697,574,l),
(1002,879,l),
(887,994,l),
(582,689,l),
(276,994,l),
(161,879,l),
(466,574,l),
(161,268,l)
);
}
);
width = 1162;
}
);
note = multiply;
unicode = 215;
},
{
glyphname = divide;
layers = (
{
layerId = m01;
shapes = (
{
closed = 1;
nodes = (
(333,1187,o),
(333,1181,q),
(333,1181,o),
(545,998,o),
(545,998,q),
(756,1188,l),
(756,1188,o),
(545,1372,o),
(545,1372,q),
(536,1372,o)
);
},
{
closed = 1;
nodes = (
(333,324,o),
(333,318,q),
(333,318,o),
(545,135,o),
(545,135,q),
(756,325,l),
(756,325,o),
(545,509,o),
(545,509,q),
(536,509,o)
);
},
{
closed = 1;
nodes = (
(69,675,l),
(1095,675,l),
(1095,838,l),
(69,838,l)
);
}
);
width = 1166;
}
);
note = divide;
unicode = 247;
},
{
glyphname = equal;
layers = (
{
layerId = m01;
shapes = (
{
closed = 1;
nodes = (
(94,707,l),
(1121,707,l),
(1121,870,l),
(94,870,l)
);
},
{
closed = 1;
nodes = (
(94,278,l),
(1121,278,l),
(1121,441,l),
(94,441,l)
);
}
);
width = 1215;
}
);
note = equal;
unicode = 61;
},
{
glyphname = notequal;
layers = (
{
layerId = m01;
shapes = (
{
closed = 1;
nodes = (
(590,798,l),
(77,798,l),
(77,668,l),
(535,668,l),
(414,402,l),
(77,402,l),
(77,271,l),
(358,271,l),
(275,91,l),
(381,42,l),
(486,271,l),
(1007,271,l),
(1007,402,l),
(542,402,l),
(663,668,l),
(1007,668,l),
(1007,798,l),
(718,798,l),
(799,974,l),
(693,1023,l)
);
}
);
width = 1083;
}
);
note = notequal;
unicode = 8800;
},
{
glyphname = greater;
layers = (
{
layerId = m01;
shapes = (
{
closed = 1;
nodes = (
(1143,498,l),
(1143,648,l),
(74,1106,l),
(74,931,l),
(919,573,l),
(74,216,l),
(74,41,l)
);
}
);
width = 1208;
}
);
note = greater;
unicode = 62;
},
{
glyphname = less;
layers = (
{
layerId = m01;
shapes = (
{
closed = 1;
nodes = (
(1135,931,l),
(1135,1107,l),
(66,648,l),
(66,498,l),
(1135,41,l),
(1135,216,l),
(290,573,l)
);
}
);
width = 1209;
}
);
note = less;
unicode = 60;
},
{
glyphname = greaterequal;
layers = (
{
layerId = m01;
shapes = (
{
closed = 1;
nodes = (
(858,705,l),
(858,700,l),
(83,352,l),
(83,201,l),
(1001,632,l),
(1001,772,l),
(82,1203,l),
(82,1052,l)
);
},
{
closed = 1;
nodes = (
(75,129,l),
(75,-6,l),
(999,-6,l),
(999,129,l)
);
}
);
width = 1071;
}
);
note = greaterequal;
unicode = 8805;
},
{
glyphname = lessequal;
layers = (
{
layerId = m01;
shapes = (
{
closed = 1;
nodes = (
(218,701,l),
(218,705,l),
(995,1052,l),
(995,1203,l),
(77,773,l),
(77,632,l),
(996,201,l),
(996,352,l)
);
},
{
closed = 1;
nodes = (
(69,129,l),
(69,-6,l),
(1000,-6,l),
(1000,129,l)
);
}
);
width = 1074;
}
);
note = lessequal;
unicode = 8804;
},
{
glyphname = plusminus;
layers = (
{
layerId = m01;
shapes = (
{
closed = 1;
nodes = (
(74,636,l),
(506,636,l),
(506,262,l),
(669,262,l),
(669,636,l),
(1101,636,l),
(1101,799,l),
(669,799,l),
(669,1172,l),
(506,1172,l),
(506,799,l),
(74,799,l)
);
},
{
closed = 1;
nodes = (
(1101,138,l),
(74,138,l),
(74,-25,l),
(1101,-25,l)
);
}
);
width = 1173;
}
);
note = plusminus;
unicode = 177;
},
{
glyphname = approxequal;
layers = (
{
layerId = m01;
shapes = (
{
closed = 1;
nodes = (
(281,855,o),
(122,749,o),
(73,663,q),
(159,582,l),
(208,651,o),
(299,724,o),
(417,724,o),
(480,692,qs),
(499,682,o),
(618,616,o),
(712,580,o),
(771,580,qs),
(931,580,o),
(1044,772,q),
(959,854,l),
(914,782,o),
(826,713,o),
(700,713,o),
(616,763,qs),
(580,784,o),
(544,805,qs),
(457,855,o)
);
},
{
closed = 1;
nodes = (
(825,357,o),
(701,357,o),
(622,407,qs),
(589,428,o),
(519,470,o),
(424,499,o),
(283,499,o),
(122,393,o),
(73,309,q),
(159,228,l),
(208,297,o),
(299,369,o),
(444,369,o),
(687,225,o),
(770,225,qs),
(933,225,o),
(1044,417,q),
(959,498,l),
(911,424,o)
);
}
);
width = 1119;
}
);
note = approxequal;
unicode = 8776;
},
{
glyphname = asciitilde;
layers = (
{
layerId = m01;
shapes = (
{
closed = 1;
nodes = (
(811,620,qs),
(737,620,o),
(459,759,o),
(348,759,qs),
(184,759,o),
(82,610,q),
(119,436,l),
(177,510,o),
(272,579,o),
(335,579,qs),
(442,579,o),
(568,510,qs),
(616,484,o),
(742,441,o),
(882,441,o),
(1005,515,o),
(1068,587,q),
(1032,764,l),
(916,620,o)
);
}
);
width = 1151;
}
);
note = asciitilde;
unicode = 126;
},
{
glyphname = logicalnot;
layers = (
{
layerId = m01;
shapes = (
{
closed = 1;
nodes = (
(1109,874,l),
(82,874,l),
(82,712,l),
(946,712,l),
(946,278,l),
(1109,278,l)
);
}
);
width = 1207;
}
);
note = logicalnot;
unicode = 172;
},
{
glyphname = asciicircum;
layers = (
{
layerId = m01;
shapes = (
{
closed = 1;
nodes = (
(820,583,l),
(999,583,l),
(603,1315,l),
(456,1315,l),
(58,583,l),
(237,583,l),
(529,1126,l)
);
}
);
width = 1057;
}
);
note = asciicircum;
unicode = 94;
},
{
glyphname = infinity;
layers = (
{
layerId = m01;
shapes = (
{
closed = 1;
nodes = (
(1241,862,o),
(982,862,o),
(871,763,qs),
(838,734,o),
(757,642,q),
(671,748,o),
(502,862,o),
(400,862,qs),
(260,862,o),
(77,679,o),
(77,397,o),
(257,215,o),
(382,215,qs),
(440,215,o),
(491,232,qs),
(607,271,o),
(747,439,q),
(845,318,o),
(1013,215,o),
(1102,215,qs),
(1228,215,o),
(1413,396,o),
(1413,544,qs),
(1413,547,ls),
(1413,690,o)
);
},
{
closed = 1;
nodes = (
(207,453,o),
(207,624,o),
(308,741,o),
(390,741,qs),
(437,741,o),
(489,719,qs),
(508,711,o),
(558,670,o),
(583,649,o),
(635,587,o),
(650,567,o),
(678,531,q),
(675,528,o),
(636,484,o),
(626,474,o),
(588,434,o),
(573,421,o),
(537,389,o),
(515,377,o),
(456,340,o),
(402,340,qs),
(398,340,ls),
(315,340,o)
);
},
{
closed = 1;
nodes = (
(1284,628,o),
(1284,460,o),
(1187,340,o),
(1036,340,o),
(916,429,o),
(821,542,q),
(980,741,o),
(1098,741,qs),
(1100,741,ls),
(1182,741,o)
);
}
);
width = 1488;
}
);
note = infinity;
unicode = 8734;
},
{
glyphname = integral;
layers = (
{
layerId = m01;
shapes = (
{
closed = 1;
nodes = (
(205,-244,o),
(175,-206,o),
(143,-165,o),
(126,-163,q),
(96,-180,o),
(47,-248,o),
(45,-286,q),
(53,-316,o),
(138,-360,o),
(189,-360,qs),
(307,-360,o),
(382,-278,qs),
(425,-231,o),
(482,-83,o),
(516,154,o),
(516,395,o),
(491,903,o),
(483,1161,qs),
(483,1407,o),
(535,1473,qs),
(558,1502,o),
(593,1502,qs),
(609,1502,o),
(665,1431,o),
(689,1428,q),
(752,1467,o),
(757,1547,q),
(749,1576,o),
(670,1614,o),
(626,1614,qs),
(512,1614,o),
(434,1536,qs),
(390,1492,o),
(330,1356,o),
(294,1141,o),
(294,832,o),
(327,185,o),
(330,-85,o),
(270,-244,o),
(222,-244,qs)
);
}
);
width = 801;
}
);
note = integral;
unicode = 8747;
},
{
glyphname = Delta;
layers = (
{
layerId = m01;
shapes = (
{
closed = 1;
nodes = (
(746,1344,l),
(579,1330,l),
(56,91,l),
(56,0,l),
(1272,0,l),
(1272,92,l)
);
},
{
closed = 1;
nodes = (
(469,739,o),
(573,991,o),
(613,1102,q),
(649,1030,l),
(649,1029,o),
(745,775,q),
(1012,131,l),
(219,131,l)
);
}
);
width = 1327;
}
);
note = Delta;
unicode = 8710;
},
{
glyphname = product;
layers = (
{
layerId = m01;
shapes = (
{
closed = 1;
nodes = (
(510,1210,o),
(568,1210,qs),
(900,1210,ls),
(974,1210,o),
(984,1186,qs),
(989,1174,o),
(989,1144,qs),
(989,1118,l),
(989,130,ls),
(989,34,o),
(961,-47,o),
(906,-76,q),
(906,-169,l),
(1307,-169,l),
(1307,-76,l),
(1245,-46,o),
(1212,38,o),
(1212,130,qs),
(1212,1079,ls),
(1212,1149,o),
(1217,1188,q),
(1267,1214,o),
(1414,1221,q),
(1414,1333,l),
(54,1333,l),
(54,1221,l),
(202,1214,o),
(252,1188,q),
(257,1149,o),
(257,1079,qs),
(257,130,ls),
(257,40,o),
(223,-43,o),
(164,-76,q),
(164,-169,l),
(557,-169,l),
(557,-76,l),
(505,-47,o),
(481,33,o),
(481,130,qs),
(481,1121,l),
(480,1159,ls),
(480,1191,o)
);
}
);
width = 1469;
}
);
note = product;
unicode = 8719;
},
{
glyphname = summation;
layers = (
{
layerId = m01;
shapes = (
{
closed = 1;
nodes = (
(74,1237,l),
(540,547,l),
(54,-83,l),
(54,-176,l),
(1071,-176,l),
(1122,120,l),
(1020,130,l),
(984,86,o),
(927,38,o),
(841,11,o),
(736,11,qs),
(276,11,l),
(321,74,l),
(754,636,l),
(357,1215,l),
(522,1218,ls),
(730,1218,o),
(869,1181,q),
(917,1150,o),
(972,1073,q),
(1067,1082,l),
(1053,1333,l),
(74,1333,l)
);
}
);
width = 1178;
}
);
note = summation;
unicode = 8721;
},
{
glyphname = radical;
layers = (
{
layerId = m01;
shapes = (
{
closed = 1;
nodes = (
(719,205,ls),
(717,192,o),
(691,56,o),
(685,23,q),
(682,23,l),
(674,48,o),
(635,160,o),
(625,189,qs),
(385,819,l),
(50,674,l),
(81,581,l),
(244,652,l),
(626,-295,l),
(733,-280,l),
(1132,1625,l),
(1017,1635,l)
);
}
);
width = 1177;
}
);
note = radical;
unicode = 8730;
},
{
glyphname = uni00B5;
layers = (
{
layerId = m01;
shapes = (
{
closed = 1;
nodes = (
(498,-392,qs),
(549,-376,o),
(549,-344,q),
(486,-288,o),
(439,-166,o),
(439,-50,qs),
(439,-17,l),
(502,-84,o),
(714,-84,o),
(914,36,q),
(932,1,o),
(975,-40,qs),
(1001,-65,o),
(1047,-65,qs),
(1156,-65,o),
(1182,-14,q),
(1113,61,o),
(1062,227,o),
(1062,518,o),
(1098,590,qs),
(1112,620,o),
(1141,657,o),
(1162,676,o),
(1162,680,q),
(1154,688,l),
(1130,705,o),
(1110,737,qs),
(1095,760,o),
(1076,817,o),
(1062,916,o),
(1062,1126,o),
(1118,1294,o),
(1190,1365,q),
(1190,1375,o),
(1178,1388,qs),
(1151,1420,o),
(1082,1420,qs),
(997,1420,o),
(917,1313,q),
(898,1340,ls),
(878,1366,o),
(796,1420,o),
(715,1420,o),
(692,1401,qs),
(683,1394,o),
(670,1375,o),
(668,1367,o),
(667,1365,q),
(733,1295,o),
(783,1127,o),
(783,840,o),
(756,768,qs),
(745,738,o),
(723,701,o),
(707,683,o),
(707,674,o),
(731,645,o),
(761,600,o),
(785,467,o),
(785,263,o),
(768,203,qs),
(736,96,o),
(620,96,qs),
(529,96,o),
(459,223,o),
(459,561,o),
(497,622,qs),
(511,645,o),
(535,674,o),
(535,682,o),
(519,697,o),
(497,732,o),
(475,788,o),
(459,897,o),
(459,1116,o),
(511,1296,o),
(575,1365,q),
(566,1420,o),
(488,1420,qs),
(404,1420,o),
(324,1313,q),
(301,1346,o),
(246,1393,qs),
(214,1420,o),
(160,1420,qs),
(80,1420,o),
(52,1365,q),
(118,1295,o),
(168,1127,o),
(168,831,o),
(137,762,qs),
(124,733,o),
(98,697,o),
(80,682,o),
(80,673,o),
(108,643,o),
(140,596,o),
(168,458,o),
(168,356,qs),
(167,-50,ls),
(167,-166,o),
(120,-288,o),
(57,-344,q),
(61,-358,ls),
(65,-371,o),
(113,-398,o),
(179,-398,o),
(204,-390,qs),
(272,-367,o),
(303,-321,q),
(366,-398,o),
(453,-398,qs),
(479,-398,o)
);
}
);
width = 1242;
}
);
note = uni00B5;
unicode = 181;
},
{
glyphname = partialdiff;
layers = (
{
layerId = m01;
shapes = (
{
closed = 1;
nodes = (
(61,513,o),
(61,404,qs),
(61,155,o),
(245,38,qs),
(338,-22,o),
(575,-22,o),
(668,22,qs),
(840,102,o),
(933,314,qs),
(1018,508,o),
(1018,761,qs),
(1018,1052,o),
(874,1261,qs),
(805,1360,o),
(593,1477,o),
(350,1477,o),
(158,1410,o),
(133,1368,q),
(141,1330,o),
(189,1249,o),
(211,1231,q),
(354,1343,o),
(503,1343,qs),
(605,1343,o),
(751,1209,o),
(817,1003,o),
(817,768,o),
(806,725,q),
(769,783,o),
(607,877,o),
(421,877,o),
(261,813,o),
(136,695,o)
);
},
{
closed = 1;
nodes = (
(762,657,o),
(789,596,q),
(761,402,o),
(688,252,qs),
(651,177,o),
(541,90,o),
(475,90,qs),
(380,90,o),
(281,248,o),
(281,537,o),
(440,758,o),
(563,758,qs),
(642,758,o)
);
}
);
width = 1089;
}
);
note = partialdiff;
unicode = 8706;
},
{
glyphname = percent;
layers = (
{
layerId = m01;
shapes = (
{
closed = 1;
nodes = (
(254,712,o),
(254,1220,o),
(497,1220,o),
(497,712,o)
);
},
{
closed = 1;
nodes = (
(1298,1330,l),
(322,-16,l),
(458,-16,l),
(1429,1330,l)
);
},
{
closed = 1;
nodes = (
(1253,88,o),
(1253,596,o),
(1497,596,o),
(1497,88,o)
);
},
{
closed = 1;
nodes = (
(63,792,o),
(225,594,o),
(527,594,o),
(688,792,o),
(688,1142,o),
(527,1340,o),
(225,1340,o),
(63,1142,o)
);
},
{
closed = 1;
nodes = (
(1063,168,o),
(1224,-31,o),
(1526,-31,o),
(1687,168,o),
(1687,517,o),
(1526,715,o),
(1224,715,o),
(1063,517,o)
);
}
);
width = 1746;
}
);
note = percent;
unicode = 37;
},
{
glyphname = perthousand;
layers = (
{
layerId = m01;
shapes = (
{
closed = 1;
nodes = (
(1692,82,o),
(1692,576,o),
(1932,576,o),
(1932,82,o)
);
},
{
closed = 1;
nodes = (
(1147,1330,l),
(176,-16,l),
(312,-16,l),
(1279,1330,l)
);
},
{
closed = 1;
nodes = (
(241,733,o),
(241,1227,o),
(481,1227,o),
(481,733,o)
);
},
{
closed = 1;
nodes = (
(1668,-30,o),
(1955,-30,o),
(2111,172,o),
(2111,489,o),
(1955,689,o),
(1667,689,o),
(1513,489,o),
(1513,171,o)
);
},
{
closed = 1;
nodes = (
(217,621,o),
(504,621,o),
(660,823,o),
(660,1140,o),
(504,1340,o),
(216,1340,o),
(62,1140,o),
(62,822,o)
);
},
{
closed = 1;
nodes = (
(943,-30,o),
(1230,-30,o),
(1386,172,o),
(1386,489,o),
(1230,689,o),
(942,689,o),
(788,489,o),
(788,171,o)
);
},
{
closed = 1;
nodes = (
(967,82,o),
(967,576,o),
(1207,576,o),
(1207,82,o)
);
}
);
width = 2170;
}
);
note = perthousand;
unicode = 8240;
},
{
glyphname = lozenge;
layers = (
{
layerId = m01;
shapes = (
{
closed = 1;
nodes = (
(467,1416,l),
(52,648,l),
(462,-118,l),
(626,-118,l),
(1041,648,l),
(629,1416,l)
);
},
{
closed = 1;
nodes = (
(577,93,o),
(550,25,q),
(543,25,l),
(519,88,o),
(498,128,qs),
(222,650,l),
(254,711,o),
(470,1107,o),
(543,1267,q),
(549,1267,l),
(582,1190,o),
(597,1164,qs),
(871,646,l),
(595,127,ls)
);
}
);
width = 1093;
}
);
note = lozenge;
unicode = 9674;
},
{
glyphname = uni0307;
layers = (
{
layerId = m01;
shapes = (
{
closed = 1;
nodes = (
(259,1129,o),
(330,1202,o),
(330,1304,o),
(259,1377,o),
(153,1377,o),
(82,1304,o),
(82,1202,o),
(153,1129,o)
);
}
);
width = 414;
}
);
note = uni0307;
unicode = 775;
},
{
glyphname = uni030F;
layers = (
{
layerId = m01;
shapes = (
{
closed = 1;
nodes = (
(333,1364,o),
(294,1396,o),
(281,1405,o),
(219,1446,o),
(167,1446,qs),
(104,1446,o),
(70,1410,q),
(94,1361,o),
(181,1272,qs),
(344,1103,l),
(462,1103,l),
(337,1361,l)
);
},
{
closed = 1;
nodes = (
(697,1366,o),
(659,1394,o),
(651,1400,qs),
(590,1446,o),
(524,1446,qs),
(464,1446,o),
(437,1410,q),
(464,1357,o),
(547,1272,qs),
(710,1103,l),
(828,1103,l),
(703,1361,l)
);
}
);
width = 902;
}
);
note = uni030F;
unicode = 783;
},
{
glyphname = uni0311;
layers = (
{
layerId = m01;
shapes = (
{
closed = 1;
nodes = (
(304,1268,o),
(382,1268,qs),
(552,1268,o),
(579,1106,q),
(696,1106,l),
(686,1249,o),
(521,1415,o),
(246,1415,o),
(84,1243,o),
(78,1106,q),
(194,1106,l),
(205,1183,o)
);
}
);
width = 776;
}
);
note = uni0311;
unicode = 785;
},
{
glyphname = uni0326;
layers = (
{
layerId = m01;
shapes = (
{
closed = 1;
nodes = (
(389,-182,o),
(389,54,o),
(362,154,q),
(297,189,o),
(181,189,o),
(106,146,o),
(90,113,q),
(90,9,o),
(152,-73,q),
(224,-73,o),
(260,-57,q),
(262,-57,l),
(262,-145,o),
(181,-239,o),
(100,-259,q),
(100,-353,l),
(234,-341,o)
);
}
);
width = 476;
}
);
note = uni0326;
unicode = 806;
},
{
glyphname = dieresis;
layers = (
{
layerId = m01;
shapes = (
{
closed = 1;
nodes = (
(655,1129,o),
(726,1202,o),
(726,1304,o),
(655,1377,o),
(551,1377,o),
(479,1304,o),
(479,1202,o),
(551,1129,o)
);
},
{
closed = 1;
nodes = (
(259,1129,o),
(330,1202,o),
(330,1304,o),
(259,1377,o),
(153,1377,o),
(82,1304,o),
(82,1202,o),
(153,1129,o)
);
}
);
width = 810;
}
);
note = dieresis;
unicode = 168;
},
{
glyphname = dotaccent;
layers = (
{
layerId = m01;
shapes = (
{
closed = 1;
nodes = (
(259,1129,o),
(330,1202,o),
(330,1304,o),
(259,1377,o),
(153,1377,o),
(82,1304,o),
(82,1202,o),
(153,1129,o)
);
}
);
width = 414;
}
);
note = dotaccent;
unicode = 729;
},
{
glyphname = grave;
layers = (
{
layerId = m01;
shapes = (
{
closed = 1;
nodes = (
(142,1310,qs),
(400,1098,l),
(525,1098,l),
(375,1324,l),
(355,1370,l),
(348,1374,o),
(282,1414,o),
(220,1446,o),
(171,1446,qs),
(106,1446,o),
(71,1404,q),
(84,1355,o)
);
}
);
width = 598;
}
);
note = grave;
unicode = 96;
},
{
glyphname = acute;
layers = (
{
layerId = m01;
shapes = (
{
closed = 1;
nodes = (
(506,1347,o),
(524,1404,q),
(498,1446,o),
(422,1446,qs),
(384,1446,o),
(332,1421,qs),
(316,1413,o),
(250,1375,o),
(241,1370,q),
(71,1098,l),
(196,1098,l),
(441,1296,ls)
);
}
);
width = 594;
}
);
note = acute;
unicode = 180;
},
{
glyphname = hungarumlaut;
layers = (
{
layerId = m01;
shapes = (
{
closed = 1;
nodes = (
(437,1357,o),
(464,1410,q),
(437,1446,o),
(341,1446,o),
(307,1433,qs),
(294,1428,o),
(258,1406,o),
(242,1394,o),
(204,1366,o),
(198,1361,q),
(73,1103,l),
(191,1103,l),
(354,1272,ls)
);
},
{
closed = 1;
nodes = (
(807,1361,o),
(831,1410,q),
(797,1446,o),
(707,1446,o),
(668,1433,qs),
(656,1429,o),
(620,1405,o),
(607,1396,o),
(568,1364,o),
(564,1361,q),
(439,1103,l),
(557,1103,l),
(720,1272,ls)
);
}
);
width = 900;
}
);
note = hungarumlaut;
unicode = 733;
},
{
glyphname = circumflex;
layers = (
{
layerId = m01;
shapes = (
{
closed = 1;
nodes = (
(196,1099,l),
(394,1287,l),
(591,1099,l),
(719,1099,l),
(507,1435,l),
(279,1435,l),
(71,1099,l)
);
}
);
width = 793;
}
);
note = circumflex;
unicode = 710;
},
{
glyphname = caron;
layers = (
{
layerId = m01;
shapes = (
{
closed = 1;
nodes = (
(589,1435,l),
(395,1247,l),
(194,1435,l),
(66,1435,l),
(279,1099,l),
(507,1099,l),
(714,1435,l)
);
}
);
width = 780;
}
);
note = caron;
unicode = 711;
},
{
glyphname = breve;
layers = (
{
layerId = m01;
shapes = (
{
closed = 1;
nodes = (
(246,1106,o),
(521,1106,o),
(686,1272,o),
(696,1415,q),
(579,1415,l),
(552,1253,o),
(382,1253,qs),
(304,1253,o),
(205,1338,o),
(194,1415,q),
(78,1415,l),
(84,1278,o)
);
}
);
width = 772;
}
);
note = breve;
unicode = 728;
},
